
<svg xmlns="http://www.w3.org/2000/svg" width="69.343" height="69.343" viewBox="0 0 69.343 69.343">
  <path id="Accounts" d="M68.835,73.343H2.507a1.729,1.729,0,0,1,0-3.43H68.835a1.729,1.729,0,0,1,0,3.43ZM23.612,56.195a1.729,1.729,0,0,1,0,3.43H11.552a1.729,1.729,0,0,1,0-3.43H13.06V33.9H11.552a1.729,1.729,0,0,1,0-3.43h12.06a1.729,1.729,0,0,1,0,3.43H22.1V56.195ZM19.089,33.9H16.075V56.195h3.015ZM41.7,56.195a1.729,1.729,0,0,1,0,3.43H29.642a1.729,1.729,0,0,1,0-3.43h1.507V33.9H29.642a1.729,1.729,0,0,1,0-3.43H41.7a1.729,1.729,0,0,1,0,3.43H40.194V56.195ZM37.179,33.9H34.164V56.195h3.015ZM65.82,64.769a1.62,1.62,0,0,1-1.507,1.715H7.03a1.729,1.729,0,0,1,0-3.43H64.313A1.62,1.62,0,0,1,65.82,64.769Zm-6.03-8.574a1.729,1.729,0,0,1,0,3.43H47.731a1.729,1.729,0,0,1,0-3.43h1.507V33.9H47.731a1.729,1.729,0,0,1,0-3.43h12.06a1.729,1.729,0,0,1,0,3.43H58.283V56.195ZM55.268,33.9H52.253V56.195h3.015ZM4.015,23.614,35.671,4,67.328,23.614v3.43H4.015Zm56.591,0L35.671,8.949,10.642,23.614Z" transform="translate(-1 -4)" fill="#26684d"/>
</svg>
