<svg xmlns="http://www.w3.org/2000/svg" width="71.406" height="71.398" viewBox="0 0 71.406 71.398">
  <path id="design" d="M-1976.588,70a5.869,5.869,0,0,1-.933-1.512c-.953-1.909-1.921-3.811-2.851-5.731a1.45,1.45,0,0,0-.864-.781c-3.626-1.378-7.244-2.778-10.872-4.152a1.918,1.918,0,0,1-1.207-1.177q-5.483-13.79-11.017-27.56a1.464,1.464,0,0,1,.359-1.831c1.141-1.08,2.241-2.2,3.336-3.329a1.307,1.307,0,0,1,1.6-.315q13.9,5.57,27.813,11.109a1.8,1.8,0,0,1,1.051,1.158c1.371,3.606,2.762,7.2,4.13,10.812a1.6,1.6,0,0,0,.863.964c1.9.913,3.782,1.875,5.671,2.817a5.932,5.932,0,0,1,1.51.935v.82c-.216.261-.413.541-.652.78q-8.14,8.153-16.292,16.3c-.254.254-.549.466-.825.7Zm9.817-20.145q-5.7,5.689-11.4,11.383a.564.564,0,0,0-.128.8c.754,1.448,1.494,2.9,2.189,4.382.25.532.377.617.835.156q6.878-6.93,13.8-13.819c.157-.157.3-.324.51-.545-1.784-.892-3.524-1.759-5.261-2.631a.365.365,0,0,0-.163-.045C-1966.582,49.538-1966.661,49.744-1966.772,49.855Zm-35.192-21.531c-.287.275-.115.5-.021.733q5.244,13.119,10.489,26.238a1.063,1.063,0,0,0,.68.67q5.091,1.934,10.163,3.918a.742.742,0,0,0,.937-.208q5.684-5.718,11.4-11.4a.744.744,0,0,0,.2-.94q-1.97-5.042-3.888-10.1a1.207,1.207,0,0,0-.768-.764q-10.721-4.269-21.431-8.567c-1.622-.649-3.253-1.278-4.862-1.961-.435-.185-.57.1-.787.305-.26.244.021.357.144.481q6.734,6.746,13.469,13.49a.454.454,0,0,0,.684.087,6.452,6.452,0,0,1,3.765-.942,6.334,6.334,0,0,1,6.009,6.229,6.479,6.479,0,0,1-4.1,6.192,6.438,6.438,0,0,1-7.248-1.848,6.429,6.429,0,0,1-.631-7.39c.2-.344.243-.535-.072-.847q-6.71-6.673-13.381-13.384a.558.558,0,0,0-.364-.214C-2001.7,28.093-2001.812,28.179-2001.963,28.324Zm19.736,13.215a4.2,4.2,0,0,0-4.232,4.253,4.246,4.246,0,0,0,4.27,4.236,4.288,4.288,0,0,0,4.218-4.239,4.246,4.246,0,0,0-4.244-4.249ZM-2008.3,70q-2.453-2.447-4.905-4.9c-.736-.737-.732-1.241-.014-1.977.524-.537,1.364-1.017,1.478-1.631s-.723-1.214-1.119-1.837a32.136,32.136,0,0,1-4.981-21.158,31.217,31.217,0,0,1,2.033-8.18c.071-.181.209-.349.161-.562-.208-.161-.293.033-.39.129-1.762,1.749-3.511,3.512-5.287,5.245-.308.3-.192.538-.1.846a3.368,3.368,0,0,1-2.313,4.186,3.343,3.343,0,0,1-4.153-2.46,3.175,3.175,0,0,1,.921-3.187,3.12,3.12,0,0,1,3.275-.788.823.823,0,0,0,.983-.267q4.895-4.913,9.814-9.8a.578.578,0,0,0,.133-.843,5.559,5.559,0,0,1,.956-6.663,5.558,5.558,0,0,1,6.606-.955.621.621,0,0,0,.9-.133q4.9-4.952,9.84-9.873c.2-.2.378-.352.252-.742a3.268,3.268,0,0,1,2.2-4.322c.048-.017.078-.086.116-.132h1.64c.1.232.342.179.514.256a3.346,3.346,0,0,1,1.835,4.146,3.331,3.331,0,0,1-3.964,2.187c-.3-.07-.578-.327-.927.033-1.895,1.949-3.819,3.869-5.733,5.8.249.1.438-.082.638-.161a32,32,0,0,1,21.258-.966,30.713,30.713,0,0,1,9.656,4.791c.364.269.576.276.875-.074.384-.448.828-.846,1.252-1.258a1.154,1.154,0,0,1,1.929.008q1.7,1.683,3.381,3.383A10.439,10.439,0,0,1-1958,19.824v.684c-1.635,1.8-3.409,3.47-5.13,5.188a1.025,1.025,0,0,1-1.528-.008q-2.42-2.362-4.8-4.763a1.073,1.073,0,0,1,.016-1.587c.416-.45.854-.88,1.32-1.357a24.476,24.476,0,0,0-4.858-2.916q-15.193-6.766-29.353,1.989c-.456.282-.519.5-.327,1.008a5.317,5.317,0,0,1-1.245,6.033,5.316,5.316,0,0,1-6.039,1.21c-.506-.195-.711-.116-1,.326a30.094,30.094,0,0,0,1.006,34.316c.39-.426.755-.853,1.152-1.249a1.148,1.148,0,0,1,1.887-.016q2.247,2.247,4.474,4.513c.578.588.644,1.161.135,1.68-1.594,1.627-3.215,3.227-4.828,4.835a4.513,4.513,0,0,1-.353.29Zm.222-8.925q-1.363,1.382-2.75,2.741c-.207.2-.231.326-.011.54q1.366,1.331,2.7,2.7c.23.237.36.234.591,0,.869-.9,1.761-1.771,2.643-2.656.095-.1.177-.2.273-.315-.067-.078-.119-.148-.18-.209-.931-.931-1.867-1.857-2.79-2.8a.358.358,0,0,0-.237-.139A.364.364,0,0,0-2008.076,61.075ZM-2025.7,36.821a1.148,1.148,0,0,0,1.14,1.182,1.053,1.053,0,0,0,1.089-1.06,1.138,1.138,0,0,0-1.146-1.172h-.01A1.02,1.02,0,0,0-2025.7,36.821Zm10.043-7.195a.006.006,0,0,0,0,0,.006.006,0,0,1,0,0,.4.4,0,0,1,.041-.083l.045.042-.045-.042A.4.4,0,0,0-2015.656,29.626Zm4.379-9.52a3.431,3.431,0,0,0,3.4,3.451,3.38,3.38,0,0,0,3.443-3.382,3.422,3.422,0,0,0-3.372-3.47h-.041A3.479,3.479,0,0,0-2011.277,20.106Zm47.123-2.965q-1.338,1.367-2.7,2.707c-.214.209-.208.34,0,.547.912.892,1.808,1.8,2.712,2.7.077.076.163.144.261.229.095-.078.167-.127.229-.189.935-.933,1.863-1.874,2.808-2.8.229-.224.092-.343-.06-.495-.9-.9-1.81-1.8-2.7-2.71a.4.4,0,0,0-.27-.156A.421.421,0,0,0-1964.154,17.141Zm-26.933-14.953a1.157,1.157,0,0,0-1.136,1.2,1.149,1.149,0,0,0,1.138,1.126,1.174,1.174,0,0,0,1.182-1.161,1.179,1.179,0,0,0-1.166-1.163Z" transform="translate(2028.707 0.699)" fill="#26684d" stroke="#26684d" stroke-miterlimit="10" stroke-width="1.4"/>
</svg>
