<svg xmlns="http://www.w3.org/2000/svg" width="71.822" height="69.822" viewBox="0 0 71.822 69.822">
  <path id="masters" d="M-2002.7,65.421q-11.793-6.259-23.585-12.52a2.777,2.777,0,0,1-1.646-3.117,2.739,2.739,0,0,1,4.078-1.776c2.615,1.371,5.215,2.769,7.822,4.153q8,4.248,16.005,8.493a14.122,14.122,0,0,0,14.078-.01q11.617-6.229,23.232-12.463c2.294-1.231,3.593-.838,4.713,1.427v1.367a5.253,5.253,0,0,1-2.694,2.337q-11.238,6-22.455,12.037a20.584,20.584,0,0,1-9.84,2.652A20.546,20.546,0,0,1-2002.7,65.421Zm.371-12.12c-8.027-4.2-16.012-8.48-24.017-12.722a2.7,2.7,0,0,1-1.626-2.752,2.58,2.58,0,0,1,1.815-2.335,2.865,2.865,0,0,1,2.422.278q7.034,3.747,14.081,7.47,4.814,2.554,9.624,5.114a14.145,14.145,0,0,0,14.136-.04c7.738-4.165,15.5-8.281,23.217-12.488,1.715-.936,3.694-.951,4.675,1.484v1.367a5.184,5.184,0,0,1-2.632,2.307c-7.713,4.115-15.387,8.3-23.129,12.364a19.681,19.681,0,0,1-9.211,2.4A20.037,20.037,0,0,1-2002.327,53.3Zm-.094-12.471q-10.307-5.5-20.591-11.053a8.854,8.854,0,0,1-4.952-8.071,8.627,8.627,0,0,1,4.688-8.146c7.146-3.874,14.318-7.708,21.567-11.386a18.767,18.767,0,0,1,17.953.23c6.873,3.568,13.694,7.234,20.545,10.844a9.247,9.247,0,0,1,5.071,6.785c.017.093.029.176.141.194v2.733a2.987,2.987,0,0,0-.346,1.134,9.482,9.482,0,0,1-4.891,5.843q-9.231,4.916-18.438,9.878a28.832,28.832,0,0,1-5.88,2.666,20.61,20.61,0,0,1-5.514.774A19.622,19.622,0,0,1-2002.421,40.83Zm2.769-33.6c-6.862,3.585-13.692,7.233-20.543,10.838a3.8,3.8,0,0,0-2.312,3.492,3.785,3.785,0,0,0,2.267,3.519q10.214,5.457,20.412,10.945a14.26,14.26,0,0,0,6.994,1.756,14.04,14.04,0,0,0,6.718-1.78c2.577-1.392,5.163-2.769,7.744-4.153q6.333-3.4,12.669-6.79a3.755,3.755,0,0,0,2.224-3.477,3.713,3.713,0,0,0-2.235-3.469c-.626-.321-1.244-.659-1.866-.988-6.263-3.309-12.51-6.651-18.8-9.917A14.239,14.239,0,0,0-1992.99,5.5,14.284,14.284,0,0,0-1999.652,7.227Z" transform="translate(2028.922 0.922)" fill="#809ee3" stroke="#809ee3" stroke-miterlimit="10" stroke-width="1.8"/>
</svg>
