<svg xmlns="http://www.w3.org/2000/svg" width="70.6" height="70.6" viewBox="0 0 70.6 70.6">
  <path id="mobile_app_admin" data-name="mobile app admin" d="M22.459,70a5.837,5.837,0,0,1-6.124-6.138c0-7.023-.013-14.047.017-21.071,0-.692-.206-.814-.836-.8-2.1.038-2.159.023-2.516-2.1a2.441,2.441,0,0,0-1.775-2.269,1.966,1.966,0,0,0-2.2.223,11.528,11.528,0,0,1-1.343.868,1.164,1.164,0,0,1-1.584-.174q-1.319-1.31-2.63-2.628a1.163,1.163,0,0,1-.179-1.582c.09-.144.182-.286.271-.431.419-.68,1.119-1.338,1.174-2.047.053-.673-.6-1.386-.814-2.136a.568.568,0,0,0-.517-.423c-.808-.158-1.609-.357-2.412-.54A1.16,1.16,0,0,1,0,27.5c0-1.215,0-2.43,0-3.645a1.172,1.172,0,0,1,1.033-1.283c.143-.029.281-.077.423-.107,2.4-.513,2.389-.517,3.266-2.764a.56.56,0,0,0-.1-.589c-.432-.674-.859-1.351-1.3-2.019a1.212,1.212,0,0,1,.182-1.7c.844-.84,1.674-1.694,2.521-2.531a1.185,1.185,0,0,1,1.752-.175c.64.4,1.285.784,1.9,1.219a.7.7,0,0,0,.914.035,1.726,1.726,0,0,1,.657-.3,1.973,1.973,0,0,0,1.725-2.1,6.493,6.493,0,0,1,.295-1.348,1.142,1.142,0,0,1,1.348-.829,1.122,1.122,0,0,1,.888,1.31c-.227,1.24-.5,2.471-.783,3.7a1.13,1.13,0,0,1-.908.847A12.045,12.045,0,0,0,10.74,16.5,1.263,1.263,0,0,1,9.3,16.436c-.569-.37-1.151-.723-1.709-1.109a.519.519,0,0,0-.8.055c-1.1,1.075-1.11,1.06-.278,2.357.157.245.3.5.476.732a1.463,1.463,0,0,1,.067,1.816,9.007,9.007,0,0,0-1.109,2.675,1.388,1.388,0,0,1-1.217,1.176c-.407.063-.807.17-1.209.261-1.195.271-1.15.274-1.212,1.494-.033.652.2.828.8.959,2.876.632,2.47.232,3.23,2.706a8.922,8.922,0,0,0,.795,1.629,1.343,1.343,0,0,1-.039,1.5c-.386.588-.737,1.2-1.147,1.771-.222.309-.159.479.082.732,1.056,1.109,1.048,1.117,2.362.278.286-.183.582-.351.859-.548a1.316,1.316,0,0,1,1.563-.058A11.068,11.068,0,0,0,13.764,36.1a1.271,1.271,0,0,1,1.013,1.1c.125.692.321,1.371.435,2.064.073.447.339.428.605.408a1.547,1.547,0,0,1,.227-.006c.436.033.283-.308.284-.508.01-1.968-.01-3.937.018-5.905.006-.469-.124-.579-.59-.618a6.938,6.938,0,0,1-6.1-4.887A6.842,6.842,0,0,1,11.84,20.3a4.206,4.206,0,0,1,.4-.314,1.207,1.207,0,0,1,1.8.141,1.145,1.145,0,0,1-.374,1.7,4.846,4.846,0,0,0-1.931,3.059,4.721,4.721,0,0,0,4.137,5.432c.413.033.47-.118.467-.475-.015-1.7-.007-3.4-.007-5.1q0-9.259,0-18.519A5.85,5.85,0,0,1,22.589,0q6.234,0,12.468,0T47.525,0a5.836,5.836,0,0,1,6.14,6.122q.008,10.572-.014,21.144c0,.6.133.76.744.749,2.188-.04,2.238-.022,2.614,2.15a2.426,2.426,0,0,0,1.752,2.2,1.974,1.974,0,0,0,2.265-.24,10.44,10.44,0,0,1,1.28-.831,1.162,1.162,0,0,1,1.586.151q1.351,1.329,2.681,2.68a1.146,1.146,0,0,1,.152,1.529c-.076.124-.155.247-.233.37-.429.676-1.136,1.324-1.207,2.035s.51,1.465.79,2.207a.6.6,0,0,0,.506.435c.786.149,1.559.361,2.342.523A1.209,1.209,0,0,1,70,42.552q-.007,1.786,0,3.573a1.186,1.186,0,0,1-1.018,1.3c-.781.173-1.56.358-2.339.541-.576.135-1.552,2.469-1.237,2.967.415.656.831,1.311,1.261,1.957a1.214,1.214,0,0,1-.164,1.7q-1.288,1.29-2.57,2.585a1.185,1.185,0,0,1-1.642.179c-.672-.435-1.345-.868-2.023-1.293-.5-.315-2.835.671-2.968,1.252-.178.78-.331,1.566-.527,2.341a1.176,1.176,0,0,1-1.375.988,1.15,1.15,0,0,1-.878-1.443c.222-1.167.49-2.325.739-3.487a1.156,1.156,0,0,1,.916-.924A12.166,12.166,0,0,0,59.249,53.5a1.264,1.264,0,0,1,1.436.055c.591.382,1.2.739,1.772,1.146.3.216.477.168.733-.078,1.121-1.073,1.129-1.063.295-2.356-.158-.244-.3-.5-.474-.733a1.455,1.455,0,0,1-.081-1.814,8.858,8.858,0,0,0,1.109-2.675,1.437,1.437,0,0,1,1.279-1.206,11.041,11.041,0,0,0,1.279-.276c.357-.1.93,0,1.025-.362a5.935,5.935,0,0,0,.03-1.739c-.013-.258-.305-.2-.47-.243-.657-.167-1.32-.316-1.987-.44a1.275,1.275,0,0,1-1.1-1.016,11.43,11.43,0,0,0-1.256-3.008,1.261,1.261,0,0,1,.046-1.435c.383-.59.745-1.195,1.146-1.772a.485.485,0,0,0-.052-.738c-1.068-1.13-1.057-1.141-2.361-.306-.266.17-.544.323-.8.51a1.425,1.425,0,0,1-1.753.052,9.621,9.621,0,0,0-2.743-1.137,1.345,1.345,0,0,1-1.118-1.18c-.1-.621-.308-1.228-.378-1.851-.067-.592-.415-.587-.852-.573-.545.017-.3.423-.3.64-.021,1.92,0,3.84-.021,5.76,0,.43.058.6.564.641a6.982,6.982,0,0,1,3.9,12.357c-.112.093-.225.187-.344.271a1.2,1.2,0,0,1-1.8-.138,1.142,1.142,0,0,1,.368-1.7,4.84,4.84,0,0,0,1.92-3.066,4.721,4.721,0,0,0-4.152-5.421c-.533-.04-.447.259-.446.566q0,5.1,0,10.207,0,6.708,0,13.415A5.838,5.838,0,0,1,47.54,70Q41.27,70,35,70T22.459,70Zm.133-67.661c-2.527,0-3.924,1.394-3.924,3.916q0,14.362,0,28.725,0,14.4,0,28.8a3.536,3.536,0,0,0,3.878,3.89H47.407c2.524,0,3.925-1.4,3.925-3.917q0-28.761,0-57.523a3.53,3.53,0,0,0-3.879-3.888H22.591ZM9.333,59.408A1.2,1.2,0,0,1,10.488,58.1a1.184,1.184,0,0,1,1.177,1.141,1.249,1.249,0,0,1-1.19,1.295h-.017A1.064,1.064,0,0,1,9.333,59.408Zm0-4.678a1.2,1.2,0,0,1,1.167-1.3,1.186,1.186,0,0,1,1.165,1.154,1.249,1.249,0,0,1-1.2,1.283h0A1.064,1.064,0,0,1,9.333,54.73Zm1.074-3.53a1.068,1.068,0,0,1-1.074-1.192,1.168,1.168,0,1,1,2.332-.033A1.244,1.244,0,0,1,10.452,51.2ZM59.438,21.125a1.1,1.1,0,0,1-1.108-1.18,1.169,1.169,0,1,1,2.334-.1,1.3,1.3,0,0,1-1.2,1.285Zm-.009-4.666a1.1,1.1,0,0,1-1.1-1.19,1.169,1.169,0,1,1,2.334-.085,1.3,1.3,0,0,1-1.2,1.275Zm-1.1-5.823a1.184,1.184,0,0,1,1.165-1.3,1.172,1.172,0,0,1,1.168,1.149,1.294,1.294,0,0,1-1.2,1.308A1.1,1.1,0,0,1,58.33,10.636ZM35,7c-1.091,0-2.182.006-3.273,0-.861-.006-1.377-.441-1.388-1.149s.509-1.179,1.354-1.182q3.309-.011,6.619,0c.844,0,1.365.473,1.353,1.183S39.131,6.994,38.271,7q-.648,0-1.3,0Z" transform="translate(0.299 0.299)" fill="#26684d" stroke="#26684d" stroke-miterlimit="10" stroke-width="0.6"/>
</svg>
