<svg xmlns="http://www.w3.org/2000/svg" width="70.223" height="70.199" viewBox="0 0 70.223 70.199">
  <path id="reports" d="M19.551,70c-.038-.05-.066-.13-.116-.147-2.257-.758-3.05-2.41-3.042-4.686.032-8.769.009-17.539.024-26.308,0-.5-.09-.635-.624-.611a15.008,15.008,0,0,1-13.877-22.3,14.776,14.776,0,0,1,13.932-7.7c.437.01.586-.062.569-.528-.037-1.047-.012-2.1-.011-3.143,0-2.9,1.676-4.568,4.582-4.568h7.766Q41.582.013,54.409,0a2.529,2.529,0,0,1,1.932.81q6.166,6.2,12.366,12.375A11.31,11.31,0,0,1,70,14.638V66.856c-.238.083-.207.318-.279.495a4.272,4.272,0,0,1-1.811,2.111c-.422.254-.924.268-1.328.538Zm45.944-2.735c1.3,0,1.77-.477,1.77-1.78q0-24.227.013-48.454c0-.512-.12-.632-.63-.628-3.736.024-7.473.014-11.21.013-1.4,0-1.844-.448-1.845-1.842,0-3.759-.008-7.518.01-11.276,0-.439-.1-.562-.555-.562q-16.131.02-32.263.013a1.431,1.431,0,0,0-1.643,1.63c-.01,1.207.04,2.417-.02,3.621a.873.873,0,0,0,.74,1.039,14.991,14.991,0,0,1-.137,28.467.74.74,0,0,0-.6.864q.019,13.5.009,26.995c0,1.479.427,1.9,1.924,1.9H43.212Q54.353,67.266,65.495,67.265ZM13.024,11.107A12.3,12.3,0,1,0,27.182,25.262c.1-.56-.064-.66-.593-.656-3.737.022-7.474.015-11.211.01-1.212,0-1.7-.493-1.7-1.707-.005-1.845,0-3.691,0-5.536,0-1.891-.02-3.782.013-5.673.008-.441-.072-.618-.4-.618A1.612,1.612,0,0,0,13.024,11.107ZM26.79,21.893c.444,0,.453-.166.409-.515a12.447,12.447,0,0,0-10.28-10.291c-.432-.053-.53.045-.523.475.027,1.639.011,3.279.011,4.919s.012,3.28-.009,4.919c0,.38.092.494.484.492q2.5-.012,5-.013Q24.334,21.879,26.79,21.893ZM56.321,13.35c0,.359.192.333.43.332,2.8,0,5.6,0,8.37,0L56.329,4.888C56.329,7.676,56.334,10.513,56.321,13.35Zm-34.394,44.1a4.074,4.074,0,0,1,5.217-4.471.8.8,0,0,0,.984-.264q2.078-2.312,4.212-4.575a.754.754,0,0,0,.182-.893,4.017,4.017,0,0,1,1.49-4.652,4.094,4.094,0,0,1,4.788.063,3.987,3.987,0,0,1,1.4,4.618.9.9,0,0,0,.195,1.028q1.787,2.156,3.515,4.36c.256.325.467.472.9.3a2.52,2.52,0,0,1,1.613-.14,1.064,1.064,0,0,0,1.221-.423q4.267-4.618,8.574-9.2a.663.663,0,0,0,.14-.915,4.113,4.113,0,0,1,3.827-5.909,3.974,3.974,0,0,1,3.5,2.325A3.85,3.85,0,0,1,63.3,42.89a3.891,3.891,0,0,1-4.018,1.592.742.742,0,0,0-.769.254q-4.394,4.733-8.809,9.446a.619.619,0,0,0-.116.86,4.07,4.07,0,0,1-4.975,5.681,3.952,3.952,0,0,1-2.753-3.556,3.364,3.364,0,0,1,.271-1.735.665.665,0,0,0-.122-.793q-1.864-2.269-3.685-4.574a.569.569,0,0,0-.744-.24,3.554,3.554,0,0,1-2.539-.041.562.562,0,0,0-.7.192c-1.455,1.6-2.916,3.2-4.4,4.773a.654.654,0,0,0-.118.783,4.091,4.091,0,0,1-3.859,5.434A4.108,4.108,0,0,1,21.927,57.451Zm2.69-.6a1.359,1.359,0,1,0,1.366-1.335h-.005A1.409,1.409,0,0,0,24.618,56.853ZM45.9,55.518a1.356,1.356,0,1,0,.039,0Zm-10.89-9.544a1.359,1.359,0,1,0,1.378-1.392h-.02A1.406,1.406,0,0,0,35.008,45.975Zm23.653-5.547a1.359,1.359,0,1,0,1.388-1.313h-.031A1.411,1.411,0,0,0,58.661,40.428ZM14.645,32.807A9.6,9.6,0,0,1,5.476,23.5c-.011-1.179.942-1.924,1.907-1.48a1.382,1.382,0,0,1,.82,1.311,6.919,6.919,0,0,0,6.764,6.76,1.378,1.378,0,0,1,1.43,1.42c-.042.809-.669,1.3-1.655,1.3ZM39.6,30.073A1.391,1.391,0,0,1,38.29,28.74a1.368,1.368,0,0,1,1.331-1.374c.455-.029.912-.024,1.369-.019.181,0,.362,0,.542,0h8.535q4.917,0,9.833,0a4.483,4.483,0,0,1,.681.025,1.35,1.35,0,0,1-.023,2.687,4.315,4.315,0,0,1-.613.02h-19.8l-.256,0A2.647,2.647,0,0,1,39.6,30.073Zm-6.778-1.348a1.361,1.361,0,1,1,1.419,1.353h-.059A1.409,1.409,0,0,1,32.819,28.725Zm25.033-4.108H40.031c-1.092-.007-1.757-.538-1.741-1.389.016-.83.663-1.343,1.717-1.344q5.019,0,10.038,0,5.053,0,10.106,0c1.2,0,1.907.847,1.543,1.818a1.365,1.365,0,0,1-1.382.911c-.336,0-.673.006-1.009.006ZM34.17,24.61a1.359,1.359,0,1,1,.011,0Zm.971-8.2a1.392,1.392,0,0,1-1.5-1.351,1.408,1.408,0,0,1,1.478-1.377c.159-.007.318,0,.478,0H45.9q.511,0,1.023,0c.842,0,1.685-.009,2.527.014a1.369,1.369,0,0,1,1.4,1.38,1.4,1.4,0,0,1-1.376,1.338c-.13.01-.261.008-.392.007H40.2l-2.007,0Q36.668,16.418,35.141,16.41Zm.038-5.467a1.4,1.4,0,0,1-1.538-1.382,1.416,1.416,0,0,1,1.508-1.347c.113,0,.228,0,.341,0H49.074c1.11,0,1.765.5,1.777,1.352s-.651,1.38-1.747,1.381q-3.447,0-6.894,0l-4,0Q36.694,10.95,35.179,10.943Z" transform="translate(0.123 0.1)" fill="#26684d" stroke="#26684d" stroke-miterlimit="10" stroke-width="0.2"/>
</svg>
