<svg xmlns="http://www.w3.org/2000/svg" width="48.998" height="71" viewBox="0 0 48.998 71">
  <path id="sales_purchase_account" data-name="sales purchase account" d="M-2022.516,70c-3.37,0-5.481-2.123-5.482-5.535q0-29.462,0-58.925a5.131,5.131,0,0,1,3.734-5.362c.1-.037.229-.03.252-.177h39.753c.075.177.213.169.349.162a.613.613,0,0,1,.183.009,5.131,5.131,0,0,1,3.681,4.421c.033.385.043.774.043,1.161q0,18.73,0,37.46a5.778,5.778,0,0,1-.023.751.926.926,0,0,1-1,.9.93.93,0,0,1-.986-.915,5.765,5.765,0,0,1-.023-.75q0-18.8,0-37.6a3.58,3.58,0,0,0-.618-2.323,3.145,3.145,0,0,0-2.653-1.23q-9.532.015-19.066.005h-18.185c-2.209,0-3.412,1.218-3.413,3.469q0,29.462,0,58.924c0,2.295,1.193,3.5,3.448,3.5h37.048a3.094,3.094,0,0,0,3.434-3.448q.007-7.656,0-15.312c0-1.053.315-1.551.991-1.57.7-.021,1.041.5,1.041,1.587q0,7.587,0,15.175c0,3.515-2.078,5.621-5.533,5.621h-36.981Zm1.778-8.536c-.726-.039-1.013-.518-.843-1.238a3.109,3.109,0,0,1,.577-1.07c.675-.94,1.354-1.875,2.021-2.819a4.439,4.439,0,0,0,.407-.7.668.668,0,0,0-.344-.966c-.428-.211-.732-.013-.937.382-.021.04-.037.083-.055.124-.311.7-.787.963-1.363.744a1.123,1.123,0,0,1-.535-1.5,2.825,2.825,0,0,1,2.636-1.887,2.79,2.79,0,0,1,2.6,2.017,2.941,2.941,0,0,1-.38,2.352c-.248.432-.535.841-.814,1.254s-.566.811-.931,1.329c.578,0,1.023-.014,1.468,0a1.02,1.02,0,0,1,1.049,1.014,1,1,0,0,1-.981,1.019q-.51.007-1.022.008C-2019.034,61.525-2019.887,61.508-2020.738,61.464Zm6.574-2.565a1.008,1.008,0,0,1,.767-1.241,2.157,2.157,0,0,1,.471-.026q8.718,0,17.436,0c.78,0,1.213.323,1.271.925.065.688-.383,1.121-1.2,1.123q-4.427.008-8.853,0-4.359,0-8.717,0h0C-2013.569,59.685-2014.012,59.514-2014.164,58.9Zm26.523-4.318h-25.007a5.942,5.942,0,0,1-.608-.01.944.944,0,0,1-.936-.973.968.968,0,0,1,.859-1.05,2.555,2.555,0,0,1,.539-.018h25.277a2.687,2.687,0,0,1,.539.015.969.969,0,0,1,.868,1.043.942.942,0,0,1-.924.982,2.522,2.522,0,0,1-.292.014C-1987.43,54.584-1987.536,54.581-1987.641,54.581Zm-31.425-10.4c-.634-.012-1-.5-1.005-1.353,0-1.617-.006-3.236,0-4.853,0-.365.024-.622-.5-.637a.919.919,0,0,1-.918-1.05.95.95,0,0,1,1.013-.96c.45-.022.9-.022,1.352,0a.99.99,0,0,1,1.071,1.117c.014,1.116,0,2.233,0,3.349,0,1.026,0,2.051,0,3.076,0,.844-.366,1.316-1,1.316Zm5.481-1.806a.962.962,0,0,1-.606-1.036.918.918,0,0,1,.793-.888,2.918,2.918,0,0,1,.548-.031h17.283a2.932,2.932,0,0,1,.549.031.913.913,0,0,1,.8.883.959.959,0,0,1-.6,1.04,1.992,1.992,0,0,1-.866.1h-17.032l-.268,0A1.4,1.4,0,0,1-2013.585,42.372Zm-.019-5.109a.963.963,0,0,1-.584-1.049.913.913,0,0,1,.812-.869,4.623,4.623,0,0,1,.742-.028q6.252,0,12.5,0,6.218,0,12.437,0a5.369,5.369,0,0,1,.742.023.912.912,0,0,1,.842.912.921.921,0,0,1-.688,1.039,2.311,2.311,0,0,1-.664.076q-12.674.005-25.348,0h-.155A1.421,1.421,0,0,1-2013.6,37.263Zm3.793-10.1a2.089,2.089,0,0,1-2.247-1.664q-1.226-4.038-2.422-8.084a2.054,2.054,0,0,1,2.1-2.829.885.885,0,0,0,1.007-.7c.469-1.3,1.01-2.573,1.521-3.857a2.757,2.757,0,0,1,2.773-1.876q3.075,0,6.151,0a2.751,2.751,0,0,1,2.774,1.872c.536,1.347,1.081,2.691,1.594,4.047a.662.662,0,0,0,.729.507c1.975,0,2.808,1.169,2.236,3.092q-1.145,3.848-2.3,7.692a2.161,2.161,0,0,1-2.423,1.8q-2.838,0-5.676,0h-3.321Q-2008.565,27.162-2009.811,27.159Zm11.289-2.04c.489,0,.642-.185.76-.614.327-1.18.7-2.345,1.055-3.518.427-1.43.847-2.862,1.292-4.369h-.948c-1.914,0-3.828.009-5.742,0-.927-.005-1.453-.727-1.1-1.467a1.033,1.033,0,0,1,1.051-.584c1.178.011,2.355,0,3.615,0-.535-1.345-1.029-2.582-1.519-3.82a.81.81,0,0,0-.841-.545q-3.108.007-6.215,0a.724.724,0,0,0-.744.368c-.548,1.306-1.065,2.625-1.615,4,.83,0,1.55,0,2.27,0a1.166,1.166,0,0,1,.652.122.977.977,0,0,1,.5,1.1,1,1,0,0,1-1.083.831c-1.644.007-3.288.02-4.931,0-.463-.006-.508.113-.378.538.761,2.494,1.5,5,2.232,7.5a.526.526,0,0,0,.6.455q2.244-.007,4.487-.008Q-2001.818,25.1-1998.522,25.119Z" transform="translate(2028.498 0.5)" fill="#26684d" stroke="#26684d " stroke-miterlimit="10" stroke-width="1"/>
</svg>
