<svg xmlns="http://www.w3.org/2000/svg" width="70" height="70" viewBox="0 0 70 70">
  <path id="stock" d="M-1992.991,52.459a17.565,17.565,0,0,1,17.381-17.5A17.527,17.527,0,0,1-1958,52.467,17.519,17.519,0,0,1-1975.332,70h-.123A17.517,17.517,0,0,1-1992.991,52.459Zm17.432-13.963a14.005,14.005,0,0,0-13.941,14.1,14.017,14.017,0,0,0,14.163,13.885,14.006,14.006,0,0,0,13.849-14.107A13.986,13.986,0,0,0-1975.4,38.5Zm-21.335,30.757c-9.9-4.495-19.852-8.884-29.794-13.29A1.987,1.987,0,0,1-2028,53.929q.019-18.961,0-37.922a1.992,1.992,0,0,1,1.316-2.032q15.436-6.842,30.856-13.722a2.483,2.483,0,0,1,2.188,0q15.383,6.86,30.782,13.684a2.059,2.059,0,0,1,1.384,2.083c-.021,5.636-.008,11.273-.012,16.909a1.8,1.8,0,0,1-1.364,1.974,1.731,1.731,0,0,1-2.117-1.858c-.015-3.529-.006-7.059-.006-10.588,0-1.067-.048-2.137.016-3.2.05-.834-.215-.782-.837-.5-5.22,2.342-10.452,4.656-15.68,6.981-3.983,1.771-7.973,3.527-11.941,5.33a2.944,2.944,0,0,1-2.642,0q-13.8-6.187-27.638-12.3c-.241-.107-.489-.2-.805-.327v.821q0,16.539-.014,33.079a.99.99,0,0,0,.692,1.077q14.169,6.268,28.315,12.589a1.444,1.444,0,0,0,1.434-.029,1.8,1.8,0,0,1,2.661.633c.454.953,0,1.811-1.055,2.491a4.01,4.01,0,0,1-2.223.715A5.335,5.335,0,0,1-1996.893,69.253Zm16.24-58.744q-10.587,4.74-21.19,9.443c-1.708.761-3.418,1.519-5.267,2.34,4.016,1.79,7.85,3.491,11.675,5.214a1.524,1.524,0,0,0,1.378.008q12.907-5.765,25.827-11.5c.176-.078.439-.074.51-.38-3.829-1.707-7.659-3.4-11.476-5.129a1.711,1.711,0,0,0-.715-.171A1.8,1.8,0,0,0-1980.654,10.509Zm-14.873-6.564q-10.289,4.609-20.6,9.17c-1.878.835-3.753,1.679-5.777,2.585.359.164.569.262.78.356,2.961,1.318,5.929,2.62,8.875,3.968a1.73,1.73,0,0,0,1.6.018q9.575-4.3,19.174-8.54l7.241-3.222c-3.328-1.48-6.518-2.883-9.691-4.325a1.941,1.941,0,0,0-.813-.2A1.9,1.9,0,0,0-1995.526,3.945Zm17.013,54.987c-1.45-1.411-2.867-2.857-4.3-4.29a1.713,1.713,0,0,1-.551-1.322,1.621,1.621,0,0,1,1.009-1.552,1.644,1.644,0,0,1,1.9.3c.929.887,1.849,1.787,2.731,2.721.369.391.574.394.956,0q3.393-3.453,6.839-6.854c1.05-1.04,2.442-.885,3,.306a1.64,1.64,0,0,1-.334,1.968q-4.361,4.4-8.761,8.76a1.711,1.711,0,0,1-1.2.542A1.86,1.86,0,0,1-1978.513,58.932Z" transform="translate(2028)" fill="#26684d"/>
</svg>
