<svg xmlns="http://www.w3.org/2000/svg" width="70" height="70" viewBox="0 0 70 70">
  <path id="tagging" d="M140.5,179.222v-2.187a8.69,8.69,0,0,0-1.913-3.3q-12.92-12.875-25.8-25.789a6.3,6.3,0,0,0-4.7-1.951c-3.552.025-7.1-.015-10.657.027-.64.007-.8-.2-.942-.776a10.021,10.021,0,0,0-7.684-7.74,10.406,10.406,0,0,0-4.274-.064,10.179,10.179,0,0,0-8.167,9.934c-.038,2.733-.018,5.468,0,8.2a1.313,1.313,0,0,1-.459,1.068c-1.168,1.086-2.308,2.2-3.462,3.3a6.032,6.032,0,0,0-1.938,4.568q.014,18.316.007,36.633a5.905,5.905,0,0,0,6.009,6.089q12.952.034,25.9,0a5.9,5.9,0,0,0,5.987-6.035c.012-1.8,0-3.6.007-5.4,0-.188-.094-.4.125-.612,1.466,1.468,2.92,2.939,4.391,4.392a5.8,5.8,0,0,0,8.48,0q8.64-8.613,17.257-17.25a6.1,6.1,0,0,0,1.6-2.655C140.316,179.521,140.275,179.3,140.5,179.222ZM88,160.6c0-2.848-.007-5.7,0-8.544a2.91,2.91,0,0,1,2.587-3.07,21.7,21.7,0,0,1,2.929-.082c.359-.017.325.23.324.46,0,.684-.029,1.369.01,2.05a.838.838,0,0,1-.565.923,4.36,4.36,0,0,0,3.431,7.993,4.15,4.15,0,0,0,2.9-3.7,4.223,4.223,0,0,0-2.373-4.319.722.722,0,0,1-.511-.8,14.448,14.448,0,0,0,0-1.981c-.038-.517.122-.641.635-.638,3.486.025,6.972.036,10.458,0a3.966,3.966,0,0,1,3.037,1.254q12.735,12.784,25.509,25.529c1.623,1.623,1.63,3.184.018,4.8q-8.409,8.41-16.819,16.819a3.046,3.046,0,0,1-4.82,0q-6.81-6.819-13.616-13.642-6.014-6.02-12.039-12.03A3.566,3.566,0,0,1,88,168.942C88.015,166.163,88,163.383,88,160.6ZM85.05,151.9v.923c0,5.285.022,10.571-.011,15.856a6.926,6.926,0,0,0,2.16,5.238c5.973,5.915,11.9,11.879,17.854,17.812a1.427,1.427,0,0,1,.459,1.13c-.021,2.688-.082,5.379.013,8.064a3.2,3.2,0,0,1-3.443,3.43c-2.255-.034-4.511-.008-6.766-.008q-9.261,0-18.522,0a3.089,3.089,0,0,1-3.383-3.4q0-18.111-.009-36.222a3.57,3.57,0,0,1,1.172-2.789c1.648-1.539,3.257-3.12,4.885-4.68C81.279,155.5,83.1,153.762,85.05,151.9ZM79.258,153.4c0-2.124-.016-4.081,0-6.038a7.285,7.285,0,0,1,8.67-7.043,7.1,7.1,0,0,1,5.614,5.09c.167.5.043.614-.462.6-1.023-.029-2.051.056-3.071,0a6.6,6.6,0,0,0-5.262,2.1C82.99,149.882,81.161,151.579,79.258,153.4Zm14.6,2.781a1.441,1.441,0,0,1,1.432-1.431,1.466,1.466,0,0,1,1.465,1.477,1.445,1.445,0,0,1-1.443,1.42A1.417,1.417,0,0,1,93.854,156.185Z" transform="translate(-70.5 -137.254)" fill="#26684d"/>
</svg>
