<svg xmlns="http://www.w3.org/2000/svg" width="163" height="50" viewBox="0 0 163 50">
  <g id="logo_2" data-name="logo 2" transform="translate(-1060 -153)">
    <path id="Subtraction_4" data-name="Subtraction 4" d="M25,50c-.153,0-.306-.007-.454-.02A6.292,6.292,0,0,1,20.561,48.1c-3.667-3.672-7.384-7.39-10.98-10.984L3,30.524c-.14-.14-.284-.281-.423-.417-.365-.358-.743-.728-1.088-1.12A6.071,6.071,0,0,1,.269,26.8,5.848,5.848,0,0,1,0,24.909,5.271,5.271,0,0,1,.3,23.1a6.151,6.151,0,0,1,1.514-2.46l7.467-7.464,7.467-7.464,1.167-1.164c.865-.862,1.759-1.753,2.632-2.638A6.323,6.323,0,0,1,23.68.141,5.832,5.832,0,0,1,24.965,0c.154,0,.311.006.467.017A6.074,6.074,0,0,1,29.375,1.84L33.132,5.6c4.921,4.92,10.01,10.008,15.029,15.022a6.131,6.131,0,0,1,1.706,3.123,5.858,5.858,0,0,1,.126,1.538,6.148,6.148,0,0,1-1.844,4.1L29.372,48.157a6.189,6.189,0,0,1-3.162,1.712A5.943,5.943,0,0,1,25,50Zm4.062-38.75a14.946,14.946,0,0,1-.388,8.164,18.034,18.034,0,0,1-3.535,6.01A24.468,24.468,0,0,1,19.15,30.4a2.857,2.857,0,0,0-.225,2.472,7.976,7.976,0,0,0,1.394,2.47A18.2,18.2,0,0,0,22.942,38a3.6,3.6,0,0,0,2.148.746,3.8,3.8,0,0,0,2.2-.746c5.312-6.278,7.658-12.186,6.972-17.562a14.1,14.1,0,0,0-2.89-6.871A12.5,12.5,0,0,0,29.059,11.25Zm-4.06,5-8.29,1.723a1.7,1.7,0,0,0-.9.888,3.52,3.52,0,0,0,.251,2.782c.01.021,1.027,2.107,2.827,2.107a2.678,2.678,0,0,0,.984-.2,10.9,10.9,0,0,0,2.292-1.8A9.973,9.973,0,0,0,25,16.25Z" transform="translate(1060 153)" fill="#415bd4"/>
    <text id="JEWELMAKER" transform="translate(1117 186)" fill="#242424" font-size="26" font-family="BebasNeueBold, Bebas Neue" letter-spacing="0.004em"><tspan x="0" y="0">JEWELMAKER</tspan></text>
  </g>
</svg>
