<svg id="allocation_distributor" data-name="allocation distributor" xmlns="http://www.w3.org/2000/svg" width="23" height="23" viewBox="0 0 23 23">
  <rect id="Rectangle_162" data-name="Rectangle 162" width="23" height="23" rx="4" fill="#556EE6"/>
  <path id="Union_35" data-name="Union 35" d="M5,12.468V7.214H3.819a1.5,1.5,0,1,1,.1-1.208H5V.532A.571.571,0,0,1,5.6,0a.572.572,0,0,1,.6.532V2.4h6.256l-.005-.006L11.168,1.009a.627.627,0,0,1,.023-.836.553.553,0,0,1,.795-.01l1.287,1.378c.09.094.22.246.355.4a1.629,1.629,0,0,1,0,2.072c-.134.158-.265.309-.358.408L11.986,5.8a.555.555,0,0,1-.561.182.587.587,0,0,1-.418-.433.624.624,0,0,1,.161-.594l1.258-1.349H6.208V7h.006L6.208,7V9.4h6.256l-.005-.006L11.168,8.009a.629.629,0,0,1,.023-.837.554.554,0,0,1,.795-.009L13.273,8.54c.09.1.22.247.355.4a1.629,1.629,0,0,1,0,2.072c-.134.158-.265.309-.358.408L11.986,12.8a.555.555,0,0,1-.561.182.589.589,0,0,1-.418-.433.624.624,0,0,1,.161-.594l1.258-1.349H6.208v1.861A.571.571,0,0,1,5.6,13,.571.571,0,0,1,5,12.468ZM2,6.5A.5.5,0,1,0,2.5,6,.5.5,0,0,0,2,6.5ZM6.208,6V6l.005,0Z" transform="translate(4 5)" fill="#ffff"/>
</svg>
