<svg xmlns="http://www.w3.org/2000/svg" width="50.001" height="50" viewBox="0 0 50.001 50">
  <path id="cross_red" data-name="cross red" d="M9405,18719a25,25,0,1,1,25,25A25,25,0,0,1,9405,18719Zm4.168,0a20.833,20.833,0,1,0,20.835-20.83A20.835,20.835,0,0,0,9409.166,18719Zm12.4,8.439a2.048,2.048,0,0,1,.066-2.885l5.56-5.555-5.556-5.557a1.991,1.991,0,1,1,2.813-2.812l5.556,5.557,5.551-5.557a1.991,1.991,0,1,1,2.813,2.813l-5.556,5.557,5.556,5.555a2.04,2.04,0,0,1,.07,2.885,1.921,1.921,0,0,1-1.374.559,2.139,2.139,0,0,1-1.51-.635l-5.551-5.551-5.556,5.551a2.137,2.137,0,0,1-1.511.637A1.928,1.928,0,0,1,9421.562,18727.436Z" transform="translate(-9404.998 -18693.998)" fill="#f15c5c"/>
</svg>
