<svg id="delete_blue" data-name="delete blue" xmlns="http://www.w3.org/2000/svg" width="23" height="23" viewBox="0 0 23 23">
  <rect id="Rectangle_162" data-name="Rectangle 162" width="23" height="23" rx="4" fill="#ebeefb"/>
  <path id="Union_37" data-name="Union 37" d="M14173.848,18406a2.734,2.734,0,0,1-2.75-2.709v-7.041h-.549a.542.542,0,1,1,0-1.084h1.7a2.747,2.747,0,0,1,2.7-2.166h1.1a2.747,2.747,0,0,1,2.7,2.166h1.7a.542.542,0,1,1,0,1.084h-.549v7.041a2.736,2.736,0,0,1-2.75,2.709Zm-1.649-2.709a1.635,1.635,0,0,0,1.649,1.625h3.3a1.637,1.637,0,0,0,1.649-1.625v-7.041h-6.6Zm1.193-8.125h4.209a1.656,1.656,0,0,0-1.554-1.086h-1.1A1.661,1.661,0,0,0,14173.392,18395.168Zm2.655,7.043v-3.252a.55.55,0,0,1,1.1,0v3.252a.55.55,0,0,1-1.1,0Zm-2.2,0v-3.252a.55.55,0,0,1,1.1,0v3.252a.55.55,0,0,1-1.1,0Z" transform="translate(-14163.998 -18388)" fill="#415bd4"/>
</svg>
