<svg id="delete_red" data-name="delete red" xmlns="http://www.w3.org/2000/svg" width="23" height="23" viewBox="0 0 23 23">
  <rect id="Rectangle_160" data-name="Rectangle 160" width="23" height="23" rx="4" fill="#feeeee"/>
  <path id="Union_15" data-name="Union 15" d="M13511.848,22989a2.734,2.734,0,0,1-2.749-2.707v-7.043h-.55a.541.541,0,1,1,0-1.082h1.706a2.746,2.746,0,0,1,2.693-2.168h1.1a2.738,2.738,0,0,1,2.693,2.168h1.707a.541.541,0,1,1,0,1.082h-.551v7.043a2.733,2.733,0,0,1-2.75,2.707Zm-1.647-2.707a1.633,1.633,0,0,0,1.647,1.623h3.3a1.637,1.637,0,0,0,1.652-1.623v-7.043h-6.6Zm1.192-8.125h4.212a1.65,1.65,0,0,0-1.557-1.082h-1.1A1.652,1.652,0,0,0,13511.393,22978.166Zm2.655,7.039v-3.25a.55.55,0,0,1,1.1,0v3.25a.55.55,0,0,1-1.1,0Zm-2.2,0v-3.25a.55.55,0,0,1,1.1,0v3.25a.55.55,0,0,1-1.1,0Z" transform="translate(-13502 -22971)" fill="#f15c5c" stroke="#f15c5c" stroke-width="0.2"/>
</svg>
