<svg id="download_green" data-name="download green" xmlns="http://www.w3.org/2000/svg" width="23" height="23" viewBox="0 0 23 23">
  <rect id="Rectangle_160" data-name="Rectangle 160" width="23" height="23" rx="4" fill="#41d46d"/>
  <path id="Union_14" data-name="Union 14" d="M-6082.625,11A1.375,1.375,0,0,1-6084,9.625V7.792a.458.458,0,0,1,.458-.458.458.458,0,0,1,.458.458V9.625a.458.458,0,0,0,.458.458h8.25a.458.458,0,0,0,.458-.458V7.792a.458.458,0,0,1,.458-.458.458.458,0,0,1,.458.458V9.625A1.375,1.375,0,0,1-6074.375,11Zm3.152-2.694-1.472-1.47a.458.458,0,0,1,0-.648.458.458,0,0,1,.648,0l1.334,1.333,0-7.062A.458.458,0,0,1-6078.5,0a.458.458,0,0,1,.458.458l0,7.071,1.341-1.342a.459.459,0,0,1,.616,0,.458.458,0,0,1,.033.647l-1.472,1.472h0a1.372,1.372,0,0,1-.972.4A1.371,1.371,0,0,1-6079.473,8.306Z" transform="translate(6090 6)" fill="#ffff" stroke="#41d46d" stroke-width="0.3"/>
</svg>
