<svg id="email" xmlns="http://www.w3.org/2000/svg" width="23" height="23" viewBox="0 0 23 23">
  <rect id="Rectangle_160" data-name="Rectangle 160" width="23" height="23" rx="4" fill="#ebeefb"/>
  <path id="envelope" d="M10.292,1H2.708A2.614,2.614,0,0,0,0,3.5v6A2.614,2.614,0,0,0,2.708,12h7.583A2.614,2.614,0,0,0,13,9.5v-6A2.614,2.614,0,0,0,10.292,1ZM2.708,2h7.583a1.629,1.629,0,0,1,1.506.943L7.649,6.773a1.726,1.726,0,0,1-2.3,0L1.2,2.943A1.629,1.629,0,0,1,2.708,2Zm7.583,9H2.708A1.566,1.566,0,0,1,1.083,9.5V4.25l3.5,3.23a2.875,2.875,0,0,0,3.831,0l3.5-3.23V9.5A1.566,1.566,0,0,1,10.292,11Z" transform="translate(5 5)" fill="#415bd4"/>
</svg>
