<svg xmlns="http://www.w3.org/2000/svg" width="23.999" height="18" viewBox="0 0 23.999 18">
  <path id="eye_show" data-name="eye show" d="M.179,9.821a1.969,1.969,0,0,1,0-1.64C1.057,6.261,4.5,0,12,0S22.943,6.261,23.821,8.181a1.971,1.971,0,0,1,0,1.638C22.943,11.739,19.5,18,12,18S1.057,11.739.179,9.821ZM2,9.011C2.75,10.634,5.693,16,12,16c6.292,0,9.236-5.343,10-7-.764-1.657-3.708-7-10-7C5.693,2,2.75,7.366,2,9.011ZM7,9a5,5,0,1,1,5,5A5,5,0,0,1,7,9ZM9,9a3,3,0,1,0,3-3A3,3,0,0,0,9,9Z" transform="translate(0)" fill="#242424"/>
</svg>
