<svg xmlns="http://www.w3.org/2000/svg" width="24" height="18" viewBox="0 0 24 18">
  <path id="eye_hide" data-name="eye hide" d="M20665.854,20017.859l-1.748,1.008a1,1,0,1,1-1-1.734l1.316-.76a16.2,16.2,0,0,1-2.246-3.555,1.959,1.959,0,0,1,0-1.635c.877-1.92,4.318-8.182,11.82-8.182a11.871,11.871,0,0,1,8.146,3.141l1.744-1.008a1,1,0,1,1,1,1.734l-1.318.762a16.3,16.3,0,0,1,2.248,3.553,1.959,1.959,0,0,1,0,1.635c-.879,1.922-4.32,8.184-11.822,8.184A11.872,11.872,0,0,1,20665.854,20017.859ZM20674,20019c6.293,0,9.236-5.348,10-7a14.2,14.2,0,0,0-2.187-3.352l-3.07,1.773a5,5,0,0,1-8.482,4.9l-2.564,1.479A9.9,9.9,0,0,0,20674,20019Zm-10-6.992a14.059,14.059,0,0,0,2.186,3.346l3.07-1.771a5,5,0,0,1,8.48-4.9l2.564-1.48a9.894,9.894,0,0,0-6.3-2.207C20667.693,20005,20664.75,20010.363,20664,20012.01Zm10,2.99a3,3,0,0,0,3-3,2.961,2.961,0,0,0-.051-.545l-4.9,2.828A2.991,2.991,0,0,0,20674,20015Zm-3-3a2.993,2.993,0,0,0,.051.551l4.9-2.83A3,3,0,0,0,20671,20012Z" transform="translate(-20662 -20003.002)" fill="#242424"/>
</svg>
