<svg xmlns="http://www.w3.org/2000/svg" width="17" height="17" viewBox="0 0 17 17">
  <path id="favicon" d="M8,16c-.049,0-.1,0-.145-.006a2.013,2.013,0,0,1-1.274-.6c-1.173-1.175-2.363-2.365-3.513-3.515L.959,9.768.823,9.634C.706,9.52.585,9.4.475,9.276a1.943,1.943,0,0,1-.389-.7A1.871,1.871,0,0,1,0,7.971,1.687,1.687,0,0,1,.1,7.393,1.968,1.968,0,0,1,.58,6.605L2.969,4.217,5.358,1.828l.373-.373c.277-.276.563-.561.842-.844a2.024,2.024,0,0,1,1-.566A1.866,1.866,0,0,1,7.989,0c.049,0,.1,0,.149.006A1.944,1.944,0,0,1,9.4.589l1.2,1.2L15.411,6.6a1.962,1.962,0,0,1,.546,1,1.874,1.874,0,0,1,.04.492,1.967,1.967,0,0,1-.59,1.313L9.4,15.41a1.981,1.981,0,0,1-1.012.548A1.9,1.9,0,0,1,8,16ZM9.3,3.6a4.783,4.783,0,0,1-.124,2.612A5.771,5.771,0,0,1,8.043,8.136,7.83,7.83,0,0,1,6.128,9.729a.914.914,0,0,0-.072.791,2.552,2.552,0,0,0,.446.79,5.823,5.823,0,0,0,.839.85,1.152,1.152,0,0,0,.687.239,1.215,1.215,0,0,0,.7-.239c1.7-2.009,2.451-3.9,2.231-5.62a4.513,4.513,0,0,0-.925-2.2A4,4,0,0,0,9.3,3.6ZM8,5.2l-2.653.552a.543.543,0,0,0-.288.284,1.126,1.126,0,0,0,.08.89c0,.007.329.674.9.674a.857.857,0,0,0,.315-.063,3.487,3.487,0,0,0,.733-.577A3.191,3.191,0,0,0,8,5.2Z" transform="translate(0.5 0.5)" fill="#415bd4" stroke="rgba(0,0,0,0)" stroke-miterlimit="10" stroke-width="1"/>
</svg>
