<svg id="home" xmlns="http://www.w3.org/2000/svg" width="24" height="24.002" viewBox="0 0 24 24.002">
  <path id="Union_23" data-name="Union 23" d="M10,24H5a5.006,5.006,0,0,1-5-5V9.729A5,5,0,0,1,2.2,5.585L9.2.862a4.982,4.982,0,0,1,5.6,0l7,4.723A5,5,0,0,1,24,9.729V19a5.006,5.006,0,0,1-5,5Zm9-2a3,3,0,0,0,3-3V9.729a3,3,0,0,0-1.321-2.487l-7-4.722a2.988,2.988,0,0,0-3.356,0l-7,4.722A3,3,0,0,0,2,9.729V19a3,3,0,0,0,3,3H8V18a4,4,0,0,1,8,0v4Zm-5,0V18a2,2,0,0,0-4,0v4Z" transform="translate(0 -0.001)" fill="#556ee6"/>
</svg>
