<svg xmlns="http://www.w3.org/2000/svg" width="19" height="19" viewBox="0 0 19 19">
  <path id="image_upload" data-name="image upload" d="M16.625,9.5H14.25a1.585,1.585,0,0,0-1.583,1.583,1.585,1.585,0,0,1-1.583,1.583H7.917a1.585,1.585,0,0,1-1.583-1.583A1.585,1.585,0,0,0,4.75,9.5H2.375A2.378,2.378,0,0,0,0,11.875v3.167A3.963,3.963,0,0,0,3.958,19H15.042A3.963,3.963,0,0,0,19,15.042V11.875A2.378,2.378,0,0,0,16.625,9.5Zm.792,5.542a2.378,2.378,0,0,1-2.375,2.375H3.958a2.378,2.378,0,0,1-2.375-2.375V11.875a.792.792,0,0,1,.792-.792l2.375,0v0A3.17,3.17,0,0,0,7.917,14.25h3.167a3.17,3.17,0,0,0,3.167-3.167h2.375a.792.792,0,0,1,.792.792ZM5.774,4.19a.791.791,0,0,1,0-1.119L8.381.464A1.576,1.576,0,0,1,9.489,0L9.5,0l.011,0a1.575,1.575,0,0,1,1.108.462l2.607,2.607A.792.792,0,1,1,12.107,4.19L10.292,2.375V7.917a.792.792,0,1,1-1.583,0V2.375L6.893,4.19a.791.791,0,0,1-1.119,0Z" fill="#242424"/>
</svg>
