<svg id="link" xmlns="http://www.w3.org/2000/svg" width="23" height="23" viewBox="0 0 23 23">
  <rect id="Rectangle_161" data-name="Rectangle 161" width="23" height="23" rx="4" fill="#ebeefb"/>
  <path id="link-alt" d="M4.246,8.761A3.51,3.51,0,0,1,3.9,8.355a.542.542,0,0,1,.876-.638,2.256,2.256,0,0,0,.237.277,2.3,2.3,0,0,0,3.256,0l2.98-2.98A2.3,2.3,0,0,0,7.99,1.758l-.573.573a.542.542,0,0,1-.766-.766L7.224.992a3.386,3.386,0,1,1,4.788,4.788L9.033,8.76a3.385,3.385,0,0,1-4.787,0ZM3.389,13a3.361,3.361,0,0,0,2.394-.992l.573-.573a.542.542,0,0,0-.766-.766l-.574.573A2.3,2.3,0,1,1,1.76,7.989l2.98-2.98A2.3,2.3,0,0,1,8,5.009a2.4,2.4,0,0,1,.236.276.542.542,0,0,0,.877-.637,3.386,3.386,0,0,0-5.135-.405L.995,7.223A3.386,3.386,0,0,0,3.389,13Z" transform="translate(4.997 4.998)" fill="#415bd4"/>
</svg>
