<svg xmlns="http://www.w3.org/2000/svg" width="22" height="24.003" viewBox="0 0 22 24.003">
  <path id="notification" d="M22.8,13.662,20.879,6.826A9.453,9.453,0,0,0,2.594,7.3L1.106,13.915A4.957,4.957,0,0,0,2.1,18.129,5.079,5.079,0,0,0,6.043,20H7.17a5.069,5.069,0,0,0,9.911,0h.848a5.077,5.077,0,0,0,4.026-1.974,4.955,4.955,0,0,0,.846-4.364ZM12.125,22a3.032,3.032,0,0,1-2.848-2h5.7a3.032,3.032,0,0,1-2.848,2Zm8.218-5.185A3.023,3.023,0,0,1,17.928,18H6.043a3.047,3.047,0,0,1-2.366-1.123,2.975,2.975,0,0,1-.6-2.528L4.568,7.733A7.425,7.425,0,0,1,18.93,7.361L20.851,14.2a2.95,2.95,0,0,1-.508,2.618Z" transform="translate(-0.986 -0.002)" fill="#74788d"/>
</svg>
