<svg id="refresh" xmlns="http://www.w3.org/2000/svg" width="23" height="23" viewBox="0 0 23 23">
  <path id="Path_391" data-name="Path 391" d="M3.833,0H19.167A3.833,3.833,0,0,1,23,3.833V19.167A3.833,3.833,0,0,1,19.167,23H3.833A3.833,3.833,0,0,1,0,19.167V3.833A3.833,3.833,0,0,1,3.833,0Z" fill="#ebeefb"/>
  <path id="Union_34" data-name="Union 34" d="M19593.818,22985.59v.951a.459.459,0,1,1-.918,0v-1.9a.85.85,0,0,1,.855-.854h1.9a.46.46,0,1,1,0,.92h-1.434a4.6,4.6,0,0,0,7.857-2.809.452.452,0,0,1,.457-.4h0a.46.46,0,0,1,.344.15.466.466,0,0,1,.119.354,5.5,5.5,0,0,1-3.477,4.617,5.538,5.538,0,0,1-5.705-1.031Zm-1.354-4.09a.462.462,0,0,1-.461-.506,5.514,5.514,0,0,1,9.178-3.584v-.951a.462.462,0,0,1,.924,0v1.9a.856.856,0,0,1-.857.854h-1.908a.46.46,0,0,1,0-.92h1.438a4.6,4.6,0,0,0-7.857,2.807.452.452,0,0,1-.449.4Z" transform="translate(-19586 -22970)" fill="#415bd4" stroke="#415bd4" stroke-width="0.2"/>
</svg>
