<svg xmlns="http://www.w3.org/2000/svg" width="49.997" height="49.996" viewBox="0 0 49.997 49.996">
  <path id="right_green" data-name="right green" d="M-2765,22863a25,25,0,0,1,25-25,25.017,25.017,0,0,1,25,25,25,25,0,0,1-25,25A25,25,0,0,1-2765,22863Zm4.17,0a20.83,20.83,0,0,0,20.828,20.834,20.861,20.861,0,0,0,20.834-20.834,20.835,20.835,0,0,0-20.834-20.834A20.83,20.83,0,0,0-2760.831,22863Zm19.413,10.039a2,2,0,0,1-1.756-.555l-8.484-8.484a2,2,0,0,1,0-2.832,2,2,0,0,1,2.826,0l7.416,7.416,13.068-13.068a2,2,0,0,1,2.832,0,2,2,0,0,1,0,2.826l-14.142,14.143a2,2,0,0,1-1.416.586A2.029,2.029,0,0,1-2741.417,22873.039Z" transform="translate(2765.001 -22838.002)" fill="#41d46d"/>
</svg>
