<svg id="save" xmlns="http://www.w3.org/2000/svg" width="23" height="23" viewBox="0 0 23 23">
  <rect id="Rectangle_140" data-name="Rectangle 140" width="23" height="23" rx="5" fill="#ebeefb"/>
  <path id="bookmark" d="M10.568,13a1.349,1.349,0,0,1-.993-.452L6.5,9.235,3.425,12.548a1.323,1.323,0,0,1-1.547.33A1.522,1.522,0,0,1,1,11.457V2.708A2.61,2.61,0,0,1,3.5,0h6A2.61,2.61,0,0,1,12,2.708v8.749a1.523,1.523,0,0,1-.875,1.421,1.339,1.339,0,0,1-.556.12ZM3.5,1.083A1.566,1.566,0,0,0,2,2.708v8.749a.459.459,0,0,0,.259.422.4.4,0,0,0,.459-.1h0L6.15,8.088a.473.473,0,0,1,.7,0l3.427,3.693a.4.4,0,0,0,.459.1A.459.459,0,0,0,11,11.456V2.708A1.566,1.566,0,0,0,9.5,1.083Z" transform="translate(5 5)" fill="#415bd4"/>
</svg>
