<svg xmlns="http://www.w3.org/2000/svg" xmlns:xlink="http://www.w3.org/1999/xlink" width="30" height="30" viewBox="0 0 30 30">
  <defs>
    <clipPath id="clip-path">
      <path id="Union_41" data-name="Union 41" d="M16,23A7,7,0,1,0,2,23a1,1,0,1,1-2,0,9,9,0,0,1,18,0,1,1,0,1,1-2,0ZM3,6a6,6,0,1,1,6,6A6,6,0,0,1,3,6ZM5,6A4,4,0,1,0,9,2,4,4,0,0,0,5,6Z" transform="translate(11482 -17984)" fill="#74788d"/>
    </clipPath>
  </defs>
  <g id="user_profile" data-name="user profile" transform="translate(-11476 17990)">
    <g id="Ellipse_92" data-name="Ellipse 92" transform="translate(11476 -17990)" fill="none" stroke="#74788d" stroke-width="2">
      <circle cx="15" cy="15" r="15" stroke="none"/>
      <circle cx="15" cy="15" r="14" fill="none"/>
    </g>
    <g id="Mask_Group_4" data-name="Mask Group 4" clip-path="url(#clip-path)">
      <circle id="Ellipse_2" data-name="Ellipse 2" cx="15" cy="15" r="15" transform="translate(11476 -17990)" fill="#74788d"/>
    </g>
  </g>
</svg>
