<svg id="view" xmlns="http://www.w3.org/2000/svg" width="23" height="23" viewBox="0 0 23 23">
  <rect id="Rectangle_161" data-name="Rectangle 161" width="23" height="23" rx="4" fill="#ebeefb"/>
  <path id="Union_3" data-name="Union 3" d="M.112,6a1.179,1.179,0,0,1,0-1C.66,3.826,2.813,0,7.5,0s6.84,3.826,7.389,5a1.18,1.18,0,0,1,0,1c-.549,1.173-2.7,5-7.389,5S.66,7.174.112,6ZM1.25,5.507C1.719,6.5,3.558,9.778,7.5,9.778S13.273,6.513,13.75,5.5c-.478-1.013-2.318-4.278-6.25-4.278S1.719,4.5,1.25,5.507ZM4.375,5.5a3.126,3.126,0,0,1,6.25,0,3.126,3.126,0,0,1-6.25,0Zm1.25,0A1.876,1.876,0,1,0,7.5,3.667,1.854,1.854,0,0,0,5.625,5.5Z" transform="translate(4 6)" fill="#415bd4"/>
</svg>
