<svg id="view_pdf" data-name="view pdf" xmlns="http://www.w3.org/2000/svg" width="23" height="23" viewBox="0 0 23 23">
  <rect id="Rectangle_160" data-name="Rectangle 160" width="23" height="23" rx="4" fill="#556EE6"/>
  <path id="add-document" d="M9.7,8.667a.546.546,0,0,1-.55.542H8.05v1.083a.55.55,0,0,1-1.1,0V9.208H5.85a.542.542,0,1,1,0-1.083h1.1V7.042a.55.55,0,0,1,1.1,0V8.125h1.1A.546.546,0,0,1,9.7,8.667ZM13,5.679v4.612A2.733,2.733,0,0,1,10.25,13H4.75A2.733,2.733,0,0,1,2,10.292V2.708A2.733,2.733,0,0,1,4.75,0H7.233A3.857,3.857,0,0,1,9.956,1.11L11.872,3A3.736,3.736,0,0,1,13,5.679Zm-3.822-3.8A2.753,2.753,0,0,0,8.6,1.454V3.792a.546.546,0,0,0,.55.542h2.374a2.7,2.7,0,0,0-.43-.569Zm2.722,3.8c0-.089-.018-.175-.026-.263H9.15A1.638,1.638,0,0,1,7.5,3.792V1.109c-.089-.008-.177-.025-.267-.025H4.75A1.638,1.638,0,0,0,3.1,2.708v7.583a1.638,1.638,0,0,0,1.65,1.625h5.5a1.638,1.638,0,0,0,1.65-1.625Z" transform="translate(4 5)" fill="#ffff"/>
</svg>
