<svg xmlns="http://www.w3.org/2000/svg" xmlns:xlink="http://www.w3.org/1999/xlink" width="369.999" height="294" viewBox="0 0 369.999 294">
  <defs>
    <clipPath id="clip-path">
      <path id="Path_412" data-name="Path 412" d="M436.672,1474.33h44l-5.9,11.291a18.163,18.163,0,0,1-32.191,0l-5.9-11.293Z" transform="translate(-436.672 -1474.33)" fill="none"/>
    </clipPath>
    <clipPath id="clip-path-2">
      <path id="Path_432" data-name="Path 432" d="M1481.257,1469.854c2.753-5.636,14.783,11.562,10.185,15.836-6.342,5.9-42.429,20.405-48.244,19.54s7.016-18.841,13.358-24.738S1473.576,1485.575,1481.257,1469.854Z" transform="translate(-1441.723 -1468.731)" fill="none"/>
    </clipPath>
    <clipPath id="clip-path-3">
      <path id="Path_435" data-name="Path 435" d="M943.84,1335.957c5.426-3.148,5.84,17.836-.359,18.825-8.552,1.365-46.6-6.681-50.953-10.637s16.32-11.742,24.872-13.108S928.705,1344.737,943.84,1335.957Z" transform="translate(-891.934 -1330.949)" fill="none"/>
    </clipPath>
    <clipPath id="clip-path-4">
      <path id="Path_439" data-name="Path 439" d="M1050.667,969.138c-24.357,11.661-46.983-3.241-56.213,13.115-9.071,16.076,23.054,50.572-3.555,55.667-12.714,2.434-34.248-8.495-36.6-21.832s6.433-46.192,22.492-58.19,52.627-17.447,73.872-13.794C1072.886,947.923,1074.13,957.907,1050.667,969.138Z" transform="translate(-953.926 -942.982)" fill="none"/>
    </clipPath>
    <clipPath id="clip-path-5">
      <path id="Path_443" data-name="Path 443" d="M1389.785,928c-15.817,41.605,5.464,60.784,9.081,65.721,12.96,17.688,34.559,25.22,21.08,40.849-8.454,9.8-31.33,13.28-42.39,4.367-11.121-8.961-21.844-37.967-24.338-58.133s3.622-42.093,9.374-62.867c4.4-15.9,36.436-14.251,27.193,10.063Z" transform="translate(-1352.646 -907.571)" fill="none"/>
    </clipPath>
    <clipPath id="clip-path-6">
      <path id="Path_447" data-name="Path 447" d="M1210.2,719.241c-10.3-2.419-20.08,24.42-30.413,24.841s-26.964-17.491-31.583-22.317a19.76,19.76,0,0,0-6.391-4.443c-3.642-1.117-9.688-1.466-10.106.5-.277,1.3,6,.323,5.665,2.261-.86,4.924,1.634,6.178,6.359,6.487,4.9,10.409,26.107,34.08,38.064,35.586s30.682-19.361,33.67-26.547C1218.714,727.8,1215.778,720.55,1210.2,719.241Z" transform="translate(-1131.696 -716.415)" fill="none"/>
    </clipPath>
    <clipPath id="clip-path-7">
      <path id="Path_450" data-name="Path 450" d="M1395.392,772.878c1.516,8.688-33.271,13.778-39.474,5.534-9.659-12.834,18.792-19.582,20.416-49.584.581-10.718,29.8-9.863,22.67,2.293C1395,737.951,1391.038,747.94,1395.392,772.878Z" transform="translate(-1353.922 -721.355)" fill="none"/>
    </clipPath>
    <clipPath id="clip-path-8">
      <path id="Path_453" data-name="Path 453" d="M1094.194,705.728c5.493,4.7,13.1,4.829,16.986.285l0,0c3.888-4.543,2.587-12.037-2.907-16.738l-103.34-88.434a21.63,21.63,0,0,0-7.153-4.062L979.6,590.642a2.925,2.925,0,0,0-3.458,4.25l9.694,16.542a21.62,21.62,0,0,0,4.6,5.5Z" transform="translate(-975.736 -590.488)" fill="none"/>
    </clipPath>
    <clipPath id="clip-path-9">
      <path id="Path_457" data-name="Path 457" d="M1351.844,731.813c-8.526,6.262,5.536,31.127-.851,39.259s-31.357,6.856-37.479,9.531c-.971.424-4.015-5.16-5.379-5.739-1.994-.849-1.94,1.894-.625,4.488.6,1.185-5.205-5.093-5.525-3.865-.769,2.943,3.456,10.442,12.276,11.635,17.347,2.343,42.87,2.27,51.779-5.846s5.195-35.906,1.67-42.844C1363.882,730.891,1356.464,728.418,1351.844,731.813Z" transform="translate(-1301.896 -730.32)" fill="none"/>
    </clipPath>
  </defs>
  <g id="Vector_2" data-name="Vector 2" transform="translate(20542.002 8870)">
    <path id="Path_404" data-name="Path 404" d="M594.517,1526.27c73.979-.685,88.17,38.2-47.8,29.922-23.593-1.436-61.017-12.9-91.9-15.128-33.35-2.41-98.29,1.075-108.209.673-39.144-1.595-62.6-16.368,50.1-15.466C438.1,1526.6,557.367,1526.612,594.517,1526.27Z" transform="translate(-20821.861 -10133.349)" fill="#2a42b1" fill-rule="evenodd"/>
    <ellipse id="Ellipse_77" data-name="Ellipse 77" cx="23.239" cy="3.375" rx="23.239" ry="3.375" transform="translate(-20258.977 -8588.511)" fill="rgba(0,0,0,0.2)"/>
    <ellipse id="Ellipse_78" data-name="Ellipse 78" cx="17.929" cy="2.537" rx="17.929" ry="2.537" transform="translate(-20376.123 -8605.297)" fill="rgba(0,0,0,0.2)"/>
    <path id="Path_405" data-name="Path 405" d="M511.177,533.522c22.728,68.58-31.492,168.6-88.94,117.071-30.073-26.974-84.481-61.136-123.152-38.5-152.991,89.555-163.4-64.049-116.308-55.347,127.455,23.551,118.553-36.179,148.908-82.17,40.483-61.335,148.622-34.21,179.492,58.947Z" transform="translate(-20700 -9287.625)" fill="#374eb9" fill-rule="evenodd"/>
    <ellipse id="Ellipse_79" data-name="Ellipse 79" cx="17.458" cy="2.716" rx="17.458" ry="2.716" transform="translate(-20486.508 -8600.226)" fill="rgba(0,0,0,0.2)"/>
    <path id="Path_406" data-name="Path 406" d="M505.987,1185.509a20.838,20.838,0,0,1-1.758-2.386,26.249,26.249,0,0,1-3.594-8.735,43.748,43.748,0,0,1-.834-18.747c.087.527.108,1.035.172,1.591a3.083,3.083,0,0,0,.789,1.793c.286.425.372,1.06.724,1.559a1.381,1.381,0,0,0,2.228-.214,2.212,2.212,0,0,0,2.427-.584,5.877,5.877,0,0,0,1.109-2.32c.044-.22.089-.439.112-.629a1.131,1.131,0,0,0,1.565.072,4,4,0,0,0,.958-3.619,6.559,6.559,0,0,0-.393-1.46l.044,0c.971-.373.777-1.936.382-2.7a7.579,7.579,0,0,0-1.142-1.862.834.834,0,0,0,.068-.571,2.8,2.8,0,0,0-1.913-2.289c-1.057-.422-2.491-.348-3.2-.916a2.361,2.361,0,0,1-.615-1.007c-.044-.049-.044-.1-.066-.181a6.3,6.3,0,0,0,.244-.7,51.962,51.962,0,0,1,5.01-10.2,7.887,7.887,0,0,1,.085,1.118c-.025,1-.16,2.136.5,2.817a1.551,1.551,0,0,0,2.714-.481c.355-.736.379-1.624.778-2.365a4.492,4.492,0,0,1,.4-.634,5.6,5.6,0,0,1-.25,2.791c-.623,2.321-2.414,3.883-3.125,6.268-.2,1.015.415,1.432,1.033,1.311a8.284,8.284,0,0,0-.138,2.323c.37,1.973,1.845,2.913,3.434,2.366a6.327,6.327,0,0,0,.326,1.977c.482,1.343,1.758,2.332,3.039,1.818a3.187,3.187,0,0,0,1.238-1.046c.724,1.612.938,4.111,2.789,4.341a1.68,1.68,0,0,0,1.655-.581,4.557,4.557,0,0,0,1.013.374,2.685,2.685,0,0,0,1.921-.771c1.923-1.737,1.776-4.807,1.054-7.01,0-.054-.022-.078-.022-.132.066-.034.132-.014.2-.048,2.385-1.17.739-4.293-.538-5.389l-.154-.171c1.415-1.28.3-3.225-1.114-4.253-.264-.186-.484-.431-.749-.617a2.249,2.249,0,0,0,.665-1.2,2.188,2.188,0,0,0-1.251-2.36,8.683,8.683,0,0,0-1.409-.492,1.043,1.043,0,0,0-.063-1.147,2.384,2.384,0,0,0-2.224-.752c-.286.058-.551.14-.86.227-.264-.4-1.123-.388-1.587-.311-1.235.133-2.185.585-3.154.153a4.061,4.061,0,0,1-1.67-2.342,9.983,9.983,0,0,1-.372-1.275c2.013-2.5,4.092-4.816,6.259-7.089a8.267,8.267,0,0,1,.237,2.255c-.026,1.586-.519,4.645,1.4,4.464a1.835,1.835,0,0,0,.817-.437,5.893,5.893,0,0,0,1.1,2.35,2.087,2.087,0,0,0,3.706-.508,4.15,4.15,0,0,0-.587-3.344c-.505-.777-1.716-1.747-1.207-2.312.088-.117.308-.087.684-.047a3.486,3.486,0,0,0,.573.1,10.532,10.532,0,0,0,1.535,3.322,54.066,54.066,0,0,0,4.507,5.121c.9.949,2.177,2.475,3.525,1.283a1.644,1.644,0,0,0,.466-.936,4.334,4.334,0,0,0,2.422,1.026c1.3.047,1.79-1.669,1.706-3a.7.7,0,0,1,0-.215,1.749,1.749,0,0,0,2.515-.486c1.263-2.256.677-6.245-1.194-7.411-.132-.093-.286-.157-.418-.25a1.4,1.4,0,0,0,.244-.59,2.535,2.535,0,0,0-1.272-2.653,3.976,3.976,0,0,0-1.609-.229.845.845,0,0,0-.264-.508,3.851,3.851,0,0,0-2.026-.747,3.472,3.472,0,0,0,2.5-1.37,3.1,3.1,0,0,0,.4-1.009,5.137,5.137,0,0,0,3-1.022,2.69,2.69,0,0,0,1.044-3.038,3.761,3.761,0,0,0,1.48-.884,3.113,3.113,0,0,0-.45-5.023,4.153,4.153,0,0,0-1.1-.525c1.5-1.021,3.2-2.2,3.54-4.461a2.863,2.863,0,0,0-.743-2.764c-1.564-1.145-3.593-.712-5.425-.058a3.47,3.47,0,0,0,.379-1.409,2.273,2.273,0,0,0-2.574-2.378,4.347,4.347,0,0,0-1.921.825l-.022.029c0-1.718-1.275-1.526-2.579-.392a11.692,11.692,0,0,0-3.053,3.926c-.373-.684-1.079-.554-1.676.127l-.11.146c.333-.975.314-1.912-.744-2.334a1.171,1.171,0,0,0-.418-.088,6.243,6.243,0,0,0,.759-3.731c-.306-1.255-1.63-1.219-2.469-.538a.126.126,0,0,1-.088.063,4.883,4.883,0,0,0-.017-2.118,1.906,1.906,0,0,0-3.24-.75,2.662,2.662,0,0,0-.332.385c-1.74-.59-3.18,1.9-3.56,3.846-.418-.465-.9-.734-1.5-.374-1.3.812-1.771,2.714-1.885,4.309a6.434,6.434,0,0,0,0,1.127,1.423,1.423,0,0,0-.951.988c-.669,2.809,1.133,5.405,1.988,7.432a13.6,13.6,0,0,1,.591,1.788,2.933,2.933,0,0,0-1.74-.59,1.39,1.39,0,0,0-1.348,1.139,1.953,1.953,0,0,0,.24,1.128,5.763,5.763,0,0,0,.746,1.368c.4.494.769,1.017,1.209,1.506a.99.99,0,0,0-.42.233c-.686.8.017,1.957.39,2.641a4.582,4.582,0,0,0,.815.9c-.091.868,1.317,2.38,1.735,2.737a6.531,6.531,0,0,0,.7.568c-2.122,2.161-4.157,4.421-6.126,6.753a3.45,3.45,0,0,1-.376.443,3.705,3.705,0,0,0-.573-.26,3.259,3.259,0,0,1-.793-.451,2.625,2.625,0,0,1-1.05-3.321c.266-.619,1.04-1.427,1.373-2.241a1.655,1.655,0,0,0-.173-1.377c.422-.931,1.438-1.739,1.749-2.792a1.122,1.122,0,0,0-.372-1.113c.154-.312.332-.653.488-.965.709-1.257.979-3.38-.675-3.174-.088.009-.154.044-.242.053.292-2.151,1.38-5.14-1-5.741a1.736,1.736,0,0,0-.529,0,6.428,6.428,0,0,0,.449-3.269c-.282-1.767-2.135-1.621-3.239-.8a3.734,3.734,0,0,0-.663.608c-.261-1.582-.852-3.047-2.286-2.973-2.691.345-3.934,3.591-4.228,6.494-.022.137-.022.244-.044.381a.522.522,0,0,0-.22-.03,2.521,2.521,0,0,0-2.076,1.3c-1.151,1.842-.761,4.268-.17,6.109.022.078.066.127.088.205a2.263,2.263,0,0,0-.822,2.209,3.411,3.411,0,0,0,.658,1.432,2.71,2.71,0,0,0,.947.783,1.27,1.27,0,0,0,.394,1.084c.595.661,1.564,1.092,2.091,1.625a9.774,9.774,0,0,1,.813,1.227,2.955,2.955,0,0,0-1.155,3.345,5.1,5.1,0,0,0,5.239,3.781c1.1-.119,2.208-1.044,3.046-1.188a1.058,1.058,0,0,1,.947.568c.132.2.2.381.286.533a46.445,46.445,0,0,0-5.446,8.263c-.532,1.023-1.02,2.1-1.508,3.168a2.122,2.122,0,0,1-2.822-.232c-.791-.934-.5-2.495-.651-3.955a3.986,3.986,0,0,0-.723-1.828,1.439,1.439,0,0,0-1.565-.286,2.2,2.2,0,0,0-.7-1.158,1.306,1.306,0,0,0-2.074.439,2.5,2.5,0,0,0-1.74-.966A1.883,1.883,0,0,0,491.18,1132a2.54,2.54,0,0,0-1.545.435c-1.436.987-2.148,3.533-1.093,4.975l.044.049c-.906.822-1.373,2.349.081,2.621a3.566,3.566,0,0,0,1.743-.215,4.131,4.131,0,0,0-.313,1.806,1.391,1.391,0,0,0,1.011,1.34,2.748,2.748,0,0,0,1.3-.167,1.756,1.756,0,0,0,.264-.136c0,1.718,1.45,2.258,3.127,1.218a2.984,2.984,0,0,0,.42-.34,2.415,2.415,0,0,0,1.9-.312,3.44,3.44,0,0,0,.952-1.31c.554-1.16.492-2.737,1.484-2.6a2.6,2.6,0,0,1,1.277.345c.286.1.551.45.859.31-.177.449-.377.926-.533,1.4a.333.333,0,0,0-.132.121c-.379,1.463-1.725,1.957-2.742,3.087a6.556,6.556,0,0,0-1.373,2.349,2.25,2.25,0,0,0-.11.414c-.752.833-1.571,2.021-1.132,2.994a1.708,1.708,0,0,0,.374.469,6.1,6.1,0,0,0-.16,2.191,4.825,4.825,0,0,0,.567,2.407c-.993.3-1.759-2.117-3.39-2.1a1.4,1.4,0,0,0-1.17.368c-1.475-.4-2.609,2.482-1.444,4.047a1.859,1.859,0,0,0,.991.564,1.181,1.181,0,0,0,.065.61c.418.573,1.145.413,1.742.107a1.267,1.267,0,0,0,1.741.322,7.447,7.447,0,0,0,1.283-1.641,1.493,1.493,0,0,1,.619-.551l.462-.131a44.679,44.679,0,0,0-.423,7.665,48.846,48.846,0,0,0,1.518,9.925,26.625,26.625,0,0,0,3.946,9.233c.527.749,1.1,1.491,1.67,2.18a.407.407,0,0,0,.484.162c.838.071.84-.358.444-.691Zm16.84-74.994a6.821,6.821,0,0,1,1.355-3.822,2.642,2.642,0,0,1,.354-.414c-.158,1.493-.228,2.976-.32,4.435-.046.595-.069,1.215-.115,1.81-.176.18-.376.336-.53.486a.258.258,0,0,1-.088-.151,5.274,5.274,0,0,1-.655-2.344Zm2.037,5.388a3.878,3.878,0,0,1-1.1-1.169,4.37,4.37,0,0,1-.264-.508c.066.02.176-.019.242,0,.374-.067.507-.082.9-.124a12.365,12.365,0,0,1,2.36-.067c1.235.081,3.13.628,5.025.96l-.4.043c-1.456.318-3.09,1.085-4.347,1.194A4.746,4.746,0,0,1,524.864,1115.9Z" transform="translate(-20957.32 -9789.81)" fill="#50cd89"/>
    <path id="Path_407" data-name="Path 407" d="M299.141,1087.17a25.284,25.284,0,0,1-3.593-.122,31.85,31.85,0,0,1-11.016-3.153,53.068,53.068,0,0,1-18.466-13.312c.567.314,1.066.676,1.644,1.033a3.739,3.739,0,0,0,2.3.6c.62.048,1.289.444,2.028.484a1.675,1.675,0,0,0,1.473-2.281,2.685,2.685,0,0,0,1.27-2.749,7.12,7.12,0,0,0-1.374-2.8c-.176-.208-.35-.415-.514-.58.683-.175,1.311-.564,1.247-1.435-.032-1.529-1.4-2.887-2.723-3.634a7.953,7.953,0,0,0-1.685-.724l.029-.046c.376-1.205-1.257-2.2-2.28-2.393a9.2,9.2,0,0,0-2.631-.315,1.013,1.013,0,0,0-.492-.494,3.4,3.4,0,0,0-3.617.1c-1.2.688-2.205,2.108-3.276,2.351a2.868,2.868,0,0,1-1.421-.173.488.488,0,0,1-.222-.074,7.662,7.662,0,0,0-.479-.757,63.027,63.027,0,0,1-5.937-12.443,9.539,9.539,0,0,1,1.128.76c.929.772,1.913,1.76,3.057,1.644a1.882,1.882,0,0,0,1.584-2.944c-.433-.891-1.26-1.583-1.665-2.52a5.434,5.434,0,0,1-.3-.856,6.784,6.784,0,0,1,2.467,2.338c1.74,2.34,1.879,5.219,3.612,7.69.815.955,1.674.681,2.024,0a10.057,10.057,0,0,0,2.106,1.879c2.155,1.132,4.16.437,4.835-1.487a7.679,7.679,0,0,0,2.127,1.178c1.64.553,3.542.082,4.016-1.523a3.866,3.866,0,0,0-.064-1.965c2.079.525,4.618,2.2,6.229.612a2.037,2.037,0,0,0,.692-2.012,5.535,5.535,0,0,0,1.118-.683,3.251,3.251,0,0,0,.712-2.407c-.206-3.137-3.237-5.307-5.877-6.278-.051-.041-.091-.038-.142-.078.017-.088.086-.137.1-.225.681-3.149-3.529-3.933-5.532-3.544l-.279.018c-.154-2.309-2.847-2.707-4.885-2.141-.376.11-.774.137-1.15.248a2.727,2.727,0,0,0-.641-1.534,2.653,2.653,0,0,0-3.187-.586,10.538,10.538,0,0,0-1.529.972,1.266,1.266,0,0,0-1.139-.8,2.9,2.9,0,0,0-2.39,1.551c-.161.316-.282.63-.431.99-.58-.051-1.215.777-1.49,1.276-.8,1.276-1.087,2.519-2.228,3.116-1.043.5-2.219.184-3.485-.173a12.083,12.083,0,0,1-1.492-.606c-.863-3.8-1.5-7.517-2.037-11.29a10.022,10.022,0,0,1,2.324,1.471c1.49,1.218,4.03,3.989,5.3,2.026a2.223,2.223,0,0,0,.2-1.106,7.136,7.136,0,0,0,3.061.725c1.786.018,3.678-1.9,2.305-3.908a5.034,5.034,0,0,0-3.624-1.958c-1.12-.1-2.953.318-3.107-.591-.044-.172.15-.359.47-.686a4.185,4.185,0,0,0,.525-.471,12.783,12.783,0,0,0,4.316,1.039,65.6,65.6,0,0,0,8.264-.436c1.582-.144,3.993-.209,3.873-2.389a1.991,1.991,0,0,0-.54-1.147,5.255,5.255,0,0,0,2.8-1.533c1.024-1.2-.241-2.96-1.573-3.882a.84.84,0,0,1-.2-.162c1.043-.5,1.9-1.258,1.43-2.759-1.2-2.9-5.432-5.344-7.95-4.44-.188.055-.365.154-.553.21a1.7,1.7,0,0,0-.378-.676,3.075,3.075,0,0,0-3.482-.786,4.827,4.827,0,0,0-1.428,1.359,1.024,1.024,0,0,0-.683-.132A4.676,4.676,0,0,0,254.38,1006a4.212,4.212,0,0,0,.574-3.405,3.765,3.765,0,0,0-.661-1.14,6.231,6.231,0,0,0,1.286-3.625,3.263,3.263,0,0,0-2.1-3.279,4.556,4.556,0,0,0,.272-2.074,3.776,3.776,0,0,0-5.118-3.351,5.033,5.033,0,0,0-1.328.653c.159-2.2.319-4.7-1.581-6.725a3.473,3.473,0,0,0-3.189-1.373c-2.266.625-3.381,2.883-4.137,5.118a4.212,4.212,0,0,0-1.057-1.421,2.756,2.756,0,0,0-4.2.661,5.275,5.275,0,0,0-.661,2.448l.011.044c-1.631-1.3-2.411.066-2.314,2.158a14.187,14.187,0,0,0,1.438,5.859c-.932-.16-1.339.61-1.14,1.691l.056.215c-.677-1.051-1.584-1.737-2.781-1.049a1.421,1.421,0,0,0-.4.332,7.576,7.576,0,0,0-2.979-3.53c-1.424-.654-2.386.632-2.37,1.944a.152.152,0,0,1-.006.132,5.931,5.931,0,0,0-2.028-1.578,2.312,2.312,0,0,0-3.151,2.518,3.218,3.218,0,0,0,.117.605c-1.872,1.211-.585,4.456.981,6.282-.756.048-1.378.306-1.484,1.144-.208,1.85,1.25,3.727,2.682,5.037a7.773,7.773,0,0,0,1.071.851,1.727,1.727,0,0,0,.225,1.648c2.17,2.75,6,2.989,8.568,3.7a16.531,16.531,0,0,1,2.146.783,3.56,3.56,0,0,0-1.872,1.211,1.686,1.686,0,0,0,.069,2.139,2.367,2.367,0,0,0,1.254.621,6.974,6.974,0,0,0,1.864.32c.768,0,1.546.033,2.343-.017a1.2,1.2,0,0,0-.094.575c.244,1.253,1.875,1.456,2.807,1.616a5.565,5.565,0,0,0,1.473-.093c.758.74,3.256.538,3.91.409a7.927,7.927,0,0,0,1.07-.242c.46,3.646,1.079,7.282,1.817,10.91a4.213,4.213,0,0,1,.139.691,4.486,4.486,0,0,0-.679.349,3.952,3.952,0,0,1-1.026.415,3.184,3.184,0,0,1-3.95-1.5c-.389-.719-.575-2.063-1.1-2.993a2.009,2.009,0,0,0-1.44-.871c-.569-1.1-.573-2.676-1.34-3.766a1.36,1.36,0,0,0-1.339-.484c-.18-.382-.371-.808-.551-1.189-.663-1.621-2.479-3.474-3.528-1.745-.057.091-.075.18-.132.271-1.828-1.9-3.852-5.181-6.216-3.369a2.129,2.129,0,0,0-.395.507,7.8,7.8,0,0,0-2.772-2.887c-1.894-1.061-3.149.812-3.2,2.478a4.532,4.532,0,0,0,.08,1.089c-1.7-.942-3.541-1.482-4.549-.062-1.7,2.819.457,6.446,3,8.91.113.124.215.205.328.329a.629.629,0,0,0-.194.187,3.055,3.055,0,0,0-.327,2.952c.886,2.481,3.489,3.935,5.685,4.759.091.038.17.033.261.071a2.747,2.747,0,0,0,1.483,2.444,4.139,4.139,0,0,0,1.857.451,3.287,3.287,0,0,0,1.457-.311,1.539,1.539,0,0,0,1.328.44c1.075-.068,2.215-.665,3.12-.766a11.848,11.848,0,0,1,1.779.15,3.585,3.585,0,0,0,2.312,3.616,6.182,6.182,0,0,0,7.539-2.14c.716-1.139.668-2.886,1.162-3.792a1.281,1.281,0,0,1,1.253-.473c.29.025.511.1.721.129a56.341,56.341,0,0,0,3.765,11.4c.574,1.277,1.227,2.547,1.88,3.818a2.574,2.574,0,0,1-2.344,2.511c-1.484.05-2.751-1.4-4.253-2.356a4.837,4.837,0,0,0-2.282-.687,1.747,1.747,0,0,0-1.451,1.273,2.669,2.669,0,0,0-1.631-.2,1.584,1.584,0,0,0-1.143,2.3,3.03,3.03,0,0,0-2.228.929,2.285,2.285,0,0,0,.233,3.4,3.083,3.083,0,0,0-.749,1.8c-.141,2.109,1.745,4.7,3.911,4.784l.08-.005c.1,1.481,1.2,3.074,2.555,1.894a4.324,4.324,0,0,0,1.107-1.82,5.016,5.016,0,0,0,1.481,1.656,1.688,1.688,0,0,0,2.036.046,3.311,3.311,0,0,0,.82-1.364,2.079,2.079,0,0,0,.07-.355c1.631,1.3,3.24.32,3.513-2.06a3.6,3.6,0,0,0-.008-.656,2.931,2.931,0,0,0,1.13-2.04,4.176,4.176,0,0,0-.531-1.892c-.687-1.4-2.234-2.527-1.359-3.369a3.148,3.148,0,0,1,1.29-.957c.314-.195.843-.185.941-.585.293.506.6,1.056.93,1.56a.405.405,0,0,0,.016.218c1.107,1.461.564,3.114.874,4.933a7.957,7.957,0,0,0,1.2,3.074,2.725,2.725,0,0,0,.311.418c.227,1.342.741,3.016,2,3.33a2.065,2.065,0,0,0,.728,0,7.4,7.4,0,0,0,1.964,1.8,5.851,5.851,0,0,0,2.717,1.272c-.466,1.167-3.338.08-4.552,1.645a1.7,1.7,0,0,0-.53,1.39c-1.5,1.1.4,4.35,2.764,4.419a2.255,2.255,0,0,0,1.282-.519,1.431,1.431,0,0,0,.629.4c.859.033,1.255-.779,1.413-1.577a1.537,1.537,0,0,0,1.616-1.415,9.049,9.049,0,0,0-.6-2.456,1.8,1.8,0,0,1-.058-1l.224-.539a54.193,54.193,0,0,0,6.981,6.165,59.245,59.245,0,0,0,10.587,6.024,32.287,32.287,0,0,0,11.755,3.193c1.109.061,2.246.077,3.332.052a.494.494,0,0,0,.519-.339c.7-.744.3-1.068-.318-.942Zm-58.687-72.454a8.274,8.274,0,0,1-2.618-4.166,3.218,3.218,0,0,1-.128-.648c1.3,1.274,2.66,2.457,3.979,3.642.532.491,1.1.98,1.636,1.472.038.3.037.61.064.871a.313.313,0,0,1-.21-.03,6.4,6.4,0,0,1-2.724-1.141Zm6.66,2.116a4.7,4.7,0,0,1-1.94.167,5.312,5.312,0,0,1-.682-.132c.068-.048.115-.182.183-.23.218-.408.3-.544.562-.954a14.987,14.987,0,0,1,1.712-2.3c1.006-1.114,2.952-2.506,4.695-4.06l-.258.41c-.793,1.625-1.292,3.757-2.135,5.035a5.773,5.773,0,0,1-2.137,2.06Z" transform="translate(-20743.008 -9708.688)" fill="#50cd89"/>
    <path id="Path_408" data-name="Path 408" d="M408.609,1039.631c.749-.973,1.546-1.7,2.315-2.788.022-.031.044-.09.068-.122a57.62,57.62,0,0,0,6.613-4.694,51.679,51.679,0,0,0,8.537-10.211,55.473,55.473,0,0,0,7.364-15.392c.655-2.422,2.814-7.719,1.277-9.618-1.5-.977-5.342,1.71-6.83,2.756a48.688,48.688,0,0,0-14.238,16.861,26.075,26.075,0,0,0-2.234,14.891,13.132,13.132,0,0,1-.011,3.571,6.182,6.182,0,0,1-.76,1.649.6.6,0,0,0-.114.1.268.268,0,0,0-.044.147,16.722,16.722,0,0,1-1.453,1.687c-.136.159-.272.346-.408.505.054-.963.107-1.926.138-2.914,0-4.132-.435-8.176-.825-12.227-.174-2.141-.371-4.306-.614-6.437,1.523-1.7,3.118-3.263,4.5-5.109a76.963,76.963,0,0,0,7.577-12.244c2.75-5.911,6.1-11.848,6.989-18.517.046-1.412.17-3.761-1.043-4.327a1.232,1.232,0,0,0-.853.228l-1.789,1a17.238,17.238,0,0,0-4.461,3.249,42.115,42.115,0,0,0-10.593,21.818c-.519,3.64-.39,7.3-.747,10.951v.028c-.077-.467-.154-.935-.254-1.371-.755-3.72-1.9-7.3-2.657-11.022-.4-1.885-.78-3.8-1.181-5.686v-.028a8.324,8.324,0,0,1,.2-2.219,21.585,21.585,0,0,1,2.162-3.695,80.548,80.548,0,0,0,4.269-9.322,84.951,84.951,0,0,0,5.218-16.421,31.783,31.783,0,0,0,.557-4.151c.177-1.907-1.159-1.557-2.189-.8a24.269,24.269,0,0,0-5.425,5.122,28.264,28.264,0,0,0-3.113,6.382,46.608,46.608,0,0,0-2.957,10.3,25.975,25.975,0,0,0,.1,6.142,29.219,29.219,0,0,0,1.053,4.972c.1.24.08.636.2.872a4.268,4.268,0,0,0-.308.969l-.061.514c-.3-1.308-.6-2.589-.943-3.863-.881-2.916-1.965-5.551-2.868-8.351-.849-2.386-1.859-4.694-2.754-7.046a.759.759,0,0,1,.066-.15,6.33,6.33,0,0,1,.315-.577c.7-1.023,1.567-1.872,2.315-2.844,1-1.26,2.043-2.47,2.947-3.83a47.152,47.152,0,0,0,6.286-16.2c.278-1.415.394-2.808.582-4.07.083-.573.166-1.175.2-1.742,0-.252-.01-.589-.22-.7-.28-.131-.529.213-.734.409q-.786.782-1.573,1.479a34.581,34.581,0,0,0-4.225,3.526,20.829,20.829,0,0,0-4.99,9.111,38.906,38.906,0,0,0-.422,8.18,26.479,26.479,0,0,1-.3,4.594c-.127.72-.324,1.421-.5,2.147a45.561,45.561,0,0,1-1.441-4.61,6.764,6.764,0,0,1-.154-.963.9.9,0,0,0,.11-.352,4.629,4.629,0,0,1,.2-.813,39.5,39.5,0,0,0,1.152-4.569,25.727,25.727,0,0,0-.092-4.232,55.77,55.77,0,0,0-1.051-7.643,119.648,119.648,0,0,0-5.674-17.384c-.238-.418-.595-2.393-1.118-1.844a35.7,35.7,0,0,0-1.277,22.462,45.333,45.333,0,0,0,1.657,5.059,50.493,50.493,0,0,0,2.46,4.641,18.138,18.138,0,0,0,2.726,3.958,2.928,2.928,0,0,0,.423.392,26.625,26.625,0,0,0,1.22,5.259c-2.65-3.518-4.284-8.637-8.026-10.967a14.067,14.067,0,0,0-5.542-2.057,13.158,13.158,0,0,0-4.494-.2,6.25,6.25,0,0,0-2.214.526c-.932,1.054.344,2.623.934,3.33a20.051,20.051,0,0,0,3.847,3.131c1.194.821,2.342,1.677,3.6,2.377a27,27,0,0,0-.279,8.414c.947,5.6,3.832,10.694,8.105,13.008a13.938,13.938,0,0,0,4.184,1.089,5.413,5.413,0,0,1,2.307.951,20.094,20.094,0,0,0,4.095,2.7,1.886,1.886,0,0,0,.349.149c.507,2.6.965,5.237,1.517,7.833.8,3.657,1.808,7.231,2.332,11.01.106.829.212,1.657.295,2.461-1.806-4.251-3.131-8.878-5.485-12.717a49.98,49.98,0,0,0-5.323-7.034c-1.342-1.363-2.732-2.889-4.478-3.495-2.932-.951-6.137-.206-9.075-.115-.8.334-.135,1.677.037,2.243a25.683,25.683,0,0,0,5.267,7.857,83.284,83.284,0,0,0,6.107,6.871,19.933,19.933,0,0,0,5.64,3.787c1.447.759,2.805,1.7,4.186,2.607a16.7,16.7,0,0,0,3.292,1.717c.168,1.8.313,3.583.458,5.39.311,3.471.595,6.637.652,10.142.008,1.91-.077,3.8-.208,5.706-1.475-1.064-2.182-3.189-3-5.185a63,63,0,0,0-4.181-7.976c-1.546-2.544-3.272-4.755-4.815-7.131a73.02,73.02,0,0,0-6.891-9.519,10.209,10.209,0,0,0-4.145-2.922c-1.1-.554-1.2.416-1.04,1.518.989,5.29,1.313,10.923,3.335,15.736a41.551,41.551,0,0,0,2.8,5.606,18.128,18.128,0,0,0,2.489,3.6,21.807,21.807,0,0,0,8.812,5.238,10.136,10.136,0,0,0,3.48.426,8.533,8.533,0,0,0,1.688-.117l.116-.016a4.98,4.98,0,0,0,.8.875,3.56,3.56,0,0,0,.516.38,77.94,77.94,0,0,1-1.587,10.559,12.606,12.606,0,0,0-1.019-2.841,6.206,6.206,0,0,0-2.119-2.213c-2.031-1.045-4.116-1.183-6.078-2.265a19.411,19.411,0,0,1-4.476-3.354,10.083,10.083,0,0,0-3.046-2.228c-1.956-.69-4.133.618-5.8,2.109-.615.59-1.254,1.182-1.822,1.822a1.5,1.5,0,0,0,.333,1.95,7.905,7.905,0,0,0,3.341,1.879,44.324,44.324,0,0,1,4.193,1.622c1.634.818,3.314,1.685,5.225,1.032,1.106-.319,2.092-.931,3.083-1.122,2.1-.23,3.848,1.753,5.5,3.413a4.629,4.629,0,0,0,1.8,1.1,1.416,1.416,0,0,0,.7.074c-.6,2.7-1.161,5.414-1.952,8.051-.088.293-.088.237-.2.561v.056c0,.028,0,.028-.022.059v.028c-.022.115.027.22.12.236a1.619,1.619,0,0,0,.784-.163c.327.152.695-1.416.784-1.624.5-1.671.94-3.388,1.375-5.078a3.894,3.894,0,0,0,1.453-.338,5.03,5.03,0,0,0,1.143-.859c.048.106.21.084.348.037a17.505,17.505,0,0,1,2.336-.121,25.07,25.07,0,0,0,2.863-.418,22.709,22.709,0,0,0,6.71-2.964,29.552,29.552,0,0,0,9.42-8.532,13.836,13.836,0,0,0,2.221-4.321c.064-.346.2-.786-.017-1.038s-.58-.09-.859-.136a9.124,9.124,0,0,1-1.552-.1,13.007,13.007,0,0,0-5.742-.119c-4.012.967-9.327,5.737-11.525,10.083-1.035,1.883-1.693,4.052-2.847,5.643a12.715,12.715,0,0,1-2.163,2.177,3.05,3.05,0,0,1-1.589.525l-.046.006c.174-.7.347-1.424.521-2.123a98.405,98.405,0,0,0,1.869-13.126Zm-9.832-45.067a.278.278,0,0,0-.094-.072c.019-.256-.194-.564-.2-.844a20.2,20.2,0,0,0-.973-4.281,61.791,61.791,0,0,0-3.926-7.982c-1.338-2.544-2.949-4.855-4.447-7.265l-.714-1.167c.536.208,1.048.418,1.584.628a24.032,24.032,0,0,0,4.843,1.731c.047.022.093.015.139.037s.071.075.117.1l.046-.006c.51,1.5,1.09,2.971,1.6,4.449.774,2.059,1.337,3.894,1.973,6,.683,2.156,1.361,4,1.907,6.232.323,1.333.6,2.7.853,4.044a17.219,17.219,0,0,1-2.712-1.6Z" transform="translate(-20868.668 -9670.446)" fill="#78e8ab"/>
    <path id="Path_409" data-name="Path 409" d="M524.167,1214.026c.645-.035,1.217.072,1.913,0,.02,0,.05-.017.071-.019a25.925,25.925,0,0,0,4.248,1.5,20.04,20.04,0,0,0,7.025.015,21.69,21.69,0,0,0,8.506-3.028c1.147-.756,3.932-2.006,4.056-3.734-.2-1.281-2.659-2.171-3.61-2.513a19.057,19.057,0,0,0-11.655-.1,12.466,12.466,0,0,0-6.376,5.64,7.159,7.159,0,0,1-1.33,1.643,2.429,2.429,0,0,1-.9.34.256.256,0,0,0-.08-.017.114.114,0,0,0-.071.044,6.485,6.485,0,0,1-1.177-.026c-.11,0-.232.009-.342.007.378-.415.756-.83,1.134-1.27a73.785,73.785,0,0,0,4.228-6.1c.729-1.085,1.459-2.195,2.158-3.314a24.229,24.229,0,0,0,11.02-1.322c3.237-1.206,6.712-2.09,9.524-4.679.542-.626,1.461-1.643,1.211-2.577a.777.777,0,0,0-.408-.367l-1.05-.529a7.711,7.711,0,0,0-2.9-.972,16.634,16.634,0,0,0-12.115,4.206c-1.549,1.394-2.86,3.158-4.35,4.644l-.01.013c.144-.259.289-.517.413-.774,1.1-2.136,1.992-4.427,3.087-6.563.548-1.093,1.116-2.188,1.664-3.281l.01-.013a4.175,4.175,0,0,1,.9-.917,8.251,8.251,0,0,1,2.191-.508,31.552,31.552,0,0,0,5.079-1.94,35.573,35.573,0,0,0,8.075-4.693,15.311,15.311,0,0,0,1.753-1.609c.775-.783.139-1.362-.533-1.582a9.935,9.935,0,0,0-3.957-.641,10.991,10.991,0,0,0-3.549,1.222,19.9,19.9,0,0,0-4.943,3.117,14.434,14.434,0,0,0-2.243,2.892,19.693,19.693,0,0,0-1.448,2.88c-.052.164-.206.338-.248.513a1.793,1.793,0,0,0-.477.277l-.214.2c.373-.771.735-1.527,1.078-2.307.749-1.835,1.317-3.653,2.015-5.447.564-1.573,1.039-3.2,1.573-4.781a.289.289,0,0,1,.081-.032,2.367,2.367,0,0,1,.333-.092c.645-.084,1.289,0,1.933-.031a21.936,21.936,0,0,0,2.539-.136,17.112,17.112,0,0,0,2.718-.753,18.47,18.47,0,0,0,5.68-3.246c.631-.5,1.192-1.079,1.732-1.558.244-.219.5-.451.724-.692a.577.577,0,0,0,.176-.445c-.058-.215-.279-.195-.43-.218q-.588-.075-1.145-.189a14.648,14.648,0,0,0-2.91-.713,8.084,8.084,0,0,0-5.273,1.442,20.22,20.22,0,0,0-3.2,3.546,13.6,13.6,0,0,1-1.818,1.958c-.316.262-.651.477-.986.716.334-.914.711-1.979,1.167-2.929a4.339,4.339,0,0,1,.3-.531.377.377,0,0,0,.172-.1,2.057,2.057,0,0,1,.376-.268,17.247,17.247,0,0,0,2.134-1.472,14.436,14.436,0,0,0,1.536-2.005,34.866,34.866,0,0,0,2.44-4.112,88.261,88.261,0,0,0,4.306-11.177c.065-.325.663-1.435.261-1.471a14.876,14.876,0,0,0-1.916,1.072,19.608,19.608,0,0,0-6.909,8.6,33.518,33.518,0,0,0-1.251,3.255c-.347,1.148-.544,2.344-.792,3.507a16.389,16.389,0,0,0-.437,3.339,2.837,2.837,0,0,0,.015.416,18.164,18.164,0,0,0-1.491,3.105c.3-3.094,1.585-6.363,1.032-9.514a13.531,13.531,0,0,0-1.336-4.022,10.787,10.787,0,0,0-1.626-2.585c-.338-.337-.614-.8-1.034-.984-.745-.029-.844,1.4-.883,2.056a19.952,19.952,0,0,0,.295,3.578c.147,1.041.264,2.073.482,3.095a14.321,14.321,0,0,0-3.23,3.731,15.575,15.575,0,0,0-1.76,10.5,12.927,12.927,0,0,0,1.18,2.822,5.263,5.263,0,0,1,.521,1.718,20.126,20.126,0,0,0,.547,3.518,1.829,1.829,0,0,0,.077.262c-.775,1.482-1.579,2.954-2.334,4.458-1.055,2.133-2,4.342-3.205,6.378-.268.442-.535.883-.8,1.3.9-2.964,2.111-5.836,2.645-8.914a46.142,46.142,0,0,0,.6-6.2,12.78,12.78,0,0,0-.4-4.1c-.758-2.064-2.248-3.5-3.4-5.083-.429-.292-.674.7-.819,1.057a22.983,22.983,0,0,0-.922,6.548c-.11,2.193-.31,4.382-.238,6.558a19.936,19.936,0,0,0,.73,4.875c.267,1.153.432,2.339.617,3.524a16.626,16.626,0,0,0,.61,2.617c-.606.927-1.211,1.828-1.828,2.744-1.171,1.776-2.239,3.395-3.52,5.046-.706.887-1.442,1.715-2.2,2.52a10.071,10.071,0,0,1,.789-4.058,52.85,52.85,0,0,0,1.378-6c.359-2.032.526-4.01.824-5.962a66.68,66.68,0,0,0,.925-8.216,10.167,10.167,0,0,0-.484-3.647c-.21-.863-.608-.471-.958.125-1.59,2.992-3.56,5.773-4.581,9.117a34.368,34.368,0,0,0-1.021,4.14,16.369,16.369,0,0,0-.393,3.041,21.7,21.7,0,0,0,1.393,7.3,8.752,8.752,0,0,0,1.159,2.125,6.407,6.407,0,0,0,.683.881l.05.057a4.772,4.772,0,0,0-.022.848,3.535,3.535,0,0,0,.054.461,36.985,36.985,0,0,1-4.523,4,9.524,9.524,0,0,0,.669-1.877,5.973,5.973,0,0,0,.019-2.2c-.381-1.608-1.12-2.828-1.461-4.415a19.37,19.37,0,0,1-.45-4.03,10.059,10.059,0,0,0-.326-2.717,3.671,3.671,0,0,0-2.98-2.24,12.954,12.954,0,0,0-1.367-.168c-.464.043-.592.619-.6,1.085a7.844,7.844,0,0,0,.568,2.719c.359,1.009.7,2.021.986,3.073.315,1.283.63,2.615,1.6,3.373.537.465,1.138.729,1.585,1.191.881,1.059.806,2.943.815,4.622a4.615,4.615,0,0,0,.272,1.508,1.206,1.206,0,0,0,.236.42c-1.23.911-2.451,1.857-3.729,2.637-.142.087-.122.06-.284.149l-.02.026c-.01.013-.01.013-.03.015l-.01.013a.148.148,0,0,0-.043.176,1.087,1.087,0,0,0,.358.36c.067.251.789-.269.9-.316.812-.492,1.614-1.044,2.407-1.583a2.542,2.542,0,0,0,.676.649,2.217,2.217,0,0,0,.752.237c-.022.076.048.154.118.21a13.35,13.35,0,0,1,.93,1.239,17.693,17.693,0,0,0,1.24,1.394,14.633,14.633,0,0,0,10.38,3.63,5.368,5.368,0,0,0,2.446-.765c.153-.124.366-.254.379-.489s-.186-.363-.275-.539a7.607,7.607,0,0,1-.551-.906,10.462,10.462,0,0,0-2.131-3.237,9.214,9.214,0,0,0-8.11-1.73,21.528,21.528,0,0,1-3.174,1.028,5.091,5.091,0,0,1-1.628-.193,1.806,1.806,0,0,1-.8-.639l-.02-.022c.325-.226.661-.466.986-.692a47.037,47.037,0,0,0,5.583-5.026Zm13.011-26.265a.279.279,0,0,0-.009-.085c.1-.108.136-.368.238-.5a13.7,13.7,0,0,0,1.221-2.516,50.973,50.973,0,0,0,1.477-5.863c.438-1.916.686-3.877,1.013-5.82l.163-.935c.126.393.242.775.367,1.167a23.073,23.073,0,0,0,1.192,3.484c.01.036.029.059.039.094s0,.074.009.11l.02.022c-.365.978-.691,1.977-1.046,2.941-.471,1.38-.94,2.539-1.481,3.865-.542,1.374-.971,2.6-1.592,3.936-.373.795-.776,1.58-1.178,2.341A17.2,17.2,0,0,1,537.178,1187.761Z" transform="translate(-20976.063 -9842.346)" fill="#2ea564"/>
    <path id="Path_410" data-name="Path 410" d="M436.672,1474.33h44l-5.9,11.291a18.163,18.163,0,0,1-32.191,0l-5.9-11.293Z" transform="translate(-20917.465 -10092.878)" fill="#ffa700" fill-rule="evenodd"/>
    <g id="Group_493" data-name="Group 493" transform="translate(-20480.793 -8618.548)" clip-path="url(#clip-path)">
      <path id="Path_411" data-name="Path 411" d="M472.038,1472.113c-7.385-.274-33.271-1.254-39.45,0-2.58.525,2.374,7.532,2.374,7.532s35.762-4.629,41.94-5.884c1.677-.34-3.153-1.583-4.864-1.647Z" transform="translate(-432.907 -1472.115)" fill="rgba(0,0,0,0.2)" fill-rule="evenodd"/>
    </g>
    <path id="Path_413" data-name="Path 413" d="M476.19,1452.48H428.666v.007a6.449,6.449,0,0,0,6.45,6.449h34.625a6.449,6.449,0,0,0,6.449-6.45Z" transform="translate(-20911.219 -10075.84)" fill="#f1416c" fill-rule="evenodd"/>
    <g id="Group_495" data-name="Group 495" transform="translate(-20321.17 -8850.108)">
      <path id="Path_414" data-name="Path 414" d="M1245.911,434.279a11.49,11.49,0,0,0-11.49-11.49h-59.178a11.49,11.49,0,0,0-11.49,11.49v.007a11.49,11.49,0,0,0,11.49,11.49h59.178a11.49,11.49,0,0,0,11.49-11.49Z" transform="translate(-1163.753 -422.789)" fill="#50cd89" fill-rule="evenodd"/>
      <g id="Group_494" data-name="Group 494" transform="translate(9.473 7.201)">
        <path id="Path_415" data-name="Path 415" d="M1349.055,464.348c-.139.181-.475.091-.933-.251a8.443,8.443,0,0,1-1.512-1.57l-2.8-3.649a10.077,10.077,0,0,1-1.205-1.97c-.262-.6-.33-1.035-.192-1.215s.475-.091.933.25a8.451,8.451,0,0,1,1.512,1.57l2.8,3.649a10.075,10.075,0,0,1,1.205,1.97C1349.124,463.729,1349.193,464.167,1349.055,464.348Z" transform="translate(-1312.484 -455.575)" fill="#fff" fill-rule="evenodd"/>
        <path id="Path_416" data-name="Path 416" d="M1348.3,455.577c.139.181.07.619-.193,1.216a10.081,10.081,0,0,1-1.205,1.97l-2.8,3.649a8.436,8.436,0,0,1-1.512,1.57c-.459.341-.794.431-.933.25s-.07-.618.192-1.215a10.079,10.079,0,0,1,1.205-1.97l2.8-3.649a8.429,8.429,0,0,1,1.512-1.57C1347.827,455.486,1348.163,455.4,1348.3,455.577Z" transform="translate(-1311.897 -455.485)" fill="#fff" fill-rule="evenodd"/>
        <path id="Path_417" data-name="Path 417" d="M1299.839,459.818c0,.256-.286.5-.8.683a6.005,6.005,0,0,1-1.922.283h-3.962a6.006,6.006,0,0,1-1.922-.283c-.509-.181-.8-.427-.8-.683s.286-.5.8-.683a6.013,6.013,0,0,1,1.922-.283h3.962a6.012,6.012,0,0,1,1.922.283c.509.181.8.427.8.683Zm-15.594,4.53c-.139.181-.475.091-.933-.251a8.446,8.446,0,0,1-1.512-1.57l-2.8-3.649a10.078,10.078,0,0,1-1.206-1.97c-.262-.6-.33-1.035-.192-1.215s.474-.091.933.25a8.45,8.45,0,0,1,1.512,1.57l2.8,3.649a10.053,10.053,0,0,1,1.205,1.97c.262.6.33,1.035.193,1.216Z" transform="translate(-1261.946 -455.575)" fill="#fff" fill-rule="evenodd"/>
        <path id="Path_418" data-name="Path 418" d="M1283.492,455.579c.139.181.069.619-.192,1.216a10.081,10.081,0,0,1-1.205,1.97l-2.8,3.65a8.444,8.444,0,0,1-1.512,1.57c-.458.341-.794.431-.933.25s-.07-.618.192-1.215a10.091,10.091,0,0,1,1.205-1.97l2.8-3.649a8.433,8.433,0,0,1,1.512-1.57c.458-.341.795-.432.933-.251Z" transform="translate(-1261.359 -455.488)" fill="#fff" fill-rule="evenodd"/>
        <path id="Path_419" data-name="Path 419" d="M1235.206,459.818c0,.256-.286.5-.8.683a6.005,6.005,0,0,1-1.922.283h-3.962a6.005,6.005,0,0,1-1.922-.283c-.51-.181-.8-.427-.8-.683s.286-.5.8-.683a6.013,6.013,0,0,1,1.922-.283h3.962a6.011,6.011,0,0,1,1.922.283C1234.92,459.316,1235.206,459.562,1235.206,459.818Zm-15.541,4.53c-.139.181-.475.091-.933-.251a8.443,8.443,0,0,1-1.512-1.57l-2.8-3.649a10.068,10.068,0,0,1-1.206-1.97c-.262-.6-.33-1.035-.192-1.215s.475-.091.933.25a8.451,8.451,0,0,1,1.513,1.57l2.8,3.649a10.075,10.075,0,0,1,1.205,1.97C1219.734,463.729,1219.8,464.167,1219.665,464.348Z" transform="translate(-1211.589 -455.575)" fill="#fff" fill-rule="evenodd"/>
        <path id="Path_420" data-name="Path 420" d="M1218.922,455.577c.139.181.069.619-.192,1.216a10.087,10.087,0,0,1-1.205,1.97l-2.8,3.649a8.436,8.436,0,0,1-1.512,1.57c-.458.341-.794.431-.933.25s-.07-.618.192-1.215a10.085,10.085,0,0,1,1.205-1.97l2.8-3.649a8.437,8.437,0,0,1,1.512-1.57C1218.447,455.486,1218.783,455.4,1218.922,455.577Z" transform="translate(-1211.009 -455.485)" fill="#fff" fill-rule="evenodd"/>
        <path id="Path_421" data-name="Path 421" d="M1216.165,459.82c0,.256-.286.5-.8.683a6.005,6.005,0,0,1-1.922.283h-3.962a6.006,6.006,0,0,1-1.922-.283c-.509-.181-.8-.427-.8-.683s.286-.5.8-.683a6.012,6.012,0,0,1,1.922-.283h3.963a6.012,6.012,0,0,1,1.922.283c.509.181.8.427.8.683Zm54.017,4.531c-.139.181-.475.091-.933-.251a8.447,8.447,0,0,1-1.512-1.57l-2.8-3.649a10.072,10.072,0,0,1-1.206-1.97c-.262-.6-.33-1.035-.192-1.215s.475-.091.933.25a8.437,8.437,0,0,1,1.513,1.57l2.8,3.649a10.091,10.091,0,0,1,1.205,1.97c.262.6.33,1.035.193,1.216Z" transform="translate(-1206.768 -455.578)" fill="#fff" fill-rule="evenodd"/>
        <path id="Path_422" data-name="Path 422" d="M1470.2,455.583c.139.181.07.619-.193,1.216a10.067,10.067,0,0,1-1.205,1.97l-2.8,3.649a8.444,8.444,0,0,1-1.513,1.57c-.458.341-.794.431-.933.25s-.07-.618.192-1.215a10.06,10.06,0,0,1,1.206-1.97l2.8-3.649a8.447,8.447,0,0,1,1.512-1.57C1469.729,455.493,1470.064,455.4,1470.2,455.583Z" transform="translate(-1406.952 -455.49)" fill="#fff" fill-rule="evenodd"/>
        <path id="Path_423" data-name="Path 423" d="M1421.916,459.821c0,.256-.286.5-.8.683a6,6,0,0,1-1.921.283h-3.962a6.006,6.006,0,0,1-1.922-.283c-.509-.181-.8-.426-.8-.683s.286-.5.8-.683a6.006,6.006,0,0,1,1.922-.283h3.962a6,6,0,0,1,1.921.283C1421.629,459.32,1421.916,459.565,1421.916,459.821Zm-15.541,4.53c-.139.181-.475.091-.933-.251a8.447,8.447,0,0,1-1.512-1.57l-2.8-3.649a10.07,10.07,0,0,1-1.206-1.97c-.262-.6-.33-1.035-.192-1.215s.475-.091.933.25a8.444,8.444,0,0,1,1.513,1.57l2.8,3.649a10.091,10.091,0,0,1,1.205,1.97c.262.6.331,1.035.193,1.216Z" transform="translate(-1357.18 -455.578)" fill="#fff" fill-rule="evenodd"/>
        <path id="Path_424" data-name="Path 424" d="M1405.633,455.583c.139.181.07.619-.192,1.216a10.076,10.076,0,0,1-1.205,1.97l-2.8,3.649a8.447,8.447,0,0,1-1.512,1.57c-.458.341-.794.431-.933.25s-.07-.618.192-1.215a10.059,10.059,0,0,1,1.205-1.97l2.8-3.649a8.45,8.45,0,0,1,1.512-1.57C1405.158,455.493,1405.494,455.4,1405.633,455.583Z" transform="translate(-1356.602 -455.49)" fill="#fff" fill-rule="evenodd"/>
        <path id="Path_425" data-name="Path 425" d="M1402.875,471.333c0,.256-.286.5-.8.683a6,6,0,0,1-1.921.283H1396.2a6.006,6.006,0,0,1-1.922-.283c-.509-.181-.8-.426-.8-.683s.286-.5.8-.683a6.006,6.006,0,0,1,1.922-.283h3.962a6,6,0,0,1,1.921.283C1402.589,470.831,1402.875,471.076,1402.875,471.333Z" transform="translate(-1352.36 -467.089)" fill="#fff" fill-rule="evenodd"/>
      </g>
    </g>
    <g id="Group_496" data-name="Group 496" transform="translate(-20481.58 -8870)">
      <path id="Path_426" data-name="Path 426" d="M549.273,332.463a11.693,11.693,0,0,1,11.528,9.744c4.209,24.93,15.377,91.073,20.228,119.8A11.69,11.69,0,0,1,569.5,475.645H465.349a11.69,11.69,0,0,1-11.526-9.745c-4.21-24.928-15.378-91.071-20.229-119.8a11.694,11.694,0,0,1,11.529-13.637Z" transform="translate(-433.43 -332.463)" fill="#f1416c" fill-rule="evenodd"/>
      <path id="Path_427" data-name="Path 427" d="M509.974,465.913a11.692,11.692,0,0,1-11.529-9.746c-3.959-23.449-14.027-83.079-18.584-110.066a11.69,11.69,0,0,1,11.527-13.637h95.46a11.691,11.691,0,0,1,11.529,9.747c3.96,23.449,14.028,83.079,18.584,110.066a11.69,11.69,0,0,1-11.527,13.637Z" transform="translate(-469.509 -332.463)" fill="#fff" fill-rule="evenodd"/>
      <path id="Path_428" data-name="Path 428" d="M613.646,411.825c1.958-.25,3.995-.515,6.065-.652,1.333-.088,2.681-.141,4.02-.1a34.716,34.716,0,0,1,6.518.85,1.866,1.866,0,1,0,.681-3.669,50.362,50.362,0,0,0-7.145-.408c-1.405,0-2.816,0-4.218.027-2.132.048-4.237.122-6.264.238a1.865,1.865,0,0,0,.343,3.714Zm-.074,13.355c2.067-.137,10.28-.313,18.4-.368,4.508-.031,8.985.022,12.39-.065,1.358-.036,2.549-.08,3.511-.149a1.865,1.865,0,0,0-.345-3.714c-2.925.326-8.081.6-13.529.694-2.746.046-5.562.029-8.2.006-5.852-.052-10.857-.183-12.419-.13a1.866,1.866,0,0,0,.194,3.726Zm.167,15.329c6.626-.135,12.978-.316,19.207-.521,4.313-.139,8.567-.311,12.812-.486,7.072-.294,14.118-.622,21.364-1.207a1.865,1.865,0,1,0-.345-3.715c-7.173.751-14.15,1.346-21.165,1.7-4.222.212-8.457.328-12.751.406-6.212.115-12.549.1-19.156.093a1.865,1.865,0,0,0,.035,3.73Zm-16.788,51.108c-.027-.027-.042-.071-.07-.105a2.3,2.3,0,0,1-.267-.435,7.9,7.9,0,0,1-.557-1.72,42.248,42.248,0,0,1-.585-4.227l-.635-5.327c-.381-3.484-.661-7.13-1.295-10.672a35.909,35.909,0,0,0-1.985-7.17c-1.554-3.837-3.957-4.876-6.191-4.542-2,.3-4.151,1.968-5.745,4.493q-.553.88-1.054,1.79c-.488.885-.947,1.787-1.4,2.69-.776,1.545-1.529,3.1-2.214,4.687-.462,1.075-.9,2.164-1.285,3.27a1.865,1.865,0,1,0,3.524,1.222c.44-1.287.946-2.549,1.489-3.795.555-1.268,1.15-2.517,1.76-3.758.425-.864.854-1.726,1.312-2.572q.444-.824.934-1.621c.932-1.5,2.035-2.7,3.223-2.887.978-.154,1.708.681,2.4,2.355a32.353,32.353,0,0,1,1.84,6.458c.65,3.461.94,7.025,1.339,10.428l.681,5.414a27.7,27.7,0,0,0,1.264,6.443,4.247,4.247,0,0,0,2.977,2.832c1.337.237,2.706-.465,3.808-1.907a28.784,28.784,0,0,0,2.933-6c1.848-4.287,3.32-8.743,5.034-13.088.717-1.823,1.482-3.623,2.334-5.387a18.636,18.636,0,0,1,1.941-3.512,2.521,2.521,0,0,1,1.387-1.043c.734-.143,1.337.355,1.958.934a39.529,39.529,0,0,1,3.243,3.89,10.307,10.307,0,0,0,3.144,2.816,6.94,6.94,0,0,0,3.419.652,24.859,24.859,0,0,0,5.612-1.335c1.424-.418,2.809-.815,4.056-.24a5.272,5.272,0,0,1,2.267,2.761c1.081,2.292,1.741,5.049,2.692,6.84a10.207,10.207,0,0,0,6.046,5.2c3.331,1.076,7.313.513,11.081-.465a1.865,1.865,0,1,0-.957-3.606,20.156,20.156,0,0,1-7.665.906,6.836,6.836,0,0,1-5.373-3.718c-1.127-2.065-1.872-5.436-3.335-7.86a7.7,7.7,0,0,0-3.329-3.18,6.809,6.809,0,0,0-3.5-.524,32.132,32.132,0,0,0-5.506,1.44c-1.4.4-2.79.742-4.074.133-1.026-.488-1.947-1.784-2.95-3.058a17.872,17.872,0,0,0-3.876-4,4.764,4.764,0,0,0-3.585-.771,5.226,5.226,0,0,0-2.7,1.544,18.13,18.13,0,0,0-2.9,4.8c-.881,1.834-1.669,3.711-2.416,5.606-1.7,4.313-3.186,8.727-5.03,12.976-.3.694-.908,2.458-1.733,4.008a8.063,8.063,0,0,1-1.022,1.55A3.1,3.1,0,0,1,596.951,491.617Zm-17.428,14.435c4.477-.042,8.954-.145,13.432-.261,8.939-.235,17.878-.629,26.817-.963s17.86-.585,26.783-.839a1.865,1.865,0,1,0-.141-3.728c-8.026.383-16.054.856-24.094,1.22q-8.023.366-16.054.591-13.371.372-26.741.25a1.865,1.865,0,0,0,0,3.73Zm1.277,8.94c2.134.022,4.269-.076,6.414-.176,1.405-.065,2.813-.147,4.222-.189,2.328-.066,4.653-.044,6.964-.019a1.865,1.865,0,1,0-.094-3.728c-1.752.113-3.5.282-5.266.406-1.157.08-2.319.156-3.48.191a83.726,83.726,0,0,1-8.594-.212,1.865,1.865,0,1,0-.166,3.726Z" transform="translate(-542.701 -391.243)" fill="#1c4e80" fill-rule="evenodd"/>
      <path id="Path_429" data-name="Path 429" d="M584.115,412.057a1.856,1.856,0,0,0,1.306-1.737,26.863,26.863,0,0,0,4.581-13,24.716,24.716,0,0,0-4.344-16.357c-2.786-3.936-7.564-6.739-11.984-6.668a9.482,9.482,0,0,0-7.621,3.911,10.48,10.48,0,0,0-3.72,2.588,29.334,29.334,0,0,0-4.834,7.543c-2.8,5.942-3.943,13.927-1.8,20.349a15.642,15.642,0,0,0,9.692,10.14,13.611,13.611,0,0,0,2.875.723,13.856,13.856,0,0,0,2.959.1,15.646,15.646,0,0,0,6.861-2.281,23.229,23.229,0,0,0,5.354-4.521q.344-.386.672-.787Zm-2.811-1.646q-.662-.872-1.3-1.758c-1.569-2.166-3.066-4.376-4.647-6.546a21.347,21.347,0,0,0-1.606-2.048A3.34,3.34,0,0,0,572.222,399a1.548,1.548,0,0,0-1.145.422,13.6,13.6,0,0,0-1.733,1.493c-1.611,1.542-3.205,3.213-4.725,4.95q-2.162,2.478-4.115,5.127a12.21,12.21,0,0,0,6.034,4.767,10.3,10.3,0,0,0,2.189.562,10.568,10.568,0,0,0,2.263.08,12.392,12.392,0,0,0,5.446-1.81,19.9,19.9,0,0,0,4.607-3.882c.089-.1.176-.2.261-.3Zm2.21-3.1a23.493,23.493,0,0,0,3.2-10.244,21.261,21.261,0,0,0-3.867-14.087,12.537,12.537,0,0,0-7.41-4.922,6.291,6.291,0,0,0-5.124,1.083,1.789,1.789,0,0,1,.057.456,1.835,1.835,0,0,1-.034.357l.767,2.727c.433,1.915.778,3.827,1.157,5.728.254,1.277.529,2.546.776,3.825.252,1.295.5,2.591.711,3.9a6.79,6.79,0,0,1,1.848,1.222,20.712,20.712,0,0,1,2.38,2.759c1.424,1.813,2.784,3.663,4.187,5.48q.667.861,1.351,1.712Zm-16.265-25.229a1.828,1.828,0,0,1-.734-.01,8.383,8.383,0,0,0-1.55,1.279,25.366,25.366,0,0,0-4.237,6.523,26.731,26.731,0,0,0-2.489,14.858,17.883,17.883,0,0,0,.542,2.485q1.575-1.887,3.253-3.684c1.642-1.762,3.347-3.459,5.076-5.019a13.844,13.844,0,0,1,2.929-2.224c-.176-2.09-.374-4.153-.734-6.2-.389-2.212-.961-4.388-1.539-6.588a14.293,14.293,0,0,0-.517-1.424Z" transform="translate(-527.906 -365.083)" fill="#ffa700" fill-rule="evenodd"/>
    </g>
    <path id="Path_430" data-name="Path 430" d="M1481.257,1469.854c2.753-5.636,14.783,11.562,10.185,15.836-6.342,5.9-42.429,20.405-48.244,19.54s7.016-18.841,13.358-24.738S1473.576,1485.575,1481.257,1469.854Z" transform="translate(-21701.877 -10088.513)" fill="#ffa700" fill-rule="evenodd"/>
    <g id="Group_497" data-name="Group 497" transform="translate(-20260.154 -8619.781)" clip-path="url(#clip-path-2)">
      <path id="Path_431" data-name="Path 431" d="M1466.4,1479.471c-1.958,1.389-5.779,8.923-10.184,11.568-7.41,4.452-25.645,12.725-34.28,15.146-5.627,1.578-14.8-1.37-17.522-.618-1.693.468-.547,4.893,1.195,5.135,3.12.433,11.936-.641,17.528-2.537,8.489-2.877,25.933-10.486,33.4-14.73,4.543-2.58,9.776-8.405,11.42-10.733C1468.652,1481.725,1467.379,1478.778,1466.4,1479.471Z" transform="translate(-1411.985 -1477.024)" fill="#fff" fill-rule="evenodd"/>
    </g>
    <path id="Path_433" data-name="Path 433" d="M943.84,1335.957c5.426-3.148,5.84,17.836-.359,18.825-8.552,1.365-46.6-6.681-50.953-10.637s16.32-11.742,24.872-13.108S928.705,1344.737,943.84,1335.957Z" transform="translate(-21272.746 -9981.07)" fill="#ffa700" fill-rule="evenodd"/>
    <g id="Group_498" data-name="Group 498" transform="translate(-20380.813 -8650.121)" clip-path="url(#clip-path-3)">
      <path id="Path_434" data-name="Path 434" d="M938.287,1350.667c-2.4.063-9.769,4.193-14.9,3.937-8.634-.429-28.387-3.712-36.908-6.51-5.552-1.823-11.531-9.382-14.21-10.271-1.666-.555-3.179,3.759-1.867,4.931,2.35,2.1,10.271,6.115,15.971,7.654,8.653,2.338,27.38,5.732,35.947,6.367,5.21.387,12.8-1.537,15.463-2.555C938.9,1353.791,939.482,1350.634,938.287,1350.667Z" transform="translate(-874.755 -1336.271)" fill="#fff" fill-rule="evenodd"/>
    </g>
    <path id="Path_436" data-name="Path 436" d="M1050.667,969.138c-24.357,11.661-46.983-3.241-56.213,13.115-9.071,16.076,23.054,50.572-3.555,55.667-12.714,2.434-34.248-8.495-36.6-21.832s6.433-46.192,22.492-58.19,52.627-17.447,73.872-13.794C1072.886,947.923,1074.13,957.907,1050.667,969.138Z" transform="translate(-21321.23 -9678.541)" fill="#50cd89" fill-rule="evenodd"/>
    <g id="Group_500" data-name="Group 500" transform="translate(-20367.305 -8735.56)" clip-path="url(#clip-path-4)">
      <g id="Group_499" data-name="Group 499" transform="translate(-4.258 -8.921)">
        <path id="Path_437" data-name="Path 437" d="M1009.009,905.931a1.67,1.67,0,0,1,.633,1.028,8.361,8.361,0,0,1,.332,2.13,18.186,18.186,0,0,1-3.278,10.886,11.123,11.123,0,0,1-5.6,4.046c-3.533,1.239-7.62,1.331-11.178,1.48a49.427,49.427,0,0,0-9.256,1.121,28.054,28.054,0,0,0-8.685,3.444,20.371,20.371,0,0,0-7.66,8.525c-3.888,7.583-4.515,17.332-8.846,24.729a46.672,46.672,0,0,1-2.951,4.448,29.725,29.725,0,0,1-3.507,3.9c-3.447,3.19-7.208,5.669-10.369,8.911a26.355,26.355,0,0,0-3.816,4.916,1.865,1.865,0,0,0,3.257,1.817,24.487,24.487,0,0,1,4.3-5.8c2.666-2.74,5.705-5.087,8.479-7.948a32.914,32.914,0,0,0,3.57-4.418,50.464,50.464,0,0,0,2.866-4.8c4.079-7.627,4.246-17.527,7.98-25.275a18.951,18.951,0,0,1,7.195-8.188,26.374,26.374,0,0,1,8.422-3.156,46.081,46.081,0,0,1,9.044-.776c3.732.027,8,.078,11.765-1.009a13.513,13.513,0,0,0,6.986-4.454,21.073,21.073,0,0,0,3.268-5.792,21.379,21.379,0,0,0,1.359-6.577,11.237,11.237,0,0,0-.444-3.726,4.931,4.931,0,0,0-1.924-2.646,1.865,1.865,0,1,0-1.943,3.184Zm-16.314,45.083a7.71,7.71,0,0,0-4.677-1.293,12.911,12.911,0,0,0-6.1,2.111,30.232,30.232,0,0,0-7.787,7.191,18.187,18.187,0,0,0-3.722,16.744,46.6,46.6,0,0,0,3.821,9.906c.667,1.377,1.876,3.1,2.557,4.851a4.489,4.489,0,0,1,.29,3.051c-1.011,2.948-3.625,4.8-6.371,6.588-3.041,1.975-6.22,3.871-8.19,6.58a10.681,10.681,0,0,0-2.021,5.526,1.865,1.865,0,1,0,3.728.149,7.935,7.935,0,0,1,2.347-5.594c3.974-4.305,10.693-7.044,12.186-12.739a5.483,5.483,0,0,0-.191-3.221c-.7-2.073-2.349-4.144-3.243-5.759a40.519,40.519,0,0,1-3.983-9.558,17.54,17.54,0,0,1-.318-6.764,18.06,18.06,0,0,1,4.489-8.628,26.8,26.8,0,0,1,7.744-5.963,10.745,10.745,0,0,1,4-1.169,4.49,4.49,0,0,1,3.24,1,1.865,1.865,0,1,0,2.208-3.007Z" transform="translate(-934.591 -902.474)" fill="#fff" fill-rule="evenodd"/>
      </g>
      <path id="Path_438" data-name="Path 438" d="M1190.557,982.22c-24.956,26.005-53.324,10.947-64.139,27.37-4.813,7.311,2.519,24.256,11.256,23.722,13.912-.849,63.407-20.3,72.22-28.819C1216.966,997.661,1195.867,976.684,1190.557,982.22Z" transform="translate(-1087.24 -972.861)" fill="rgba(0,0,0,0.2)" fill-rule="evenodd"/>
    </g>
    <path id="Path_440" data-name="Path 440" d="M1389.785,928c-15.817,41.605,5.464,60.784,9.081,65.721,12.96,17.688,34.559,25.22,21.08,40.849-8.454,9.8-31.33,13.28-42.39,4.367-11.121-8.961-21.844-37.967-24.338-58.133s3.622-42.093,9.374-62.867c4.4-15.9,36.436-14.251,27.193,10.063Z" transform="translate(-21632.416 -9650.934)" fill="#50cd89" fill-rule="evenodd"/>
    <g id="Group_501" data-name="Group 501" transform="translate(-20279.77 -8743.362)" clip-path="url(#clip-path-5)">
      <path id="Path_441" data-name="Path 441" d="M1403.744,912.063a17.616,17.616,0,0,0-6.519,4.218,80.264,80.264,0,0,0-6.987,8.146c-6.365,7.892-13,18.693-15.872,29.805-1.958,7.564-2.206,15.277.654,22.369a8.54,8.54,0,0,0,2.805,3.932,3.878,3.878,0,0,0,3.325.54c1.285-.347,3.451-1.812,5.267-2.231,1.073-.248,2-.061,2.364,1.281,2.546,9.708.147,20.677,1.828,30.652a26.918,26.918,0,0,0,5.253,12.446,15.036,15.036,0,0,0,6.739,4.769c5.474,2.1,12.2,1.974,17.336,4.548a15.225,15.225,0,0,1,5.57,4.943c2.318,3.23,3.821,7.129,5.629,10.737a1.865,1.865,0,0,0,3.3-1.737c-2.033-3.684-3.791-7.665-6.334-10.939a18.3,18.3,0,0,0-6.9-5.652c-5.327-2.433-12.173-2.1-17.825-4.042a12.867,12.867,0,0,1-5.938-3.9,24.9,24.9,0,0,1-5.228-11.464c-1.938-9.932.261-20.963-2.49-30.617a2.44,2.44,0,0,0-2.46-2.086c-1.987-.029-4.813,1.949-6.365,2.368a2.955,2.955,0,0,1-2.528-.421,7.46,7.46,0,0,1-2.4-3.5c-2.6-6.9-2.24-14.351-.124-21.585,3.137-10.722,10.091-20.94,16.586-28.37a76.784,76.784,0,0,1,7.061-7.49,14.021,14.021,0,0,1,5.285-3.139,1.865,1.865,0,1,0-1.041-3.581Zm-39.72,95.184a11.485,11.485,0,0,1,1.312-5.429,13.3,13.3,0,0,1,3.562-4.635,5.369,5.369,0,0,1,2.544-1.116,3.024,3.024,0,0,1,2.42.668,5.892,5.892,0,0,1,1.565,2.431,25.815,25.815,0,0,1,1.062,4.757c.341,2.162.559,4.372.753,6.59.195,2.233.387,4.468.721,6.668a33.042,33.042,0,0,0,1.3,5.66,14.261,14.261,0,0,0,4.037,6.241c3.968,3.657,9.606,5.1,13.651,9.359a10.971,10.971,0,0,1,2.439,4.371,25.638,25.638,0,0,1,.824,7.927,1.865,1.865,0,1,0,3.73-.092,29.177,29.177,0,0,0-1.7-8.847,13.788,13.788,0,0,0-3.478-5.2c-4.4-4.056-10.253-5.131-14.5-8.621a12.826,12.826,0,0,1-3.94-5.511,31.833,31.833,0,0,1-1.668-7.3c-.444-3.8-.429-7.675-.881-11.414a28.458,28.458,0,0,0-.831-5.091,7.715,7.715,0,0,0-1.813-3.268,4.984,4.984,0,0,0-3.842-1.436,7.752,7.752,0,0,0-3.766,1.226,16.31,16.31,0,0,0-4.841,5.16,15.151,15.151,0,0,0-2.381,6.908,1.865,1.865,0,0,0,3.73,0Z" transform="translate(-1358.61 -911.015)" fill="#fff" fill-rule="evenodd"/>
      <path id="Path_442" data-name="Path 442" d="M1562.512,1260.166a6.666,6.666,0,0,0-2.748,3.93,24.16,24.16,0,0,0-.322,8.971,30.119,30.119,0,0,0,.573,3.108,18.515,18.515,0,0,0,.984,3.026,11.959,11.959,0,0,0,3.728,5.085,12.334,12.334,0,0,0,3.747,1.962c6.714,2.25,16.276-.4,22.26,4.263a1.865,1.865,0,1,0,2.126-3.064,16.34,16.34,0,0,0-7.549-2.147c-5.507-.339-11.62,1.161-16.528-.1a9.239,9.239,0,0,1-3.472-1.655,10.24,10.24,0,0,1-3.177-4.775,15.943,15.943,0,0,1-.648-2.872,24.766,24.766,0,0,1-.2-2.969,22.719,22.719,0,0,1,.984-6.779,4.128,4.128,0,0,1,1.966-2.671,1.866,1.866,0,0,0-1.72-3.312Z" transform="translate(-1513.689 -1182.352)" fill="#fff" fill-rule="evenodd"/>
    </g>
    <path id="Path_444" data-name="Path 444" d="M1210.2,719.241c-10.3-2.419-20.08,24.42-30.413,24.841s-26.964-17.491-31.583-22.317a19.76,19.76,0,0,0-6.391-4.443c-3.642-1.117-9.688-1.466-10.106.5-.277,1.3,6,.323,5.665,2.261-.86,4.924,1.634,6.178,6.359,6.487,4.9,10.409,26.107,34.08,38.064,35.586s30.682-19.361,33.67-26.547C1218.714,727.8,1215.778,720.55,1210.2,719.241Z" transform="translate(-21459.91 -9501.864)" fill="#eedec9" fill-rule="evenodd"/>
    <g id="Group_502" data-name="Group 502" transform="translate(-20328.215 -8785.449)" clip-path="url(#clip-path-6)">
      <path id="Path_445" data-name="Path 445" d="M1400.705,724.064c-3.546.6-6.231-3.69-9.482-5.274-6.934-3.378-8.651,6.829-16.273-4.974-2.3-3.569,1.884-17.069,6.789-20.94s17.521-6.012,22.645-2.289,8.717,19.047,8.1,24.627C1411.951,720.1,1404.249,723.47,1400.705,724.064Z" transform="translate(-1320.873 -694.768)" fill="#ffa700" fill-rule="evenodd"/>
      <path id="Path_446" data-name="Path 446" d="M1306.877,776.892c-2.668,2.118-4.674,15.284-10.9,19.226-7.608,4.817-30.666,5.468-34.75,9.682s4.023,15.46,10.242,15.6c8.139.185,31.83-8.164,38.582-14.5,5.733-5.377,2.459-18.5,1.928-23.5C1311.692,780.66,1309.036,775.175,1306.877,776.892Z" transform="translate(-1231.842 -763.319)" fill="rgba(0,0,0,0.2)" fill-rule="evenodd"/>
    </g>
    <path id="Path_448" data-name="Path 448" d="M1395.392,772.878c1.516,8.688-33.271,13.778-39.474,5.534-9.659-12.834,18.792-19.582,20.416-49.584.581-10.718,29.8-9.863,22.67,2.293C1395,737.951,1391.038,747.94,1395.392,772.878Z" transform="translate(-21633.248 -9505.718)" fill="#ffa700" fill-rule="evenodd"/>
    <g id="Group_503" data-name="Group 503" transform="translate(-20279.328 -8784.362)" clip-path="url(#clip-path-7)">
      <path id="Path_449" data-name="Path 449" d="M1390.184,803.233c-3.656-1.453,3.206,16.551-1.954,21.628-6.271,6.17-34.82,10.2-35.67,15.4s20.965,16.883,30.565,15.77,25.858-13.656,27.035-22.456S1393.84,804.686,1390.184,803.233Z" transform="translate(-1352.841 -785.137)" fill="rgba(0,0,0,0.2)" fill-rule="evenodd"/>
    </g>
    <path id="Path_451" data-name="Path 451" d="M1094.194,705.728c5.493,4.7,13.1,4.829,16.986.285l0,0c3.888-4.543,2.587-12.037-2.907-16.738l-103.34-88.434a21.63,21.63,0,0,0-7.153-4.062L979.6,590.642a2.925,2.925,0,0,0-3.458,4.25l9.694,16.542a21.62,21.62,0,0,0,4.6,5.5Z" transform="translate(-21338.512 -9403.67)" fill="#f1416c" fill-rule="evenodd"/>
    <g id="Group_504" data-name="Group 504" transform="translate(-20362.775 -8813.182)" clip-path="url(#clip-path-8)">
      <path id="Path_452" data-name="Path 452" d="M960.309,633.313c20.239,19.238,31.506,28.962,55.235,42.787,35.543,20.706,49.545,49.5,62.549,56.323,6.441,3.379,25.94,5.436,15.472-15.394-3.419-6.8,32.1,28.346,25.771,35.047s-44.519,14.372-63.739,5.156c-26.757-12.829-80.915-61.471-96.8-82.124-8.5-11.052-4.2-47.22,1.508-41.8Z" transform="translate(-958.8 -623.452)" fill="rgba(0,0,0,0.2)" fill-rule="evenodd"/>
    </g>
    <path id="Path_454" data-name="Path 454" d="M1446.007,990.2a3.549,3.549,0,0,0,5-.388l2.3-2.691s0,0,0-.006l0-.007-26.829-22.958a.872.872,0,0,0-1.229.1l-1.741,2.035a3.549,3.549,0,0,0,.39,5Z" transform="translate(-21686.854 -9694.88)" fill="#fff" fill-rule="evenodd"/>
    <path id="Path_455" data-name="Path 455" d="M1351.844,731.813c-8.526,6.262,5.536,31.127-.851,39.259s-31.357,6.856-37.479,9.531c-.971.424-4.015-5.16-5.379-5.739-1.994-.849-1.94,1.894-.625,4.488.6,1.185-5.205-5.093-5.525-3.865-.769,2.943,3.456,10.442,12.276,11.635,17.347,2.343,42.87,2.27,51.779-5.846s5.195-35.906,1.67-42.844C1363.882,730.891,1356.464,728.418,1351.844,731.813Z" transform="translate(-21592.844 -9512.708)" fill="#eedec9" fill-rule="evenodd"/>
    <g id="Group_505" data-name="Group 505" transform="translate(-20290.947 -8782.388)" clip-path="url(#clip-path-9)">
      <path id="Path_456" data-name="Path 456" d="M1496.441,722.981c-1.848,3.083-6.852,2.343-10.168,3.788-7.071,3.081-.423,11.013-14.348,9.147-4.21-.566-11.76-12.516-11.518-18.759s6.8-17.23,12.962-18.709,20.146,5.736,23.991,9.826C1500.725,711.852,1498.289,719.9,1496.441,722.981Z" transform="translate(-1425.494 -705.314)" fill="#ffa700" fill-rule="evenodd"/>
    </g>
    <path id="Path_458" data-name="Path 458" d="M1517.379,640.7c-.291,2.984-2.356,10.509-6.954,10.813-4.723.312-6.023-7.431-5.73-10.415s5.368-7.424,7.483-7.491S1517.666,637.783,1517.379,640.7Z" transform="translate(-21750.801 -9437.292)" fill="#eedec9" fill-rule="evenodd"/>
    <path id="Path_459" data-name="Path 459" d="M1500.027,639.018c.305-.252,1.634,1.524,2.408,1.565s1.474-1.394,2.237-1.314,1.445,2.118,2.334,1.784a7.726,7.726,0,0,0,3-3.788,8.05,8.05,0,0,0-.334-4.767c-.418-.74-1.735-.612-2.533-.315-2.607.978-6.2.7-7.614-.307s-2.786-2.3-.881-5.717c.658-1.176,4.422-4.17,5.249-1.84,1.663,4.693,2.021-2.427,7.5,2.931,1.318,1.287.963,3.81.856,5.677a12.5,12.5,0,0,1-1.5,5.524,11.994,11.994,0,0,1-4.935,5.474c-1.5.99-8.123,1.865-5.2-1.836C1501.112,641.457,1499.724,639.268,1500.027,639.018Z" transform="translate(-21745.387 -9429.376)" fill-rule="evenodd"/>
  </g>
</svg>
