<svg xmlns="http://www.w3.org/2000/svg" xmlns:xlink="http://www.w3.org/1999/xlink" width="326.001" height="294" viewBox="0 0 326.001 294">
  <defs>
    <clipPath id="clip-path">
      <path id="Path_467" data-name="Path 467" d="M1366.96,1537.18h43.979l-5.9,11.289a18.146,18.146,0,0,1-16.082,9.741h-.01a18.146,18.146,0,0,1-16.082-9.741Z" transform="translate(-1366.96 -1537.18)" fill="none"/>
    </clipPath>
    <clipPath id="clip-path-2">
      <path id="Path_477" data-name="Path 477" d="M959.721,281a61.281,61.281,0,1,0,27.609,6.572l-27.609,54.709Z" transform="translate(-898.436 -281)" fill="none"/>
    </clipPath>
    <clipPath id="clip-path-3">
      <path id="Path_480" data-name="Path 480" d="M959.721,281A61.283,61.283,0,1,0,995.5,392.038l-35.775-49.757Z" transform="translate(-898.436 -281)" fill="none"/>
    </clipPath>
    <clipPath id="clip-path-4">
      <path id="Path_487" data-name="Path 487" d="M323.129,1553.478c.538,12.059-9.775,15.151-4.414,18.595,6.088,3.912,38.217,8.215,40.95,4.878,5.986-7.3-13.31-9.306-16.473-13.282-2.255-2.835.732-8.937-2.5-10.576C337.348,1551.393,322.874,1547.727,323.129,1553.478Z" transform="translate(-317.166 -1550.368)" fill="none"/>
    </clipPath>
    <clipPath id="clip-path-5">
      <path id="Path_490" data-name="Path 490" d="M321.627,934.531c-8.71,28.848,9.07,32.573,19.748,61.085,4.892,13.064-24.871,47.8-23.871,58.939.924,10.257,22.944,15.51,29.876,7.89,9.292-10.217,25.185-47.539,25.887-69.195.545-16.785-12.244-50.918-20.852-60.7C345.625,924.824,324.6,924.686,321.627,934.531Z" transform="translate(-317.479 -926.933)" fill="none"/>
    </clipPath>
    <clipPath id="clip-path-6">
      <path id="Path_494" data-name="Path 494" d="M710.972,1523.006c6.553,10.137-.787,18.014,5.579,18.279,7.231.3,37.135-12.206,37.81-16.467,1.478-9.327-16.188-1.312-20.926-3.146-3.378-1.309-3.881-8.083-7.5-7.867C722.192,1514.026,707.847,1518.171,710.972,1523.006Z" transform="translate(-710.53 -1513.799)" fill="none"/>
    </clipPath>
    <clipPath id="clip-path-7">
      <path id="Path_509" data-name="Path 509" d="M326.015,755.169c2.476,9.337,21.868,5.348,28.713,8.787,20.528,10.308,27.738,1.472,20.347-10.683a75.348,75.348,0,0,1-9.188-22c-2.085-7.871-2.553-19.343-3.325-25.225-1.206-9.225-14-10.788-22.68,1.89-5.924,8.646-16.341,37.893-13.867,47.228Z" transform="translate(-325.642 -698.781)" fill="none"/>
    </clipPath>
  </defs>
  <g id="Vector_1" data-name="Vector 1" transform="translate(18173 9027)">
    <path id="Path_460" data-name="Path 460" d="M302.9,1622.216c-69.573-.453-55.71,19.625,44.949,19.769,40.184.059,68.19-2.675,99.554-4.267,29.566-1.5,26-7.245,88.632-5.284,36.81,1.152,58.874-10.814-47.117-10.219C450,1622.434,337.84,1622.443,302.9,1622.216Z" transform="translate(-18420.82 -10374.986)" fill="#2a42b1" fill-rule="evenodd"/>
    <ellipse id="Ellipse_80" data-name="Ellipse 80" cx="50.626" cy="5.854" rx="50.626" ry="5.854" transform="translate(-18148.635 -8748.977)" fill="rgba(0,0,0,0.2)"/>
    <ellipse id="Ellipse_81" data-name="Ellipse 81" cx="24.183" cy="2.381" rx="24.183" ry="2.381" transform="translate(-17955.525 -8751.909)" fill="rgba(0,0,0,0.2)"/>
    <path id="Path_461" data-name="Path 461" d="M218.677,926.192c-15.838,18.231-43.511,70.717,45.971,39.211,23.188-8.165,64.163-29.686,94.932-35.677,29.341-5.714,75.606,70.848,89.673-.27,17.336-87.634,73.419,2.976,78.152-9.775s-29.179-63.751-49.751-66.729-50.815,52.959-73.682,48.852-32.638-77.559-63.521-73.5-94.97,67.033-121.773,97.882Z" transform="translate(-18374.857 -9743.282)" fill="#374eb9" fill-rule="evenodd"/>
    <path id="Path_462" data-name="Path 462" d="M1440.162,1218.511a20.811,20.811,0,0,1-1.757-2.385,26.241,26.241,0,0,1-3.593-8.73,43.728,43.728,0,0,1-.834-18.738c.087.527.108,1.034.172,1.591a3.085,3.085,0,0,0,.789,1.792c.286.425.372,1.059.723,1.558a1.38,1.38,0,0,0,2.227-.214,2.212,2.212,0,0,0,2.426-.584,5.881,5.881,0,0,0,1.108-2.319c.045-.219.089-.439.112-.629a1.13,1.13,0,0,0,1.565.072,3.993,3.993,0,0,0,.957-3.617,6.55,6.55,0,0,0-.393-1.46l.044,0c.971-.373.777-1.935.381-2.7a7.582,7.582,0,0,0-1.141-1.86.835.835,0,0,0,.067-.571,2.8,2.8,0,0,0-1.912-2.288c-1.057-.422-2.49-.348-3.194-.915a2.363,2.363,0,0,1-.615-1.007c-.044-.049-.044-.1-.066-.181a6.316,6.316,0,0,0,.244-.7,51.929,51.929,0,0,1,5.007-10.2,7.9,7.9,0,0,1,.085,1.117c-.025,1-.16,2.136.5,2.816a1.55,1.55,0,0,0,2.712-.481c.354-.736.379-1.623.777-2.364a4.516,4.516,0,0,1,.4-.634,5.6,5.6,0,0,1-.25,2.79c-.623,2.32-2.413,3.881-3.124,6.265-.2,1.014.415,1.431,1.033,1.31a8.331,8.331,0,0,0-.138,2.322c.37,1.972,1.844,2.912,3.432,2.365a6.33,6.33,0,0,0,.326,1.977c.482,1.343,1.758,2.331,3.037,1.817a3.184,3.184,0,0,0,1.237-1.046c.723,1.611.937,4.109,2.788,4.339a1.679,1.679,0,0,0,1.655-.581,4.566,4.566,0,0,0,1.013.373,2.682,2.682,0,0,0,1.92-.771c1.922-1.737,1.776-4.8,1.054-7.007,0-.054-.022-.078-.022-.132.066-.034.132-.014.2-.048,2.383-1.17.738-4.291-.537-5.387l-.154-.171c1.414-1.279.295-3.224-1.113-4.253-.264-.186-.484-.43-.748-.616a2.248,2.248,0,0,0,.664-1.2,2.186,2.186,0,0,0-1.25-2.359,8.667,8.667,0,0,0-1.409-.491,1.043,1.043,0,0,0-.063-1.146,2.384,2.384,0,0,0-2.224-.752c-.286.058-.552.14-.86.227-.264-.4-1.123-.388-1.586-.311-1.235.134-2.184.585-3.152.153a4.057,4.057,0,0,1-1.669-2.341,9.987,9.987,0,0,1-.372-1.274c2.012-2.5,4.089-4.814,6.256-7.086a8.25,8.25,0,0,1,.237,2.254c-.026,1.585-.519,4.643,1.4,4.462a1.832,1.832,0,0,0,.817-.437,5.888,5.888,0,0,0,1.1,2.349,2.087,2.087,0,0,0,3.7-.508,4.148,4.148,0,0,0-.586-3.343c-.505-.777-1.715-1.746-1.206-2.31.088-.117.309-.087.683-.047a3.488,3.488,0,0,0,.572.1,10.536,10.536,0,0,0,1.534,3.321,54.017,54.017,0,0,0,4.505,5.119c.9.948,2.176,2.474,3.523,1.282a1.643,1.643,0,0,0,.465-.935,4.329,4.329,0,0,0,2.422,1.026c1.3.047,1.79-1.668,1.7-3a.7.7,0,0,1,0-.215,1.749,1.749,0,0,0,2.515-.486c1.262-2.255.677-6.242-1.193-7.408-.132-.093-.286-.157-.418-.25a1.4,1.4,0,0,0,.244-.59,2.534,2.534,0,0,0-1.272-2.652,3.978,3.978,0,0,0-1.608-.228.845.845,0,0,0-.263-.508,3.852,3.852,0,0,0-2.026-.747,3.469,3.469,0,0,0,2.494-1.37,3.1,3.1,0,0,0,.4-1.009,5.129,5.129,0,0,0,3-1.022,2.689,2.689,0,0,0,1.044-3.036,3.757,3.757,0,0,0,1.479-.884,3.111,3.111,0,0,0-.45-5.021,4.139,4.139,0,0,0-1.1-.525c1.5-1.021,3.2-2.2,3.538-4.459a2.862,2.862,0,0,0-.742-2.763c-1.562-1.145-3.591-.712-5.422-.058a3.467,3.467,0,0,0,.378-1.409,2.271,2.271,0,0,0-2.573-2.377,4.343,4.343,0,0,0-1.92.824l-.022.029c0-1.717-1.275-1.525-2.578-.392a11.687,11.687,0,0,0-3.052,3.924c-.373-.684-1.079-.554-1.676.127l-.111.146c.333-.975.313-1.911-.743-2.333a1.172,1.172,0,0,0-.419-.089,6.245,6.245,0,0,0,.759-3.73c-.305-1.254-1.628-1.219-2.467-.538a.127.127,0,0,1-.088.063,4.872,4.872,0,0,0-.016-2.117,1.906,1.906,0,0,0-3.238-.75,2.656,2.656,0,0,0-.332.385c-1.74-.59-3.179,1.9-3.558,3.844-.417-.464-.9-.734-1.5-.375-1.3.811-1.77,2.712-1.885,4.307a6.4,6.4,0,0,0,0,1.127,1.423,1.423,0,0,0-.95.988c-.668,2.808,1.132,5.4,1.987,7.429a13.6,13.6,0,0,1,.591,1.787,2.934,2.934,0,0,0-1.74-.59,1.39,1.39,0,0,0-1.347,1.138,1.951,1.951,0,0,0,.24,1.127,5.76,5.76,0,0,0,.746,1.368c.4.494.769,1.016,1.208,1.505a.986.986,0,0,0-.419.233c-.685.8.017,1.956.39,2.64a4.591,4.591,0,0,0,.813.9c-.09.868,1.316,2.379,1.734,2.736a6.51,6.51,0,0,0,.7.568c-2.122,2.16-4.155,4.419-6.123,6.75a3.471,3.471,0,0,1-.376.443,3.69,3.69,0,0,0-.573-.26,3.245,3.245,0,0,1-.792-.451,2.624,2.624,0,0,1-1.05-3.32c.266-.619,1.04-1.427,1.372-2.24a1.654,1.654,0,0,0-.173-1.376c.421-.93,1.437-1.738,1.748-2.791a1.122,1.122,0,0,0-.372-1.113c.155-.312.332-.653.487-.965.708-1.257.978-3.378-.675-3.172-.088.01-.154.044-.243.053.292-2.15,1.38-5.138-1-5.739a1.75,1.75,0,0,0-.529,0,6.434,6.434,0,0,0,.45-3.267c-.282-1.766-2.134-1.62-3.238-.8a3.739,3.739,0,0,0-.663.608c-.26-1.581-.852-3.046-2.285-2.972-2.69.344-3.933,3.59-4.227,6.491-.022.137-.023.244-.045.38a.515.515,0,0,0-.22-.03,2.519,2.519,0,0,0-2.075,1.3c-1.151,1.84-.76,4.266-.17,6.107.022.078.066.127.088.2a2.262,2.262,0,0,0-.821,2.208,3.411,3.411,0,0,0,.657,1.431,2.71,2.71,0,0,0,.946.783,1.268,1.268,0,0,0,.394,1.083c.593.66,1.562,1.092,2.09,1.625a9.8,9.8,0,0,1,.813,1.227,2.955,2.955,0,0,0-1.155,3.343,5.093,5.093,0,0,0,5.236,3.779c1.1-.119,2.207-1.043,3.045-1.187a1.057,1.057,0,0,1,.946.568c.132.2.2.381.285.531a46.415,46.415,0,0,0-5.443,8.26c-.532,1.022-1.019,2.1-1.507,3.167a2.122,2.122,0,0,1-2.821-.232c-.791-.934-.5-2.494-.651-3.953a3.988,3.988,0,0,0-.723-1.826,1.438,1.438,0,0,0-1.564-.286,2.2,2.2,0,0,0-.7-1.158,1.305,1.305,0,0,0-2.073.439,2.5,2.5,0,0,0-1.738-.965,1.883,1.883,0,0,0-2.077,1.887,2.539,2.539,0,0,0-1.544.435c-1.435.986-2.147,3.531-1.093,4.973l.044.049c-.906.822-1.373,2.348.082,2.62a3.563,3.563,0,0,0,1.742-.215,4.129,4.129,0,0,0-.313,1.8,1.39,1.39,0,0,0,1.011,1.339,2.726,2.726,0,0,0,1.3-.167,1.765,1.765,0,0,0,.266-.136c0,1.717,1.449,2.257,3.127,1.218a2.974,2.974,0,0,0,.42-.34,2.415,2.415,0,0,0,1.9-.312,3.439,3.439,0,0,0,.951-1.31c.554-1.16.492-2.735,1.483-2.6a2.594,2.594,0,0,1,1.277.345c.286.1.55.45.859.31-.177.448-.377.926-.533,1.4a.336.336,0,0,0-.133.123c-.378,1.462-1.724,1.957-2.741,3.086a6.555,6.555,0,0,0-1.373,2.348,2.233,2.233,0,0,0-.111.415c-.752.832-1.57,2.02-1.132,2.992a1.7,1.7,0,0,0,.373.47,6.1,6.1,0,0,0-.16,2.19,4.816,4.816,0,0,0,.567,2.406c-.993.3-1.758-2.117-3.389-2.1a1.4,1.4,0,0,0-1.169.368c-1.476-.4-2.607,2.481-1.443,4.045a1.859,1.859,0,0,0,.99.563,1.182,1.182,0,0,0,.065.61c.417.573,1.145.413,1.741.107a1.266,1.266,0,0,0,1.74.321,7.459,7.459,0,0,0,1.283-1.64,1.484,1.484,0,0,1,.618-.55l.463-.13a44.62,44.62,0,0,0-.417,7.662,48.84,48.84,0,0,0,1.518,9.921,26.609,26.609,0,0,0,3.944,9.229q.792,1.122,1.67,2.18a.407.407,0,0,0,.485.162c.835.069.835-.36.44-.693Zm16.833-74.96a6.818,6.818,0,0,1,1.354-3.821,2.667,2.667,0,0,1,.354-.414c-.158,1.493-.228,2.975-.32,4.433-.046.595-.069,1.214-.115,1.809-.177.18-.376.336-.53.486a.26.26,0,0,1-.088-.151,5.275,5.275,0,0,1-.655-2.343Zm2.036,5.386a3.876,3.876,0,0,1-1.1-1.169,4.389,4.389,0,0,1-.263-.508c.066.021.176-.019.242,0,.375-.067.507-.082.9-.125a12.353,12.353,0,0,1,2.359-.067c1.234.082,3.128.627,5.023.959l-.4.043c-1.456.318-3.089,1.085-4.345,1.194a4.752,4.752,0,0,1-2.424-.328Z" transform="translate(-19345.834 -9974.442)" fill="#50cd89"/>
    <path id="Path_463" data-name="Path 463" d="M1334.1,1060.9c.748-.973,1.546-1.7,2.314-2.787.023-.031.045-.09.067-.123a57.541,57.541,0,0,0,6.61-4.692,51.65,51.65,0,0,0,8.533-10.207,55.452,55.452,0,0,0,7.36-15.385c.654-2.421,2.812-7.715,1.278-9.614-1.5-.976-5.34,1.709-6.827,2.754A48.669,48.669,0,0,0,1339.2,1037.7a26.063,26.063,0,0,0-2.233,14.884,13.178,13.178,0,0,1-.011,3.569,6.173,6.173,0,0,1-.76,1.648.6.6,0,0,0-.114.1.266.266,0,0,0-.044.146,16.691,16.691,0,0,1-1.453,1.687c-.136.159-.272.346-.409.505.054-.962.107-1.925.137-2.912,0-4.13-.434-8.172-.824-12.221-.174-2.14-.371-4.3-.613-6.434,1.522-1.7,3.117-3.261,4.5-5.107a76.905,76.905,0,0,0,7.574-12.239c2.749-5.909,6.1-11.842,6.986-18.509.046-1.411.17-3.76-1.043-4.325a1.231,1.231,0,0,0-.852.228l-1.788,1a17.229,17.229,0,0,0-4.458,3.247,42.09,42.09,0,0,0-10.588,21.808c-.519,3.639-.39,7.3-.747,10.946v.028c-.077-.467-.154-.934-.254-1.37-.755-3.718-1.9-7.3-2.656-11.017-.4-1.884-.779-3.8-1.18-5.684v-.028a8.322,8.322,0,0,1,.2-2.218,21.573,21.573,0,0,1,2.161-3.693,80.469,80.469,0,0,0,4.267-9.318,84.861,84.861,0,0,0,5.215-16.414,31.782,31.782,0,0,0,.557-4.15c.177-1.906-1.159-1.556-2.188-.8a24.26,24.26,0,0,0-5.423,5.12,28.22,28.22,0,0,0-3.112,6.379,46.579,46.579,0,0,0-2.955,10.291,25.952,25.952,0,0,0,.1,6.139,29.3,29.3,0,0,0,1.053,4.97c.1.24.08.635.2.872a4.27,4.27,0,0,0-.308.969l-.061.514c-.3-1.308-.6-2.588-.942-3.861-.88-2.914-1.965-5.548-2.866-8.348-.849-2.385-1.858-4.692-2.753-7.042a.745.745,0,0,1,.067-.15,6.317,6.317,0,0,1,.314-.577c.7-1.022,1.566-1.87,2.313-2.843,1-1.259,2.042-2.469,2.945-3.828a44.693,44.693,0,0,0,2.561-4.7,44.216,44.216,0,0,0,3.722-11.49c.278-1.414.394-2.807.581-4.069.083-.572.166-1.175.2-1.742,0-.252-.01-.589-.22-.7-.28-.131-.528.212-.734.409q-.785.781-1.572,1.478a34.525,34.525,0,0,0-4.223,3.524,20.819,20.819,0,0,0-4.988,9.106,38.877,38.877,0,0,0-.422,8.177,26.461,26.461,0,0,1-.3,4.592c-.127.719-.324,1.421-.5,2.147a45.643,45.643,0,0,1-1.44-4.608,6.8,6.8,0,0,1-.155-.962.9.9,0,0,0,.11-.352,4.629,4.629,0,0,1,.195-.813,39.486,39.486,0,0,0,1.152-4.567,25.806,25.806,0,0,0-.092-4.23,55.727,55.727,0,0,0-1.05-7.639,119.643,119.643,0,0,0-5.674-17.377c-.238-.417-.594-2.392-1.118-1.843a35.684,35.684,0,0,0-1.276,22.452,45.39,45.39,0,0,0,1.656,5.057,50.573,50.573,0,0,0,2.459,4.638,18.161,18.161,0,0,0,2.725,3.956,2.921,2.921,0,0,0,.423.392,26.62,26.62,0,0,0,1.22,5.256c-2.649-3.517-4.282-8.633-8.022-10.962a14.062,14.062,0,0,0-5.541-2.056,13.155,13.155,0,0,0-4.492-.2,6.246,6.246,0,0,0-2.212.526c-.931,1.054.344,2.622.934,3.329a20.041,20.041,0,0,0,3.845,3.13c1.193.821,2.341,1.677,3.6,2.376a26.994,26.994,0,0,0-.279,8.41c.948,5.6,3.83,10.689,8.1,13a13.94,13.94,0,0,0,4.182,1.089,5.409,5.409,0,0,1,2.306.951,20.1,20.1,0,0,0,4.093,2.7,1.88,1.88,0,0,0,.349.149c.505,2.6.965,5.234,1.516,7.829.8,3.656,1.807,7.227,2.331,11.005.106.828.212,1.656.295,2.46-1.8-4.25-3.129-8.873-5.483-12.712a49.952,49.952,0,0,0-5.32-7.03c-1.341-1.363-2.731-2.888-4.476-3.493-2.931-.95-6.134-.2-9.072-.115-.8.334-.135,1.677.037,2.243a25.683,25.683,0,0,0,5.265,7.853,83.23,83.23,0,0,0,6.1,6.868,19.921,19.921,0,0,0,5.638,3.785c1.447.759,2.8,1.7,4.184,2.606a16.693,16.693,0,0,0,3.29,1.716c.168,1.8.313,3.582.458,5.388.311,3.469.594,6.634.651,10.138.008,1.909-.077,3.8-.208,5.7-1.475-1.063-2.181-3.187-3-5.183a62.962,62.962,0,0,0-4.179-7.972c-1.545-2.543-3.271-4.753-4.813-7.128a72.969,72.969,0,0,0-6.888-9.514,10.21,10.21,0,0,0-4.143-2.92c-1.1-.553-1.2.415-1.039,1.518.989,5.288,1.312,10.918,3.334,15.729a41.494,41.494,0,0,0,2.8,5.6,18.1,18.1,0,0,0,2.488,3.595,21.81,21.81,0,0,0,8.808,5.236,10.137,10.137,0,0,0,3.477.426,8.517,8.517,0,0,0,1.687-.117l.115-.016a4.971,4.971,0,0,0,.8.875,3.57,3.57,0,0,0,.515.379,77.906,77.906,0,0,1-1.586,10.554,12.621,12.621,0,0,0-1.018-2.84,6.206,6.206,0,0,0-2.118-2.212c-2.03-1.044-4.115-1.182-6.076-2.264a19.376,19.376,0,0,1-4.474-3.353,10.1,10.1,0,0,0-3.044-2.227c-1.955-.689-4.131.618-5.8,2.109-.615.589-1.253,1.182-1.821,1.821a1.5,1.5,0,0,0,.332,1.949,7.9,7.9,0,0,0,3.339,1.878,44.265,44.265,0,0,1,4.191,1.621c1.633.818,3.312,1.685,5.222,1.032,1.105-.319,2.09-.93,3.082-1.121,2.1-.23,3.846,1.753,5.493,3.411a4.63,4.63,0,0,0,1.8,1.1,1.418,1.418,0,0,0,.7.074c-.6,2.695-1.161,5.411-1.951,8.047-.088.293-.089.237-.2.561v.056c0,.028,0,.028-.022.059v.028c-.02.115.027.221.12.236a1.62,1.62,0,0,0,.784-.164c.327.152.694-1.415.783-1.623.505-1.67.94-3.387,1.375-5.075a3.894,3.894,0,0,0,1.452-.338,5.012,5.012,0,0,0,1.143-.858c.048.106.21.084.348.037a17.447,17.447,0,0,1,2.335-.121,25.08,25.08,0,0,0,2.862-.417,22.7,22.7,0,0,0,6.708-2.963,29.536,29.536,0,0,0,9.416-8.529,13.829,13.829,0,0,0,2.22-4.319c.064-.346.2-.785-.017-1.037s-.58-.09-.859-.136a9.13,9.13,0,0,1-1.552-.1,13.012,13.012,0,0,0-5.74-.119c-4.01.967-9.323,5.735-11.519,10.079-1.034,1.882-1.692,4.051-2.846,5.641a12.712,12.712,0,0,1-2.162,2.176,3.052,3.052,0,0,1-1.588.525l-.046.006c.174-.7.348-1.424.521-2.122a98.356,98.356,0,0,0,1.873-13.12Zm-9.828-45.047a.28.28,0,0,0-.094-.072c.019-.255-.194-.564-.2-.844a20.176,20.176,0,0,0-.972-4.279,61.7,61.7,0,0,0-3.925-7.979c-1.337-2.543-2.948-4.853-4.445-7.262l-.713-1.167c.536.208,1.048.419,1.583.627a23.958,23.958,0,0,0,4.841,1.73c.047.022.093.016.14.037s.071.075.117.1l.046-.006c.511,1.5,1.089,2.971,1.6,4.446.774,2.058,1.336,3.892,1.972,6,.683,2.154,1.361,4,1.906,6.23.323,1.333.6,2.7.853,4.042A17.173,17.173,0,0,1,1324.271,1015.848Z" transform="translate(-19248.691 -9843.329)" fill="#2ea564"/>
    <path id="Path_464" data-name="Path 464" d="M1460.21,1252.212c.644-.035,1.216.072,1.911,0,.021,0,.051-.017.071-.019a25.838,25.838,0,0,0,4.246,1.5,20.029,20.029,0,0,0,7.023.015,21.689,21.689,0,0,0,8.5-3.026c1.147-.755,3.93-2,4.054-3.732-.2-1.281-2.658-2.17-3.609-2.511a19.048,19.048,0,0,0-11.65-.1,12.461,12.461,0,0,0-6.373,5.637,7.181,7.181,0,0,1-1.329,1.643,2.427,2.427,0,0,1-.9.34.249.249,0,0,0-.08-.017.114.114,0,0,0-.071.043,6.49,6.49,0,0,1-1.177-.026c-.111,0-.231.009-.342.007.378-.415.756-.829,1.134-1.269a73.715,73.715,0,0,0,4.226-6.1c.729-1.084,1.458-2.194,2.157-3.312a24.226,24.226,0,0,0,11.015-1.322c3.236-1.205,6.708-2.089,9.52-4.677.542-.626,1.461-1.642,1.211-2.576a.776.776,0,0,0-.408-.368l-1.049-.529a7.707,7.707,0,0,0-2.895-.971,16.625,16.625,0,0,0-12.109,4.2c-1.548,1.393-2.859,3.156-4.348,4.641l-.01.013c.144-.259.289-.517.413-.773,1.095-2.136,1.99-4.425,3.085-6.561.548-1.092,1.116-2.187,1.663-3.279l.01-.013a4.171,4.171,0,0,1,.9-.916,8.247,8.247,0,0,1,2.19-.508,31.529,31.529,0,0,0,5.077-1.939,35.555,35.555,0,0,0,8.071-4.691,15.324,15.324,0,0,0,1.752-1.608c.775-.782.139-1.361-.531-1.581a9.928,9.928,0,0,0-3.956-.641,11,11,0,0,0-3.548,1.222,19.9,19.9,0,0,0-4.941,3.115,14.422,14.422,0,0,0-2.242,2.891,19.512,19.512,0,0,0-1.447,2.879c-.052.164-.206.338-.248.513a1.779,1.779,0,0,0-.477.277l-.214.2c.372-.77.735-1.526,1.077-2.306.749-1.834,1.316-3.651,2.014-5.444.564-1.572,1.039-3.2,1.573-4.778a.293.293,0,0,1,.081-.032,2.44,2.44,0,0,1,.333-.092c.645-.084,1.288,0,1.932-.031a22,22,0,0,0,2.537-.136,17.128,17.128,0,0,0,2.717-.753,18.469,18.469,0,0,0,5.677-3.244c.63-.5,1.192-1.078,1.731-1.557.245-.219.5-.45.724-.692a.576.576,0,0,0,.177-.445c-.057-.215-.279-.195-.429-.218q-.588-.075-1.145-.189a14.651,14.651,0,0,0-2.908-.713,8.081,8.081,0,0,0-5.271,1.442,20.226,20.226,0,0,0-3.2,3.543,13.591,13.591,0,0,1-1.817,1.957c-.315.262-.65.477-.985.716.334-.913.71-1.978,1.165-2.927a4.365,4.365,0,0,1,.3-.53.379.379,0,0,0,.172-.1,2.058,2.058,0,0,1,.376-.267,17.112,17.112,0,0,0,2.132-1.472,14.426,14.426,0,0,0,1.536-2,34.859,34.859,0,0,0,2.439-4.11,88.215,88.215,0,0,0,4.3-11.171c.065-.325.663-1.434.261-1.47a14.962,14.962,0,0,0-1.916,1.071,19.6,19.6,0,0,0-6.906,8.592,33.488,33.488,0,0,0-1.25,3.253c-.348,1.147-.544,2.342-.791,3.505a16.378,16.378,0,0,0-.437,3.338,2.844,2.844,0,0,0,.015.415,18.133,18.133,0,0,0-1.49,3.1c.3-3.092,1.584-6.361,1.032-9.509a13.526,13.526,0,0,0-1.335-4.02,10.782,10.782,0,0,0-1.626-2.584c-.338-.337-.613-.8-1.033-.983-.744-.03-.844,1.4-.883,2.055a19.929,19.929,0,0,0,.295,3.578c.147,1.04.264,2.072.482,3.094a14.3,14.3,0,0,0-3.229,3.73,15.567,15.567,0,0,0-1.759,10.5,12.935,12.935,0,0,0,1.18,2.821,5.252,5.252,0,0,1,.52,1.717,20.164,20.164,0,0,0,.547,3.516,1.875,1.875,0,0,0,.077.263c-.774,1.481-1.579,2.952-2.333,4.457-1.055,2.132-2,4.34-3.2,6.375-.267.442-.535.883-.8,1.3.895-2.963,2.11-5.833,2.644-8.91a46.142,46.142,0,0,0,.6-6.2,12.763,12.763,0,0,0-.4-4.094c-.756-2.063-2.247-3.495-3.394-5.081-.429-.291-.673.7-.819,1.056a22.97,22.97,0,0,0-.922,6.545c-.11,2.192-.31,4.38-.238,6.555a19.925,19.925,0,0,0,.73,4.873c.266,1.152.432,2.338.617,3.522a16.634,16.634,0,0,0,.609,2.617c-.606.926-1.212,1.828-1.827,2.743-1.171,1.775-2.239,3.394-3.518,5.044-.706.886-1.441,1.714-2.2,2.519a10.073,10.073,0,0,1,.788-4.056,52.858,52.858,0,0,0,1.378-6c.359-2.031.526-4.007.824-5.96a66.7,66.7,0,0,0,.924-8.212,10.163,10.163,0,0,0-.485-3.645c-.21-.863-.608-.47-.958.125-1.589,2.99-3.557,5.77-4.578,9.113a34.4,34.4,0,0,0-1.021,4.139,16.36,16.36,0,0,0-.393,3.039,21.692,21.692,0,0,0,1.392,7.3,8.751,8.751,0,0,0,1.159,2.124,6.414,6.414,0,0,0,.682.881l.05.057a4.786,4.786,0,0,0-.021.848,3.546,3.546,0,0,0,.054.461,36.945,36.945,0,0,1-4.52,4,9.532,9.532,0,0,0,.669-1.876,5.963,5.963,0,0,0,.019-2.2c-.381-1.608-1.119-2.827-1.461-4.413a19.345,19.345,0,0,1-.45-4.028,10.02,10.02,0,0,0-.327-2.716,3.671,3.671,0,0,0-2.979-2.238,12.974,12.974,0,0,0-1.366-.168c-.463.043-.592.618-.6,1.085a7.842,7.842,0,0,0,.568,2.718c.359,1.009.7,2.02.985,3.072.315,1.282.629,2.614,1.595,3.371.537.465,1.137.729,1.584,1.19.881,1.059.806,2.941.814,4.62a4.614,4.614,0,0,0,.272,1.507,1.2,1.2,0,0,0,.236.419c-1.23.91-2.449,1.856-3.728,2.636-.142.087-.123.06-.284.149l-.02.026c-.01.013-.01.013-.031.015l-.01.013a.148.148,0,0,0-.042.175,1.083,1.083,0,0,0,.357.359c.067.251.788-.269.9-.316.812-.491,1.614-1.043,2.406-1.582a2.535,2.535,0,0,0,.675.649,2.218,2.218,0,0,0,.751.237c-.02.075.048.155.118.21a13.3,13.3,0,0,1,.929,1.238,17.744,17.744,0,0,0,1.239,1.394,14.629,14.629,0,0,0,10.375,3.628,5.369,5.369,0,0,0,2.445-.765c.152-.125.365-.254.379-.489s-.186-.363-.275-.539a7.568,7.568,0,0,1-.552-.905,10.459,10.459,0,0,0-2.13-3.236,9.211,9.211,0,0,0-8.107-1.729,21.463,21.463,0,0,1-3.173,1.028,5.087,5.087,0,0,1-1.627-.193,1.8,1.8,0,0,1-.8-.637l-.021-.023c.325-.226.66-.465.985-.691a46.98,46.98,0,0,0,5.583-5.028Zm13.005-26.253a.278.278,0,0,0-.009-.085c.1-.107.136-.368.238-.5a13.724,13.724,0,0,0,1.221-2.515,50.923,50.923,0,0,0,1.477-5.86c.438-1.916.685-3.875,1.013-5.818l.164-.934c.126.393.241.774.367,1.167a23.066,23.066,0,0,0,1.191,3.482c.01.036.029.058.039.094s0,.074.009.11l.021.023c-.365.977-.69,1.976-1.045,2.94-.47,1.38-.939,2.538-1.48,3.863-.542,1.374-.97,2.6-1.592,3.934-.373.794-.776,1.579-1.178,2.339A17.2,17.2,0,0,1,1473.215,1225.958Z" transform="translate(-19366.436 -10032.151)" fill="#78e8ab"/>
    <path id="Path_465" data-name="Path 465" d="M1366.96,1537.18h43.979l-5.9,11.289a18.146,18.146,0,0,1-16.082,9.741h-.01a18.146,18.146,0,0,1-16.082-9.741Z" transform="translate(-19302.115 -10307.354)" fill="#ffa700" fill-rule="evenodd"/>
    <g id="Group_507" data-name="Group 507" transform="translate(-17935.154 -8770.173)" clip-path="url(#clip-path)">
      <path id="Path_466" data-name="Path 466" d="M1401.937,1534.745c-7.382-.274-33.256-1.253-39.432,0-2.579.525,2.373,7.529,2.373,7.529s35.746-4.628,41.921-5.883C1408.475,1536.051,1403.647,1534.81,1401.937,1534.745Z" transform="translate(-1362.823 -1534.747)" fill="rgba(0,0,0,0.2)" fill-rule="evenodd"/>
    </g>
    <path id="Path_468" data-name="Path 468" d="M1405.85,1513.66h-47.5v.006a6.446,6.446,0,0,0,6.446,6.446H1399.4a6.447,6.447,0,0,0,6.448-6.447Z" transform="translate(-19295.264 -10288.642)" fill="#f1416c" fill-rule="evenodd"/>
    <path id="Path_469" data-name="Path 469" d="M610.655,342.306a2.906,2.906,0,0,1,4.505-1.031c1.127,1.033,1.126,3.095,0,5.159-.788,1.546-2.816,3.095-4.505,4.128-1.69-1.033-3.716-2.581-4.5-4.128-1.126-2.065-1.126-4.128,0-5.159A2.906,2.906,0,0,1,610.655,342.306Z" transform="translate(-18695.916 -9355.411)" fill="#ffa700" fill-rule="evenodd"/>
    <path id="Path_470" data-name="Path 470" d="M1736.43,822.762c0-2.415,2.827-4.375,6.31-4.375s6.308,1.961,6.308,4.375a4.2,4.2,0,0,1-2.689,3.583l.8,2.981-2.783-2.336a9.021,9.021,0,0,1-1.634.148C1739.257,827.138,1736.43,825.177,1736.43,822.762Z" transform="translate(-19596.047 -9735.518)" fill="#ffa700" fill-rule="evenodd"/>
    <g id="Group_508" data-name="Group 508" transform="translate(-17898.031 -9010.673)">
      <path id="Path_471" data-name="Path 471" d="M1551.218,374.941a2.678,2.678,0,0,0-2.676,2.676V401.2a2.676,2.676,0,0,0,5.352,0V377.616A2.677,2.677,0,0,0,1551.218,374.941Zm11.737,5.034a2.678,2.678,0,0,0-2.676,2.677V401.2a2.676,2.676,0,1,0,5.352,0V382.651A2.678,2.678,0,0,0,1562.955,379.974Zm10.9-5.025a2.678,2.678,0,0,0-2.676,2.676v24.014a2.676,2.676,0,0,0,5.352,0V377.624a2.677,2.677,0,0,0-2.676-2.676Zm10.848-14.091a2.678,2.678,0,0,0-2.676,2.676v38.087a2.676,2.676,0,0,0,5.352,0V363.534A2.678,2.678,0,0,0,1584.707,360.858Zm10.161,9.414a2.678,2.678,0,0,0-2.674,2.677v28.684a2.676,2.676,0,0,0,5.352,0V372.95a2.678,2.678,0,0,0-2.676-2.677Z" transform="translate(-1548.542 -360.858)" fill="#fff" fill-rule="evenodd"/>
    </g>
    <g id="Group_509" data-name="Group 509" transform="translate(-18039.305 -8903.988)">
      <path id="Path_472" data-name="Path 472" d="M859.315,894.507a2.678,2.678,0,0,0-2.676,2.676v23.585a2.676,2.676,0,1,0,5.352,0V897.183A2.676,2.676,0,0,0,859.315,894.507Zm11.738-11.838a2.678,2.678,0,0,0-2.676,2.678v35.42a2.676,2.676,0,1,0,5.352,0V885.346A2.678,2.678,0,0,0,871.053,882.669Zm10.9,5.99a2.678,2.678,0,0,0-2.676,2.676v29.86a2.676,2.676,0,0,0,5.352,0v-29.86A2.678,2.678,0,0,0,881.956,888.659ZM892.8,907.4a2.678,2.678,0,0,0-2.676,2.676V921.2a2.676,2.676,0,1,0,5.352,0v-11.12A2.678,2.678,0,0,0,892.8,907.4Zm10.161-4.342a2.678,2.678,0,0,0-2.676,2.676V921.2a2.676,2.676,0,1,0,5.352,0V905.734a2.677,2.677,0,0,0-2.676-2.676Z" transform="translate(-856.639 -882.669)" fill="#fff" fill-rule="evenodd"/>
    </g>
    <g id="Group_510" data-name="Group 510" transform="translate(-17877.068 -8915.475)">
      <path id="Path_473" data-name="Path 473" d="M1665.537,827.492a1.007,1.007,0,0,0-1.006-1.006h-12.456a1.006,1.006,0,0,0,0,2.012h12.456A1.006,1.006,0,0,0,1665.537,827.492Zm-2.519,4.413a1.007,1.007,0,0,0-1.006-1.006h-9.939a1.006,1.006,0,1,0,0,2.012h9.939A1.007,1.007,0,0,0,1663.019,831.9Z" transform="translate(-1651.068 -826.486)" fill="#fff" fill-rule="evenodd"/>
    </g>
    <g id="Group_511" data-name="Group 511" transform="translate(-18077.773 -9013.877)">
      <path id="Path_474" data-name="Path 474" d="M668.159,346.194a1.007,1.007,0,0,1,1.006-1.006h9.061a1.006,1.006,0,1,1,0,2.012h-9.061a1.006,1.006,0,0,1-1.006-1.006Zm1.927,4.413a1.007,1.007,0,0,1,1.007-1.006h7.134a1.006,1.006,0,0,1,0,2.012h-7.134a1.007,1.007,0,0,1-1.006-1.006Z" transform="translate(-668.159 -345.188)" fill="#f1416c" fill-rule="evenodd"/>
    </g>
    <path id="Path_475" data-name="Path 475" d="M959.721,281a61.281,61.281,0,1,0,27.609,6.572l-27.609,54.709Z" transform="translate(-18929.271 -9308)" fill="#50cd89" fill-rule="evenodd"/>
    <g id="Group_512" data-name="Group 512" transform="translate(-18030.836 -9027)" clip-path="url(#clip-path-2)">
      <path id="Path_476" data-name="Path 476" d="M1199.611,581.7l47.275,39.037s-1.247,17.874-8.024,18.978c-7.013,1.139-27.5-2.477-34.049-12.146s-5.2-45.869-5.2-45.869Z" transform="translate(-1137.946 -520.222)" fill="rgba(0,0,0,0.41)" fill-rule="evenodd"/>
    </g>
    <path id="Path_478" data-name="Path 478" d="M959.721,281A61.283,61.283,0,1,0,995.5,392.038l-35.775-49.757Z" transform="translate(-18929.244 -9308)" fill="#f1416c" fill-rule="evenodd"/>
    <g id="Group_513" data-name="Group 513" transform="translate(-18030.809 -9027)" clip-path="url(#clip-path-3)">
      <path id="Path_479" data-name="Path 479" d="M867.293,241.041l60.348,36.888s17.01-61.14,5.926-72.528-61.383-1.745-72.429,4.2C851.732,214.653,867.293,241.041,867.293,241.041Z" transform="translate(-866.36 -216.645)" fill="rgba(0,0,0,0.49)" fill-rule="evenodd"/>
    </g>
    <g id="Group_514" data-name="Group 514" transform="translate(-18063.719 -9014.267)">
      <path id="Path_481" data-name="Path 481" d="M740.706,350.537a3.627,3.627,0,1,0-3.673-3.578A3.627,3.627,0,0,0,740.706,350.537Zm-.032-2.418a1.209,1.209,0,1,1,1.193-1.225A1.209,1.209,0,0,1,740.674,348.119Z" transform="translate(-737.032 -343.282)" fill="#50cd89" fill-rule="evenodd"/>
      <path id="Path_482" data-name="Path 482" d="M790.021,366.27l-7.665-12a1.213,1.213,0,0,0-1.036-.558s-11.913.157-19.454.254a1.209,1.209,0,1,0,.032,2.418l18.781-.245,7.3,11.433a1.209,1.209,0,1,0,2.037-1.3Z" transform="translate(-755.84 -351.58)" fill="#50cd89" fill-rule="evenodd"/>
    </g>
    <g id="Group_515" data-name="Group 515" transform="translate(-17914.42 -8925.407)">
      <path id="Path_483" data-name="Path 483" d="M1604.606,823.37a3.627,3.627,0,1,0,3.673,3.578A3.627,3.627,0,0,0,1604.606,823.37Zm.032,2.418a1.209,1.209,0,1,1-1.193,1.225,1.209,1.209,0,0,1,1.193-1.225Z" transform="translate(-1573.905 -814.074)" fill="#ffa700" fill-rule="evenodd"/>
      <path id="Path_484" data-name="Path 484" d="M1468.569,779.766l7.665,12a1.213,1.213,0,0,0,1.036.558s11.912-.157,19.454-.254a1.209,1.209,0,1,0-.032-2.418l-18.781.245-7.3-11.433a1.209,1.209,0,0,0-2.037,1.3Z" transform="translate(-1468.379 -777.906)" fill="#ffa700" fill-rule="evenodd"/>
    </g>
    <path id="Path_485" data-name="Path 485" d="M323.129,1553.478c.538,12.059-9.775,15.151-4.414,18.595,6.088,3.912,38.217,8.215,40.95,4.878,5.986-7.3-13.31-9.306-16.473-13.282-2.255-2.835.732-8.937-2.5-10.576C337.348,1551.393,322.874,1547.727,323.129,1553.478Z" transform="translate(-18466.592 -10317.845)" fill="#ffa700" fill-rule="evenodd"/>
    <g id="Group_516" data-name="Group 516" transform="translate(-18149.426 -8767.477)" clip-path="url(#clip-path-4)">
      <path id="Path_486" data-name="Path 486" d="M334.367,1535.229c.133,3.609-12.352.393-19.2,4.664-4.721,2.946-14.054-1.11-14.187-4.719s7.822-16.944,13.387-16.936,19.867,13.381,20,16.99Z" transform="translate(-304.288 -1524.808)" fill="rgba(0,0,0,0.23)" fill-rule="evenodd"/>
    </g>
    <path id="Path_488" data-name="Path 488" d="M321.627,934.531c-8.71,28.848,9.07,32.573,19.748,61.085,4.892,13.064-24.871,47.8-23.871,58.939.924,10.257,22.944,15.51,29.876,7.89,9.292-10.217,25.185-47.539,25.887-69.195.545-16.785-12.244-50.918-20.852-60.7C345.625,924.824,324.6,924.686,321.627,934.531Z" transform="translate(-18466.84 -9821.871)" fill="#50cd89" fill-rule="evenodd"/>
    <g id="Group_517" data-name="Group 517" transform="translate(-18149.361 -8894.938)" clip-path="url(#clip-path-5)">
      <path id="Path_489" data-name="Path 489" d="M282.043,966.851c5.181,7.352,15.448,9.321,22.467,14.945,7.214,5.781,15.519,11.771,20.808,19.732,5.513,8.3,8.5,32.739,12.279,30.075s11.169-33.561,10.4-46.052c-.667-10.83-8.384-20.3-15.02-28.884-8.4-10.869-24.532-31.85-35.384-36.33-9.613-3.969-27.143,1.691-29.737,9.442S275.934,958.18,282.043,966.851Z" transform="translate(-277.684 -920.65)" fill="rgba(0,0,0,0.2)" fill-rule="evenodd"/>
    </g>
    <path id="Path_491" data-name="Path 491" d="M454.695,1615.331a1,1,0,0,1-.036.126,4.522,4.522,0,0,1-.191.438c-.436.917-.993,1.769-1.49,2.652a3.834,3.834,0,0,0-.417.848.829.829,0,0,0,.232.855,1.126,1.126,0,0,0,.944.207,5.734,5.734,0,0,0,1.363-.525,10.866,10.866,0,0,1,2.61-1,1.562,1.562,0,0,1,.977.022.612.612,0,0,1,.272.456,1.432,1.432,0,0,0,.188.448.672.672,0,0,0,.385.258.682.682,0,0,0,.464-.053.605.605,0,0,0,.115-1.017,1.845,1.845,0,0,0-.7-1.065,2.084,2.084,0,0,0-1.346-.309,9.626,9.626,0,0,0-3.5,1.177c-.072.036-.266.111-.47.19.5-.874,1.041-1.72,1.471-2.628a3.12,3.12,0,0,0,.366-1.442.9.9,0,0,0-.755-.8,2.914,2.914,0,0,0-1.22.043c-.527.118-1.066.332-1.481.466-1.766.572-3.455,1.349-5.181,2.024a9.748,9.748,0,0,1-1.683.613,2.026,2.026,0,0,1-.384.024c.006-.018.015-.037.02-.057a1.325,1.325,0,0,1,.109-.281,5.584,5.584,0,0,1,.493-.771,14.183,14.183,0,0,1,4.585-4.01.6.6,0,1,0-.448-1.123,15.774,15.774,0,0,0-5.121,4.431,4.906,4.906,0,0,0-.793,1.465,1.34,1.34,0,0,0,.1.984,1.262,1.262,0,0,0,1.262.58,8.661,8.661,0,0,0,2.3-.73c1.7-.667,3.372-1.435,5.115-2,.325-.106.732-.266,1.145-.379a2.648,2.648,0,0,1,.708-.122Zm4.815,3.629-.008,0ZM459.535,1618.95Z" transform="translate(-18567.564 -10366.126)" fill-rule="evenodd"/>
    <path id="Path_492" data-name="Path 492" d="M710.972,1523.006c6.553,10.137-.787,18.014,5.579,18.279,7.231.3,37.135-12.206,37.81-16.467,1.478-9.327-16.188-1.312-20.926-3.146-3.378-1.309-3.881-8.083-7.5-7.867C722.192,1514.026,707.847,1518.171,710.972,1523.006Z" transform="translate(-18779.664 -10288.753)" fill="#ffa700" fill-rule="evenodd"/>
    <g id="Group_518" data-name="Group 518" transform="translate(-18069.135 -8774.953)" clip-path="url(#clip-path-6)">
      <path id="Path_493" data-name="Path 493" d="M712.831,1509.718c1.62,3.228-11.073,5.487-15.529,12.218-3.071,4.641-13.246,4.827-14.866,1.6s.078-18.662,5.144-20.966S711.211,1506.491,712.831,1509.718Z" transform="translate(-687.709 -1504.467)" fill="rgba(0,0,0,0.23)" fill-rule="evenodd"/>
    </g>
    <path id="Path_495" data-name="Path 495" d="M396.886,980.757c2.878,21.4,24.953,22.817,49.118,41.338,11.072,8.487,4.238,53.717,10.989,62.633,6.219,8.209,27.146.883,29.517-9.141,3.263-13.792.947-54.885-9.934-73.622-8.434-14.525-41.351-35.674-54.633-39.207C412.006,960.113,394.638,964.032,396.886,980.757Z" transform="translate(-18529.854 -9849.772)" fill="#50cd89" fill-rule="evenodd"/>
    <path id="Path_496" data-name="Path 496" d="M842.8,1534.576a.974.974,0,0,1,.033.127,4.559,4.559,0,0,1,.056.474c.087,1.012.037,2.028.054,3.042a3.834,3.834,0,0,0,.068.943.828.828,0,0,0,.632.62,1.126,1.126,0,0,0,.92-.3,5.753,5.753,0,0,0,.911-1.142,10.861,10.861,0,0,1,1.749-2.178,1.568,1.568,0,0,1,.855-.474.614.614,0,0,1,.465.256,1.428,1.428,0,0,0,.388.292.67.67,0,0,0,.463.028.681.681,0,0,0,.374-.28.605.605,0,0,0-.415-.936,1.845,1.845,0,0,0-1.145-.565,2.086,2.086,0,0,0-1.317.413,9.611,9.611,0,0,0-2.43,2.785c-.044.067-.173.23-.31.4-.013-1,.03-2.01-.057-3.011a3.133,3.133,0,0,0-.412-1.429.9.9,0,0,0-1.055-.308,2.914,2.914,0,0,0-1.031.653c-.395.368-.752.825-1.043,1.15-1.236,1.385-2.3,2.909-3.451,4.363a9.818,9.818,0,0,1-1.142,1.379,2.023,2.023,0,0,1-.32.215c0-.018-.005-.04-.01-.06a1.352,1.352,0,0,1-.048-.3,5.585,5.585,0,0,1,.036-.914,14.186,14.186,0,0,1,1.933-5.776.6.6,0,1,0-.954-.743,15.775,15.775,0,0,0-2.183,6.41,4.9,4.9,0,0,0,.056,1.665,1.338,1.338,0,0,0,.584.8,1.261,1.261,0,0,0,1.383-.137,8.677,8.677,0,0,0,1.615-1.79c1.134-1.435,2.186-2.941,3.405-4.308.227-.256.5-.6.8-.906A2.639,2.639,0,0,1,842.8,1534.576Zm5.988.7-.005.007ZM848.8,1535.256Z" transform="translate(-18878.195 -10304.084)" fill-rule="evenodd"/>
    <path id="Path_497" data-name="Path 497" d="M424.549,699.21c10.155,1.337,12.7,32.224,21.944,36.66s27.364-8.386,33.52-10.039c.824-.221.945-3.775,2.254-5.624,1.219-1.72,2.282-.353,1.308,3.784-.242,1.034,1.994-2.593,3.2-3.363,3.246-2.081,6.457,5.741-4.562,12.135-6.918,4.015-28.377,19.78-39.525,18.178s-24.088-19.275-27.366-27.8C410.75,711.265,418.727,698.443,424.549,699.21Z" transform="translate(-18543.598 -9640.681)" fill="#624a4a" fill-rule="evenodd"/>
    <path id="Path_498" data-name="Path 498" d="M444.992,638.312c1.259,1.011-3.517,4.554-2.972,7.042.689,3.156,7.312,7.969,7.107,11.89s-5.214,11.953-8.336,11.63-9.347-8.638-10.4-13.569,1.636-13.192,4.07-16.025c2.3-2.674,9.271-1.981,10.532-.969Z" transform="translate(-18556.48 -9591.544)" fill="#15141f" fill-rule="evenodd"/>
    <path id="Path_499" data-name="Path 499" d="M326.015,755.169c2.476,9.337,21.868,5.348,28.713,8.787,20.528,10.308,27.738,1.472,20.347-10.683a75.348,75.348,0,0,1-9.188-22c-2.085-7.871-2.553-19.343-3.325-25.225-1.206-9.225-14-10.788-22.68,1.89-5.924,8.646-16.341,37.893-13.867,47.228Z" transform="translate(-18473.334 -9640.365)" fill="#ffa700" fill-rule="evenodd"/>
    <g id="Group_519" data-name="Group 519" transform="translate(-18147.691 -8941.584)" clip-path="url(#clip-path-7)">
      <path id="Path_500" data-name="Path 500" d="M504.215,874.482v11.564a4.244,4.244,0,0,0,1.172,3.04,2.289,2.289,0,0,0,2.546.534l8.312-3.574-8.312,3.574a3.435,3.435,0,0,0-1.823,2.413,4.786,4.786,0,0,0,.4,3.37l5.137,9.356-5.137-9.357a2.478,2.478,0,0,0-4.595,0l-5.139,9.356,5.139-9.356a4.777,4.777,0,0,0,.4-3.37,3.429,3.429,0,0,0-1.823-2.412l-8.312-3.574,8.312,3.574a2.29,2.29,0,0,0,2.547-.534,4.243,4.243,0,0,0,1.17-3.04Z" transform="translate(-458.135 -838.56)" fill="#f1416c" fill-rule="evenodd"/>
      <path id="Path_501" data-name="Path 501" d="M453.29,767.639c-3.8-.588-2.8,12.206-1.177,17.992,3.28,11.658,12.237,15.217,13.581,21.022,1.116,4.83-5.515,10.339-5.529,13.8-.01,2.954,2.589,7.717,5.451,6.988,5.372-1.366,25.231-8.812,26.779-15.191s-11.128-15.832-17.494-23.1C468.382,781.722,457.089,768.227,453.29,767.639Z" transform="translate(-425.105 -753.545)" fill="rgba(0,0,0,0.2)" fill-rule="evenodd"/>
      <path id="Path_502" data-name="Path 502" d="M308.273,879.944v10.163a3.729,3.729,0,0,0,1.03,2.672,2.011,2.011,0,0,0,2.238.47l7.306-3.141-7.3,3.14a3.022,3.022,0,0,0-1.6,2.12,4.207,4.207,0,0,0,.355,2.962l4.515,8.223-4.515-8.223a2.178,2.178,0,0,0-4.039,0l-4.516,8.223,4.516-8.223a4.2,4.2,0,0,0,.354-2.962,3.011,3.011,0,0,0-1.6-2.12l-7.306-3.141,7.306,3.141a2.013,2.013,0,0,0,2.239-.47,3.728,3.728,0,0,0,1.028-2.672Z" transform="translate(-303.413 -842.905)" fill="#f1416c" fill-rule="evenodd"/>
      <path id="Path_503" data-name="Path 503" d="M343.06,802.47v10.163a3.73,3.73,0,0,0,1.03,2.672,2.012,2.012,0,0,0,2.238.47l7.306-3.141-7.306,3.141a3.021,3.021,0,0,0-1.6,2.12,4.207,4.207,0,0,0,.355,2.962l4.515,8.223-4.514-8.224a2.178,2.178,0,0,0-4.038,0l-4.517,8.223,4.517-8.223a4.2,4.2,0,0,0,.354-2.962,3.01,3.01,0,0,0-1.6-2.12l-7.306-3.141,7.306,3.141a2.013,2.013,0,0,0,2.239-.47,3.728,3.728,0,0,0,1.028-2.672Z" transform="translate(-331.088 -781.271)" fill="#f1416c" fill-rule="evenodd"/>
      <path id="Path_504" data-name="Path 504" d="M362.894,855.773V870a5.221,5.221,0,0,0,1.441,3.74,2.815,2.815,0,0,0,3.132.657l10.226-4.4-10.226,4.4a4.226,4.226,0,0,0-2.243,2.967,5.889,5.889,0,0,0,.5,4.146l6.32,11.509-6.32-11.509a3.048,3.048,0,0,0-5.652,0l-6.321,11.509,6.321-11.509a5.878,5.878,0,0,0,.495-4.146,4.217,4.217,0,0,0-2.243-2.967L348.095,870l10.226,4.4a2.817,2.817,0,0,0,3.134-.657,5.217,5.217,0,0,0,1.439-3.74Z" transform="translate(-343.504 -823.676)" fill="#f1416c" fill-rule="evenodd"/>
      <path id="Path_505" data-name="Path 505" d="M411.762,822.643v10.163a3.73,3.73,0,0,0,1.03,2.672,2.011,2.011,0,0,0,2.238.47l7.306-3.141-7.306,3.141a3.021,3.021,0,0,0-1.6,2.12,4.207,4.207,0,0,0,.355,2.962l4.515,8.223-4.515-8.223a2.178,2.178,0,0,0-4.039,0l-4.516,8.223,4.516-8.223a4.2,4.2,0,0,0,.354-2.962,3.011,3.011,0,0,0-1.6-2.12l-7.306-3.141,7.306,3.141a2.013,2.013,0,0,0,2.239-.47,3.729,3.729,0,0,0,1.028-2.672Z" transform="translate(-385.743 -797.319)" fill="#f1416c" fill-rule="evenodd"/>
      <path id="Path_506" data-name="Path 506" d="M398.723,785.7v7.506a2.754,2.754,0,0,0,.761,1.973,1.485,1.485,0,0,0,1.653.348l5.395-2.32-5.4,2.32a2.227,2.227,0,0,0-1.184,1.565,3.108,3.108,0,0,0,.262,2.188l3.334,6.072-3.334-6.072a1.609,1.609,0,0,0-2.983,0l-3.335,6.072,3.335-6.072a3.1,3.1,0,0,0,.261-2.188,2.225,2.225,0,0,0-1.184-1.565l-5.4-2.32,5.4,2.32a1.486,1.486,0,0,0,1.654-.348,2.753,2.753,0,0,0,.759-1.973Zm10.986,28.724v7.5a2.754,2.754,0,0,0,.761,1.973,1.485,1.485,0,0,0,1.652.348l5.4-2.32-5.4,2.32a2.23,2.23,0,0,0-1.183,1.565A3.106,3.106,0,0,0,411.2,828l3.334,6.072L411.2,828a1.609,1.609,0,0,0-2.983,0l-3.335,6.072L408.217,828a3.1,3.1,0,0,0,.261-2.188,2.225,2.225,0,0,0-1.184-1.565l-5.394-2.32,5.4,2.32a1.486,1.486,0,0,0,1.654-.348,2.753,2.753,0,0,0,.759-1.973Z" transform="translate(-377.569 -767.929)" fill="#f1416c" fill-rule="evenodd"/>
      <path id="Path_507" data-name="Path 507" d="M403.187,688.831V699.05a3.751,3.751,0,0,0,1.035,2.686,2.023,2.023,0,0,0,2.25.472l7.346-3.159-7.346,3.159a3.036,3.036,0,0,0-1.611,2.131,4.229,4.229,0,0,0,.357,2.978l4.541,8.269-4.539-8.268a2.19,2.19,0,0,0-4.061,0l-4.543,8.268,4.541-8.268a4.222,4.222,0,0,0,.356-2.978,3.029,3.029,0,0,0-1.612-2.131l-7.346-3.159,7.346,3.159a2.024,2.024,0,0,0,2.251-.472,3.749,3.749,0,0,0,1.034-2.686Z" transform="translate(-378.875 -690.865)" fill="#f1416c" fill-rule="evenodd"/>
      <path id="Path_508" data-name="Path 508" d="M327.933,703.243V716.6a4.9,4.9,0,0,0,1.354,3.512,2.643,2.643,0,0,0,2.941.617l9.6-4.13-9.6,4.13a3.967,3.967,0,0,0-2.106,2.786,5.53,5.53,0,0,0,.467,3.894l5.935,10.809-5.935-10.809a2.863,2.863,0,0,0-5.309,0l-5.937,10.809,5.937-10.809a5.52,5.52,0,0,0,.465-3.894,3.962,3.962,0,0,0-2.106-2.786l-9.6-4.13,9.6,4.13a2.647,2.647,0,0,0,2.944-.617,4.9,4.9,0,0,0,1.352-3.512Z" transform="translate(-316.409 -702.331)" fill="#f1416c" fill-rule="evenodd"/>
    </g>
    <g id="Group_520" data-name="Group 520" transform="translate(-18081.406 -8992.604)">
      <path id="Path_510" data-name="Path 510" d="M831.238,455.82c12.526,10.314,14.141,29.077,3.6,41.875s-29.263,14.815-41.79,4.5-14.14-29.078-3.6-41.876S818.712,445.507,831.238,455.82Zm-4.773,5.8a22.533,22.533,0,1,1-31.341,3.375A22.3,22.3,0,0,1,826.465,461.617Z" transform="translate(-755.512 -449.232)" fill="#ffa700" fill-rule="evenodd"/>
      <path id="Path_511" data-name="Path 511" d="M747.8,682.514a.008.008,0,0,0,0-.007.01.01,0,0,0,0-.006l-3.531-2.907a4.569,4.569,0,0,0-6.432.623l-20.827,25.295a4.569,4.569,0,0,0,.623,6.432l2.824,2.325a.924.924,0,0,0,1.3-.127Z" transform="translate(-702.587 -631.668)" fill="#ffa700" fill-rule="evenodd"/>
      <path id="Path_512" data-name="Path 512" d="M684.812,756.782s0,0,0-.007a.01.01,0,0,0,0-.006l-5.192-4.275a6.724,6.724,0,0,0-9.465.917l-18.088,21.967a6.725,6.725,0,0,0,.916,9.466l4.486,3.694a.925.925,0,0,0,1.3-.127Z" transform="translate(-650.532 -689.272)" fill="#f1416c" fill-rule="evenodd"/>
    </g>
    <path id="Path_513" data-name="Path 513" d="M441.128,590.024c10.243-.125,17.165,30.083,26.948,33.156s25.888-12.2,31.745-14.717c.784-.337.4-3.871,1.429-5.888.961-1.876,2.208-.675,1.836,3.558-.093,1.058,1.6-2.851,2.684-3.784,2.915-2.523,7.21,4.761-2.785,12.662-6.275,4.961-25.266,23.625-36.529,23.629S439.865,623,435.4,615.025C429.189,603.923,435.256,590.094,441.128,590.024Zm-11.916-19.684c.615,4.882,10.308,11.47,13.5,10.373,6.87-2.353,2.879-18.058.717-21.4s-11.312-.5-13.682,1.338S428.766,566.787,429.211,570.339Z" transform="translate(-18555.086 -9528.178)" fill="#eedec9" fill-rule="evenodd"/>
    <path id="Path_514" data-name="Path 514" d="M274.963,517.043a9.354,9.354,0,0,1,3.6-4.588c2.178-1.588,8.412-2.333,9.468-4.937s-.7-8.412-3.137-10.687-9.069-4.52-11.5-2.962-1.268,10.135-3.079,12.313c-1.664,2-7.113-1.765-7.782.756-.957,3.609,5.4,19.734,2.033,20.907s-10.375-15.409-22.211-13.878c-19.331,2.5-19.325,22.007-17.228,28.048,3.353,9.648,14.963,16,22.51,15.646s18.213-11.012,22.769-17.78C274.739,533.441,273.605,521.613,274.963,517.043Z" transform="translate(-18392.646 -9476.937)" fill-rule="evenodd"/>
  </g>
</svg>
